<svg xmlns="http://www.w3.org/2000/svg" version="1.1" xmlns:xlink="http://www.w3.org/1999/xlink" xmlns:svgjs="http://svgjs.dev/svgjs" width="1000" height="265" viewBox="0 0 1000 265"><g transform="matrix(1,0,0,1,-0.6060606060606233,0.43066871367759063)"><svg viewBox="0 0 396 105" data-background-color="#eef1ed" preserveAspectRatio="xMidYMid meet" height="265" width="1000" xmlns="http://www.w3.org/2000/svg" xmlns:xlink="http://www.w3.org/1999/xlink"><g id="tight-bounds" transform="matrix(1,0,0,1,0.2400000000000091,-0.17064202421241248)"><svg viewBox="0 0 395.52 105.34128434472615" height="105.34128434472615" width="395.52"><g><svg viewBox="0 0 397.4975999999999 105.86799076644976" height="105.34128434472615" width="395.52"><g><rect width="397.4975999999999" height="1.871464620846724" x="0" y="57.044532776613124" fill="#3d9970" opacity="1" stroke-width="0" stroke="transparent" fill-opacity="1" class="rect-o-0" data-fill-palette-color="primary" rx="1%" id="o-0" data-palette-color="#3d9970"></rect></g><g><rect width="397.4975999999999" height="1.871464620846724" x="0" y="61.365558419510535" fill="#3d9970" opacity="1" stroke-width="0" stroke="transparent" fill-opacity="1" class="rect-o-1" data-fill-palette-color="primary" rx="1%" id="o-1" data-palette-color="#3d9970"></rect></g><g transform="matrix(1,0,0,1,0.9887999999999693,68.13614508445863)"><svg viewBox="0 0 395.52 37.73184568199113" height="37.73184568199113" width="395.52"><g id="textblocktransform"><svg viewBox="0 0 395.52 37.73184568199113" height="37.73184568199113" width="395.52" id="textblock"><g><svg viewBox="0 0 395.52 20.752308765403395" height="20.752308765403395" width="395.52"><g transform="matrix(1,0,0,1,0,0)"><svg width="395.52" viewBox="0 -33.77000045776367 652.27001953125 34.22999954223633" height="20.752308765403395" data-palette-color="#3d9970"><path d="M13.3-24.37L9.38-14.05 20.12-14.05 16.25-24.37Q15.47-26.49 14.71-29.17L14.71-29.17Q14.26-27.1 13.3-24.37L13.3-24.37ZM16.41-33.39L29.47 0 25.48 0 21.33-10.57 8.01-10.57 3.92 0 0 0 13.14-33.39 16.41-33.39ZM47.34-30.28L47.34-30.28Q41.86-30.28 38.69-26.62 35.51-22.95 35.51-16.52 35.51-10.09 38.57-6.53 41.63-2.98 47.29-2.98L47.29-2.98Q50.83-2.98 55.26-4.22L55.26-4.22 55.26-0.83Q51.79 0.46 46.71 0.46L46.71 0.46Q39.36 0.46 35.36-3.99L35.36-3.99Q31.37-8.49 31.37-16.68L31.37-16.68Q31.34-20.48 32.47-23.67 33.59-26.87 35.66-29.1 37.74-31.32 40.75-32.55 43.75-33.77 47.39-33.75L47.39-33.75Q52.68-33.75 56.54-31.83L56.54-31.83 54.9-28.51Q51.19-30.28 47.34-30.28ZM83.74-11.6L83.74-33.27 87.61-33.27 87.61-11.73Q87.61-6.04 84.17-2.79 80.73 0.46 74.74 0.46 68.75 0.46 65.44-2.81L65.44-2.81Q62.15-6.09 62.15-11.83L62.15-11.83 62.15-33.27 66.02-33.27 66.02-11.55Q66.02-7.36 68.31-5.14 70.6-2.93 74.89-2.93 79.19-2.93 81.47-5.18 83.74-7.43 83.74-11.6L83.74-11.6ZM100.3-33.27L100.3 0 96.43 0 96.43-33.27 100.3-33.27ZM130.2-29.83L119.66-29.83 119.66 0 115.79 0 115.79-29.83 105.25-29.83 105.25-33.27 130.2-33.27 130.2-29.83ZM156.43-11.6L156.43-33.27 160.3-33.27 160.3-11.73Q160.3-6.04 156.86-2.79 153.43 0.46 147.43 0.46 141.44 0.46 138.13-2.81L138.13-2.81Q134.85-6.09 134.85-11.83L134.85-11.83 134.85-33.27 138.71-33.27 138.71-11.55Q138.71-7.36 141-5.14 143.29-2.93 147.59-2.93 151.88-2.93 154.16-5.18 156.43-7.43 156.43-11.6L156.43-11.6ZM187.88-8.85L187.88-8.85Q187.88-4.45 184.7-2 181.53 0.46 175.83 0.46 170.13 0.46 166.95-1.06L166.95-1.06 166.95-4.8Q171.45-2.93 176.2-2.93L176.2-2.93Q180.02-2.93 182-4.37 183.98-5.81 183.98-8.49L183.98-8.49Q183.98-10.21 183.29-11.3 182.59-12.39 180.95-13.35 179.31-14.31 176.02-15.47L176.02-15.47Q171.4-17.11 169.39-19.39 167.38-21.66 167.38-25.43 167.38-29.2 170.26-31.47L170.26-31.47Q173.19-33.75 178.03-33.75 182.87-33.75 187.04-31.93L187.04-31.93 185.83-28.54Q181.71-30.28 177.84-30.28L177.84-30.28Q174.76-30.28 173.03-28.96 171.29-27.63 171.29-25.3L171.29-25.3Q171.29-23.53 171.91-22.47 172.53-21.41 174.07-20.42L174.07-20.42Q175.67-19.46 178.73-18.4L178.73-18.4Q183.98-16.53 185.91-14.38L185.91-14.38Q187.88-12.26 187.88-8.85ZM204.18-16.73L204.18-13.3 193.03-13.3 193.03-16.73 204.18-16.73ZM233.9-28.97Q238.2-24.67 238.2-16.68 238.2-8.7 233.74-4.35 229.28 0 220.86 0L220.86 0 211.66 0 211.66-33.27 221.85-33.27Q229.61-33.27 233.9-28.97ZM215.53-3.34L220.23-3.34Q227.13-3.34 230.62-6.74 234.11-10.14 234.11-16.72 234.11-23.31 230.84-26.61 227.58-29.9 221.14-29.9L221.14-29.9 215.53-29.9 215.53-3.34ZM266.86-11.6L266.86-33.27 270.73-33.27 270.73-11.73Q270.73-6.04 267.29-2.79 263.86 0.46 257.86 0.46 251.87 0.46 248.56-2.81L248.56-2.81Q245.28-6.09 245.28-11.83L245.28-11.83 245.28-33.27 249.14-33.27 249.14-11.55Q249.14-7.36 251.43-5.14 253.72-2.93 258.02-2.93 262.31-2.93 264.59-5.18 266.86-7.43 266.86-11.6L266.86-11.6ZM281.8-4.02Q277.81-8.54 277.81-16.7 277.81-24.85 281.81-29.31 285.82-33.77 293.09-33.77 300.35-33.77 304.39-29.23 308.42-24.7 308.42-16.7 308.42-8.7 304.37-4.12 300.33 0.46 293.06 0.46 285.79 0.46 281.8-4.02L281.8-4.02ZM301.52-26.87Q298.71-30.33 293.19-30.33 287.66-30.33 284.78-26.85 281.9-23.36 281.9-16.65 281.9-9.93 284.78-6.43 287.66-2.93 293.18-2.93 298.69-2.93 301.5-6.41 304.32-9.88 304.32-16.65 304.32-23.41 301.52-26.87ZM343.5-30.28L343.5-30.28Q338.01-30.28 334.84-26.62 331.67-22.95 331.67-16.52 331.67-10.09 334.73-6.53 337.79-2.98 343.45-2.98L343.45-2.98Q346.99-2.98 351.41-4.22L351.41-4.22 351.41-0.83Q347.95 0.46 342.87 0.46L342.87 0.46Q335.51 0.46 331.52-3.99L331.52-3.99Q327.52-8.49 327.52-16.68L327.52-16.68Q327.5-20.48 328.62-23.67 329.75-26.87 331.82-29.1 333.89-31.32 336.9-32.55 339.91-33.77 343.55-33.75L343.55-33.75Q348.83-33.75 352.7-31.83L352.7-31.83 351.06-28.51Q347.34-30.28 343.5-30.28ZM359.98-4.02Q355.98-8.54 355.98-16.7 355.98-24.85 359.99-29.31 364-33.77 371.26-33.77 378.53-33.77 382.56-29.23 386.6-24.7 386.6-16.7 386.6-8.7 382.55-4.12 378.51 0.46 371.24 0.46 363.97 0.46 359.98-4.02L359.98-4.02ZM379.69-26.87Q376.89-30.33 371.37-30.33 365.84-30.33 362.96-26.85 360.08-23.36 360.08-16.65 360.08-9.93 362.96-6.43 365.84-2.93 371.35-2.93 376.86-2.93 379.68-6.41 382.5-9.88 382.5-16.65 382.5-23.41 379.69-26.87ZM416.37-14.18L416.37-33.27 419.99-33.27 419.99 0 415.56 0 397.39-27.91 397.21-27.91Q397.56-22.83 397.56-18.91L397.56-18.91 397.56 0 394 0 394-33.27 398.37-33.27 416.5-5.46 416.67-5.46Q416.29-12.01 416.37-14.18L416.37-14.18ZM447.89-8.85L447.89-8.85Q447.89-4.45 444.72-2 441.54 0.46 435.84 0.46 430.14 0.46 426.96-1.06L426.96-1.06 426.96-4.8Q431.46-2.93 436.21-2.93L436.21-2.93Q440.03-2.93 442.01-4.37 444-5.81 444-8.49L444-8.49Q444-10.21 443.3-11.3 442.61-12.39 440.96-13.35 439.32-14.31 436.03-15.47L436.03-15.47Q431.41-17.11 429.4-19.39 427.39-21.66 427.39-25.43 427.39-29.2 430.27-31.47L430.27-31.47Q433.2-33.75 438.04-33.75 442.88-33.75 447.06-31.93L447.06-31.93 445.84-28.54Q441.72-30.28 437.85-30.28L437.85-30.28Q434.77-30.28 433.04-28.96 431.31-27.63 431.31-25.3L431.31-25.3Q431.31-23.53 431.93-22.47 432.55-21.41 434.09-20.42L434.09-20.42Q435.68-19.46 438.74-18.4L438.74-18.4Q444-16.53 445.92-14.38L445.92-14.38Q447.89-12.26 447.89-8.85ZM456.96-4.02Q452.97-8.54 452.97-16.7 452.97-24.85 456.97-29.31 460.98-33.77 468.25-33.77 475.52-33.77 479.55-29.23 483.58-24.7 483.58-16.7 483.58-8.7 479.54-4.12 475.49 0.46 468.22 0.46 460.96 0.46 456.96-4.02L456.96-4.02ZM476.68-26.87Q473.87-30.33 468.35-30.33 462.83-30.33 459.94-26.85 457.06-23.36 457.06-16.65 457.06-9.93 459.94-6.43 462.83-2.93 468.34-2.93 473.85-2.93 476.67-6.41 479.48-9.88 479.48-16.65 479.48-23.41 476.68-26.87ZM509.51-3.51L509.51 0 490.98 0 490.98-33.27 494.85-33.27 494.85-3.51 509.51-3.51ZM535.02-29.83L524.47-29.83 524.47 0 520.61 0 520.61-29.83 510.07-29.83 510.07-33.27 535.02-33.27 535.02-29.83ZM545.48-24.37L541.56-14.05 552.3-14.05 548.44-24.37Q547.65-26.49 546.89-29.17L546.89-29.17Q546.44-27.1 545.48-24.37L545.48-24.37ZM548.59-33.39L561.66 0 557.66 0 553.52-10.57 540.2-10.57 536.1 0 532.18 0 545.33-33.39 548.59-33.39ZM588.6-14.18L588.6-33.27 592.21-33.27 592.21 0 587.79 0 569.62-27.91 569.44-27.91Q569.79-22.83 569.79-18.91L569.79-18.91 569.79 0 566.23 0 566.23-33.27 570.6-33.27 588.73-5.46 588.9-5.46Q588.52-12.01 588.6-14.18L588.6-14.18ZM615.59-30.28L615.59-30.28Q610.11-30.28 606.94-26.62 603.76-22.95 603.76-16.52 603.76-10.09 606.82-6.53 609.88-2.98 615.54-2.98L615.54-2.98Q619.08-2.98 623.51-4.22L623.51-4.22 623.51-0.83Q620.04 0.46 614.96 0.46L614.96 0.46Q607.61 0.46 603.61-3.99L603.61-3.99Q599.62-8.49 599.62-16.68L599.62-16.68Q599.59-20.48 600.72-23.67 601.84-26.87 603.92-29.1 605.99-31.32 609-32.55 612.01-33.77 615.65-33.75L615.65-33.75Q620.93-33.75 624.8-31.83L624.8-31.83 623.15-28.51Q619.44-30.28 615.59-30.28ZM641.17-12.89L641.17 0 637.26 0 637.26-12.71 626.18-33.27 630.41-33.27 639.23-16.63 648.1-33.27 652.27-33.27 641.17-12.89Z" opacity="1" transform="matrix(1,0,0,1,0,0)" fill="#3d9970" class="wordmark-text-0" data-fill-palette-color="primary" id="text-0"></path></svg></g></svg></g><g transform="matrix(1,0,0,1,75.54431999999998,25.651430809504767)"><svg viewBox="0 0 244.43136 12.080414872486369" height="12.080414872486369" width="244.43136"><g transform="matrix(1,0,0,1,0,0)"><svg width="244.43136" viewBox="0.17000001668930054 -40.599998474121094 832.780029296875 41.15999984741211" height="12.080414872486369" data-palette-color="#3d9970"><path d="M7.79-34.18L18.48-5.86 24.76-26.27 24.51-23.02 20.26-34.18 17.21-34.74 17.21-36.82 28.64-36.82 28.66-34.74 25.1-34.18 34.59-6.03Q35.89-9.5 37.01-13.04L37.01-13.04 41.41-27.2Q42.53-30.71 43.82-34.18L43.82-34.18 40.31-34.74 40.31-36.82 49.68-36.82 49.68-34.74 46.97-34.28 35.16 0 32.52 0 24.8-22.17 26-21.9 19.04 0 16.41 0 2.95-34.18 0.17-34.74 0.17-36.82 10.86-36.82 11.04-34.74 7.79-34.18ZM71.53-5.59L71.53-5.59 72.92-4Q69.04-0.51 65.4 0.37L65.4 0.37Q64.6 0.56 63.82 0.56L63.82 0.56Q58.44 0.56 55.08-2.83L55.08-2.83Q51.73-6.15 51.73-11.5L51.73-11.5Q51.73-16.82 54.88-20.61L54.88-20.61Q58.35-24.73 63.89-24.73L63.89-24.73Q67.72-24.73 70.36-21.97L70.36-21.97Q73.17-19.09 73.17-14.48L73.17-14.48 72.02-13.45 56.1-12.3Q56.15-7.86 58.98-5.2L58.98-5.2Q61.52-2.86 64.89-2.86 68.26-2.86 71.53-5.59ZM56.27-14.6L56.27-14.6 68.82-15.75Q68.65-19.8 65.7-21.31L65.7-21.31Q64.65-21.85 63.01-21.85 61.37-21.85 60.09-21.04 58.81-20.24 57.98-19.09L57.98-19.09Q56.39-16.92 56.27-14.6ZM94.67-7.13L95.94-7.13Q95.94-2.03 102.19-2.03L102.19-2.03Q104.56-2.03 105.97-3.08L105.97-3.08Q107.27-4.03 107.27-5.47L107.27-5.47Q107.27-6.98 106.51-7.81L106.51-7.81Q105.02-9.45 102.2-10.42 99.38-11.4 97.98-12.29 96.57-13.18 95.77-14.16L95.77-14.16Q94.38-15.82 94.38-17.74 94.38-19.65 95.1-20.87 95.82-22.09 96.99-22.95L96.99-22.95Q99.48-24.73 102.75-24.73L102.75-24.73Q106.68-24.73 109.61-23L109.61-23 109.05-18.29 107.73-18.29Q107.73-22.12 102.63-22.12L102.63-22.12Q100.41-22.12 99.26-21.25 98.11-20.39 98.11-19.09L98.11-19.09Q98.11-16.24 104.48-13.92L104.48-13.92Q110.44-11.72 111.2-8.18L111.2-8.18Q111.39-7.18 111.39-5.8 111.39-4.42 110.5-3.13 109.61-1.83 108.27-1.03L108.27-1.03Q105.66 0.56 102.24 0.56L102.24 0.56Q98.89 0.56 95.99-0.73L95.99-0.73Q94.69-1.29 93.74-2.03L93.74-2.03 94.67-7.13ZM120.77-21.29L120.77-7.47Q120.77-2.59 124.72-2.59L124.72-2.59Q126.8-2.59 128.75-4.3L128.75-4.3 130.07-2.69Q127.99-0.98 126.24-0.21 124.48 0.56 123.13 0.56 121.79 0.56 120.53-0.02 119.28-0.61 118.45-1.71L118.45-1.71Q116.81-3.83 116.81-7.74L116.81-7.74 116.81-21.29 113.71-21.29 113.71-23.41 116.81-24.15 116.81-27.42 119.69-30.3 120.77-30.3 120.77-24.15 128.82-24.15 128.82-21.29 120.77-21.29ZM153.72-3.56L154.16-1.27Q150.6 0.56 149.01 0.56L149.01 0.56Q145.45 0.56 145.45-2.47L145.45-2.47 145.45-3.22Q145.1-2.71 143.58-1.73 142.05-0.76 141.2-0.37L141.2-0.37Q139.17 0.56 138.12 0.56 137.07 0.56 136.39 0.48 135.71 0.39 134.97 0.15 134.24-0.1 133.53-0.54 132.82-0.98 132.26-1.68L132.26-1.68Q131.02-3.25 131.02-5.76L131.02-5.76Q131.02-9.23 133.48-10.6L133.48-10.6Q135.05-11.5 136.79-11.72 138.54-11.94 139.98-12.06L139.98-12.06Q142.71-12.3 145.45-12.35L145.45-12.35 145.45-17.48Q145.45-19.6 144.91-20.31L144.91-20.31Q144.01-21.56 142.1-21.56L142.1-21.56Q137.85-21.56 133.75-18.8L133.75-18.8 132.34-20.92Q138.05-24.73 142.57-24.73L142.57-24.73Q146.5-24.73 148.13-22.56L148.13-22.56Q149.4-20.87 149.4-17.77L149.4-17.77 149.4-4.93Q149.4-3.13 150.09-2.88L150.09-2.88Q150.33-2.81 150.72-2.81L150.72-2.81Q151.7-2.81 153.72-3.56L153.72-3.56ZM145.45-5.47L145.45-10.3Q138.51-10.03 136.56-8.91L136.56-8.91Q135.07-8.06 135.07-6.15L135.07-6.15Q135.07-3.39 137.19-2.76L137.19-2.76Q137.78-2.59 138.62-2.59 139.47-2.59 140.59-2.93 141.71-3.27 142.66-3.76L142.66-3.76Q144.47-4.64 145.45-5.47L145.45-5.47ZM170.71-21.56L170.71-21.56Q166.98-21.56 163.22-18.97L163.22-18.97 163.22-2.59 166.32-2.03 166.32 0 156.06 0 156.06-2.03 159.24-2.59 159.24-20.36 156.06-20.92 156.06-22.95 162.8-24.73 162.8-21.56Q167.73-24.73 171.96-24.73L171.96-24.73Q177.04-24.73 178.57-20.51L178.57-20.51Q179.09-19.09 179.09-17.19L179.09-17.19 179.09-2.59 182.19-2.03 182.19 0 171.96 0 171.96-2.03 175.11-2.59 175.11-16.72Q175.11-21.56 170.71-21.56ZM198.15-24.73L198.15-24.73Q201.2-24.73 204.23-23.54L204.23-23.54 204.23-36.06 200.5-36.82 200.5-38.79 208.19-40.6 208.19-3.91Q208.19-2.81 209.42-2.81 210.65-2.81 212.51-3.56L212.51-3.56 213.02-1.27Q209.53 0.56 207.8 0.56L207.8 0.56Q205.28 0.56 204.5-1.07L204.5-1.07Q204.23-1.66 204.23-2.47L204.23-2.47Q202.4-0.85 200.32-0.15 198.25 0.56 196.02 0.56 193.78 0.56 191.71-0.29 189.63-1.15 188.24-2.73L188.24-2.73Q185.53-5.83 185.53-11.5L185.53-11.5Q185.53-16.92 188.73-20.61L188.73-20.61Q192.27-24.73 198.15-24.73ZM198.15-2.86L198.15-2.86Q200.62-2.86 204.23-5.18L204.23-5.18 204.23-19.04Q202.13-21.85 197.54-21.85L197.54-21.85Q194-21.85 191.8-18.99L191.8-18.99Q189.75-16.28 189.75-12.01L189.75-12.01Q189.75-8.13 191.71-5.64L191.71-5.64Q193.85-2.86 198.15-2.86ZM215.61-7.13L216.87-7.13Q216.87-2.03 223.12-2.03L223.12-2.03Q225.49-2.03 226.91-3.08L226.91-3.08Q228.2-4.03 228.2-5.47L228.2-5.47Q228.2-6.98 227.45-7.81L227.45-7.81Q225.96-9.45 223.14-10.42 220.32-11.4 218.91-12.29 217.51-13.18 216.7-14.16L216.7-14.16Q215.31-15.82 215.31-17.74 215.31-19.65 216.03-20.87 216.75-22.09 217.92-22.95L217.92-22.95Q220.41-24.73 223.69-24.73L223.69-24.73Q227.62-24.73 230.55-23L230.55-23 229.98-18.29 228.67-18.29Q228.67-22.12 223.56-22.12L223.56-22.12Q221.34-22.12 220.19-21.25 219.05-20.39 219.05-19.09L219.05-19.09Q219.05-16.24 225.42-13.92L225.42-13.92Q231.38-11.72 232.13-8.18L232.13-8.18Q232.33-7.18 232.33-5.8 232.33-4.42 231.44-3.13 230.55-1.83 229.2-1.03L229.2-1.03Q226.59 0.56 223.17 0.56L223.17 0.56Q219.83 0.56 216.92-0.73L216.92-0.73Q215.63-1.29 214.68-2.03L214.68-2.03 215.61-7.13ZM274.71-3.56L275.15-1.27Q271.58 0.56 269.99 0.56L269.99 0.56Q266.43 0.56 266.43-2.47L266.43-2.47 266.43-3.22Q266.09-2.71 264.56-1.73 263.04-0.76 262.18-0.37L262.18-0.37Q260.16 0.56 259.11 0.56 258.06 0.56 257.37 0.48 256.69 0.39 255.96 0.15 255.22-0.1 254.52-0.54 253.81-0.98 253.25-1.68L253.25-1.68Q252-3.25 252-5.76L252-5.76Q252-9.23 254.47-10.6L254.47-10.6Q256.03-11.5 257.78-11.72 259.52-11.94 260.96-12.06L260.96-12.06Q263.7-12.3 266.43-12.35L266.43-12.35 266.43-17.48Q266.43-19.6 265.89-20.31L265.89-20.31Q264.99-21.56 263.09-21.56L263.09-21.56Q258.84-21.56 254.74-18.8L254.74-18.8 253.32-20.92Q259.03-24.73 263.55-24.73L263.55-24.73Q267.48-24.73 269.12-22.56L269.12-22.56Q270.39-20.87 270.39-17.77L270.39-17.77 270.39-4.93Q270.39-3.13 271.07-2.88L271.07-2.88Q271.31-2.81 271.7-2.81L271.7-2.81Q272.68-2.81 274.71-3.56L274.71-3.56ZM266.43-5.47L266.43-10.3Q259.5-10.03 257.54-8.91L257.54-8.91Q256.05-8.06 256.05-6.15L256.05-6.15Q256.05-3.39 258.18-2.76L258.18-2.76Q258.76-2.59 259.61-2.59 260.45-2.59 261.57-2.93 262.69-3.27 263.65-3.76L263.65-3.76Q265.45-4.64 266.43-5.47L266.43-5.47ZM278.2-7.13L279.46-7.13Q279.46-2.03 285.71-2.03L285.71-2.03Q288.08-2.03 289.5-3.08L289.5-3.08Q290.79-4.03 290.79-5.47L290.79-5.47Q290.79-6.98 290.04-7.81L290.04-7.81Q288.55-9.45 285.73-10.42 282.91-11.4 281.5-12.29 280.1-13.18 279.29-14.16L279.29-14.16Q277.9-15.82 277.9-17.74 277.9-19.65 278.62-20.87 279.34-22.09 280.51-22.95L280.51-22.95Q283-24.73 286.28-24.73L286.28-24.73Q290.21-24.73 293.14-23L293.14-23 292.58-18.29 291.26-18.29Q291.26-22.12 286.15-22.12L286.15-22.12Q283.93-22.12 282.79-21.25 281.64-20.39 281.64-19.09L281.64-19.09Q281.64-16.24 288.01-13.92L288.01-13.92Q293.97-11.72 294.72-8.18L294.72-8.18Q294.92-7.18 294.92-5.8 294.92-4.42 294.03-3.13 293.14-1.83 291.79-1.03L291.79-1.03Q289.18 0.56 285.76 0.56L285.76 0.56Q282.42 0.56 279.51-0.73L279.51-0.73Q278.22-1.29 277.27-2.03L277.27-2.03 278.2-7.13ZM337.3-3.56L337.74-1.27Q334.17 0.56 332.58 0.56L332.58 0.56Q329.02 0.56 329.02-2.47L329.02-2.47 329.02-3.22Q328.68-2.71 327.15-1.73 325.63-0.76 324.77-0.37L324.77-0.37Q322.75 0.56 321.7 0.56 320.65 0.56 319.96 0.48 319.28 0.39 318.55 0.15 317.81-0.1 317.11-0.54 316.4-0.98 315.84-1.68L315.84-1.68Q314.59-3.25 314.59-5.76L314.59-5.76Q314.59-9.23 317.06-10.6L317.06-10.6Q318.62-11.5 320.37-11.72 322.11-11.94 323.55-12.06L323.55-12.06Q326.29-12.3 329.02-12.35L329.02-12.35 329.02-17.48Q329.02-19.6 328.48-20.31L328.48-20.31Q327.58-21.56 325.68-21.56L325.68-21.56Q321.43-21.56 317.33-18.8L317.33-18.8 315.91-20.92Q321.62-24.73 326.14-24.73L326.14-24.73Q330.07-24.73 331.71-22.56L331.71-22.56Q332.98-20.87 332.98-17.77L332.98-17.77 332.98-4.93Q332.98-3.13 333.66-2.88L333.66-2.88Q333.9-2.81 334.29-2.81L334.29-2.81Q335.27-2.81 337.3-3.56L337.3-3.56ZM329.02-5.47L329.02-10.3Q322.09-10.03 320.13-8.91L320.13-8.91Q318.64-8.06 318.64-6.15L318.64-6.15Q318.64-3.39 320.77-2.76L320.77-2.76Q321.35-2.59 322.2-2.59 323.04-2.59 324.16-2.93 325.28-3.27 326.24-3.76L326.24-3.76Q328.04-4.64 329.02-5.47L329.02-5.47ZM358.75-3.17L358.75-36.21 355.58-36.82 355.58-38.79 362.73-40.6 362.73-21.56Q365.12-23.24 367.33-23.99 369.54-24.73 371.53-24.73 373.52-24.73 375.43-23.82 377.33-22.9 378.65-21.29L378.65-21.29Q381.41-17.92 381.41-12.67L381.41-12.67Q381.41-7.23 378.16-3.52L378.16-3.52Q374.65 0.56 368.64 0.56L368.64 0.56Q364.78 0.56 361.39-1.29L361.39-1.29Q359.87-2.1 358.75-3.17L358.75-3.17ZM369.79-21.56L369.79-21.56Q366.49-21.56 362.73-19.04L362.73-19.04 362.73-5.1Q364.83-2.29 369.4-2.29L369.4-2.29Q372.91-2.29 375.11-4.98L375.11-4.98Q377.16-7.47 377.16-11.21L377.16-11.21Q377.16-18.09 373.13-20.65L373.13-20.65Q371.74-21.56 369.79-21.56ZM405.33-5.59L405.33-5.59 406.72-4Q402.84-0.51 399.2 0.37L399.2 0.37Q398.4 0.56 397.62 0.56L397.62 0.56Q392.25 0.56 388.88-2.83L388.88-2.83Q385.53-6.15 385.53-11.5L385.53-11.5Q385.53-16.82 388.68-20.61L388.68-20.61Q392.15-24.73 397.69-24.73L397.69-24.73Q401.52-24.73 404.16-21.97L404.16-21.97Q406.97-19.09 406.97-14.48L406.97-14.48 405.82-13.45 389.9-12.3Q389.95-7.86 392.78-5.2L392.78-5.2Q395.32-2.86 398.69-2.86 402.06-2.86 405.33-5.59ZM390.07-14.6L390.07-14.6 402.62-15.75Q402.45-19.8 399.5-21.31L399.5-21.31Q398.45-21.85 396.81-21.85 395.17-21.85 393.89-21.04 392.61-20.24 391.78-19.09L391.78-19.09Q390.19-16.92 390.07-14.6ZM433.26-3.56L433.7-1.27Q430.13 0.56 428.55 0.56L428.55 0.56Q424.98 0.56 424.98-2.47L424.98-2.47 424.98-3.22Q424.64-2.71 423.11-1.73 421.59-0.76 420.73-0.37L420.73-0.37Q418.71 0.56 417.66 0.56 416.61 0.56 415.92 0.48 415.24 0.39 414.51 0.15 413.78-0.1 413.07-0.54 412.36-0.98 411.8-1.68L411.8-1.68Q410.55-3.25 410.55-5.76L410.55-5.76Q410.55-9.23 413.02-10.6L413.02-10.6Q414.58-11.5 416.33-11.72 418.07-11.94 419.51-12.06L419.51-12.06Q422.25-12.3 424.98-12.35L424.98-12.35 424.98-17.48Q424.98-19.6 424.44-20.31L424.44-20.31Q423.54-21.56 421.64-21.56L421.64-21.56Q417.39-21.56 413.29-18.8L413.29-18.8 411.87-20.92Q417.58-24.73 422.1-24.73L422.1-24.73Q426.03-24.73 427.67-22.56L427.67-22.56Q428.94-20.87 428.94-17.77L428.94-17.77 428.94-4.93Q428.94-3.13 429.62-2.88L429.62-2.88Q429.86-2.81 430.26-2.81L430.26-2.81Q431.23-2.81 433.26-3.56L433.26-3.56ZM424.98-5.47L424.98-10.3Q418.05-10.03 416.1-8.91L416.1-8.91Q414.61-8.06 414.61-6.15L414.61-6.15Q414.61-3.39 416.73-2.76L416.73-2.76Q417.32-2.59 418.16-2.59 419-2.59 420.12-2.93 421.25-3.27 422.2-3.76L422.2-3.76Q424.01-4.64 424.98-5.47L424.98-5.47ZM455.62-5.59L455.62-5.59 457.01-4Q453.13-0.51 449.49 0.37L449.49 0.37Q448.69 0.56 447.9 0.56L447.9 0.56Q442.56 0.56 439.26-2.83L439.26-2.83Q436.06-6.13 436.06-11.5L436.06-11.5Q436.06-16.87 439.26-20.61L439.26-20.61Q442.83-24.73 448.83-24.73L448.83-24.73Q452.84-24.73 455.91-23.41L455.91-23.41 455.33-18.51 453.79-18.51Q453.79-20.97 450.83-21.63L450.83-21.63Q449.91-21.85 448.25-21.85 446.59-21.85 444.99-21.08 443.39-20.31 442.36-19.04L442.36-19.04Q440.34-16.53 440.34-12.89L440.34-12.89Q440.34-8.42 442.53-5.74L442.53-5.74Q444.9-2.86 448.62-2.86 452.35-2.86 455.62-5.59ZM461.26-11.87L461.26-11.87Q461.26-14.67 462.22-17.09 463.18-19.51 464.85-21.19L464.85-21.19Q468.26-24.73 473.27-24.73L473.27-24.73Q479.08-24.73 482.35-21.29L482.35-21.29Q485.45-17.99 485.45-12.67L485.45-12.67Q485.45-6.74 481.93-3.03L481.93-3.03Q478.52 0.56 473.49 0.56L473.49 0.56Q467.75 0.56 464.41-2.98L464.41-2.98Q461.26-6.3 461.26-11.87ZM467.51-19.15Q466.53-17.9 466.03-16.21 465.53-14.53 465.53-12.56 465.53-10.6 465.98-8.73 466.43-6.86 467.38-5.42L467.38-5.42Q469.48-2.29 473.44-2.29L473.44-2.29Q477.15-2.29 479.2-4.74L479.2-4.74Q481.23-7.13 481.23-11.21L481.23-11.21Q481.23-18.43 477.1-20.92L477.1-20.92Q475.56-21.85 473.46-21.85 471.36-21.85 469.92-21.13 468.48-20.41 467.51-19.15ZM504.34-21.56L504.34-21.56Q500.61-21.56 496.85-18.97L496.85-18.97 496.85-2.59 499.95-2.03 499.95 0 489.7 0 489.7-2.03 492.87-2.59 492.87-20.36 489.7-20.92 489.7-22.95 496.43-24.73 496.43-21.56Q501.37-24.73 505.59-24.73L505.59-24.73Q510.67-24.73 512.21-20.51L512.21-20.51Q512.72-19.09 512.72-17.19L512.72-17.19 512.72-2.59 515.82-2.03 515.82 0 505.59 0 505.59-2.03 508.74-2.59 508.74-16.72Q508.74-21.56 504.34-21.56ZM536.35-11.87L536.35-11.87Q536.35-14.67 537.31-17.09 538.28-19.51 539.94-21.19L539.94-21.19Q543.35-24.73 548.36-24.73L548.36-24.73Q554.17-24.73 557.44-21.29L557.44-21.29Q560.54-17.99 560.54-12.67L560.54-12.67Q560.54-6.74 557.03-3.03L557.03-3.03Q553.61 0.56 548.58 0.56L548.58 0.56Q542.84 0.56 539.5-2.98L539.5-2.98Q536.35-6.3 536.35-11.87ZM542.6-19.15Q541.62-17.9 541.12-16.21 540.62-14.53 540.62-12.56 540.62-10.6 541.07-8.73 541.52-6.86 542.47-5.42L542.47-5.42Q544.57-2.29 548.53-2.29L548.53-2.29Q552.24-2.29 554.29-4.74L554.29-4.74Q556.32-7.13 556.32-11.21L556.32-11.21Q556.32-18.43 552.19-20.92L552.19-20.92Q550.65-21.85 548.55-21.85 546.45-21.85 545.01-21.13 543.57-20.41 542.6-19.15ZM571.5-21.29L571.5-2.69 576.8-2.03 576.8 0 564.18 0 564.18-2.03 567.55-2.59 567.55-21.39 564.18-21.39 564.18-23.41 567.55-24.15 567.55-29.32Q567.55-33.15 569.91-36.62L569.91-36.62Q572.62-40.6 577.02-40.6L577.02-40.6Q579.83-40.6 581.61-39.48L581.61-39.48Q582.39-38.99 582.78-38.35L582.78-38.35 581.12-34.03 579.53-34.03Q579.53-36.47 577.82-37.35L577.82-37.35Q577.21-37.7 576.27-37.7 575.33-37.7 574.47-37.29 573.6-36.89 572.94-36.06L572.94-36.06Q571.5-34.25 571.5-31.01L571.5-31.01 571.5-24.15 578.92-24.15 578.92-21.29 571.5-21.29ZM604.97-24.73L604.97-2.59 608.09-2.03 608.09 0 597.84 0 597.84-2.03 601.01-2.59 601.01-20.36 597.84-20.92 597.84-22.95 604.97-24.73ZM600.88-32.19Q600.47-32.62 600.23-33.15 599.99-33.69 599.99-34.22 599.99-34.74 600.23-35.27 600.47-35.79 600.87-36.23L600.87-36.23Q601.77-37.21 602.51-37.21 603.26-37.21 603.78-36.94 604.31-36.67 604.72-36.23L604.72-36.23Q605.63-35.23 605.63-34.46 605.63-33.69 605.37-33.15 605.11-32.62 604.72-32.18L604.72-32.18Q603.79-31.23 603.03-31.23 602.26-31.23 601.77-31.49 601.28-31.76 600.88-32.19ZM625.55-21.56L625.55-21.56Q621.81-21.56 618.05-18.97L618.05-18.97 618.05-2.59 621.15-2.03 621.15 0 610.9 0 610.9-2.03 614.07-2.59 614.07-20.36 610.9-20.92 610.9-22.95 617.64-24.73 617.64-21.56Q622.57-24.73 626.79-24.73L626.79-24.73Q631.87-24.73 633.41-20.51L633.41-20.51Q633.92-19.09 633.92-17.19L633.92-17.19 633.92-2.59 637.02-2.03 637.02 0 626.79 0 626.79-2.03 629.94-2.59 629.94-16.72Q629.94-21.56 625.55-21.56ZM654.74-21.56L654.74-21.56Q651.01-21.56 647.25-18.97L647.25-18.97 647.25-2.59 650.35-2.03 650.35 0 640.09 0 640.09-2.03 643.27-2.59 643.27-20.36 640.09-20.92 640.09-22.95 646.83-24.73 646.83-21.56Q651.76-24.73 655.99-24.73L655.99-24.73Q661.07-24.73 662.6-20.51L662.6-20.51Q663.12-19.09 663.12-17.19L663.12-17.19 663.12-2.59 666.22-2.03 666.22 0 655.99 0 655.99-2.03 659.14-2.59 659.14-16.72Q659.14-21.56 654.74-21.56ZM670-11.87L670-11.87Q670-14.67 670.96-17.09 671.93-19.51 673.59-21.19L673.59-21.19Q677.01-24.73 682.01-24.73L682.01-24.73Q687.82-24.73 691.09-21.29L691.09-21.29Q694.19-17.99 694.19-12.67L694.19-12.67Q694.19-6.74 690.68-3.03L690.68-3.03Q687.26 0.56 682.23 0.56L682.23 0.56Q676.49 0.56 673.15-2.98L673.15-2.98Q670-6.3 670-11.87ZM676.25-19.15Q675.27-17.9 674.77-16.21 674.27-14.53 674.27-12.56 674.27-10.6 674.72-8.73 675.17-6.86 676.13-5.42L676.13-5.42Q678.23-2.29 682.18-2.29L682.18-2.29Q685.89-2.29 687.94-4.74L687.94-4.74Q689.97-7.13 689.97-11.21L689.97-11.21Q689.97-18.43 685.84-20.92L685.84-20.92Q684.3-21.85 682.21-21.85 680.11-21.85 678.67-21.13 677.22-20.41 676.25-19.15ZM719.75-21.56L710.69 0 707.3 0 698.15-21.56 695.95-22.12 695.95-24.15 705.45-24.15 705.45-22.12 702.64-21.56 709.91-3.96 716.77-21.68 714.01-22.12 714.01-24.15 721.95-24.15 721.95-22.12 719.75-21.56ZM746.12-3.56L746.56-1.27Q742.99 0.56 741.4 0.56L741.4 0.56Q737.84 0.56 737.84-2.47L737.84-2.47 737.84-3.22Q737.5-2.71 735.97-1.73 734.45-0.76 733.59-0.37L733.59-0.37Q731.57 0.56 730.52 0.56 729.47 0.56 728.78 0.48 728.1 0.39 727.37 0.15 726.63-0.1 725.93-0.54 725.22-0.98 724.66-1.68L724.66-1.68Q723.41-3.25 723.41-5.76L723.41-5.76Q723.41-9.23 725.88-10.6L725.88-10.6Q727.44-11.5 729.19-11.72 730.93-11.94 732.37-12.06L732.37-12.06Q735.11-12.3 737.84-12.35L737.84-12.35 737.84-17.48Q737.84-19.6 737.3-20.31L737.3-20.31Q736.4-21.56 734.5-21.56L734.5-21.56Q730.25-21.56 726.15-18.8L726.15-18.8 724.73-20.92Q730.44-24.73 734.96-24.73L734.96-24.73Q738.89-24.73 740.53-22.56L740.53-22.56Q741.8-20.87 741.8-17.77L741.8-17.77 741.8-4.93Q741.8-3.13 742.48-2.88L742.48-2.88Q742.72-2.81 743.11-2.81L743.11-2.81Q744.09-2.81 746.12-3.56L746.12-3.56ZM737.84-5.47L737.84-10.3Q730.91-10.03 728.95-8.91L728.95-8.91Q727.46-8.06 727.46-6.15L727.46-6.15Q727.46-3.39 729.59-2.76L729.59-2.76Q730.17-2.59 731.02-2.59 731.86-2.59 732.98-2.93 734.1-3.27 735.06-3.76L735.06-3.76Q736.86-4.64 737.84-5.47L737.84-5.47ZM754.88-21.29L754.88-7.47Q754.88-2.59 758.83-2.59L758.83-2.59Q760.91-2.59 762.86-4.3L762.86-4.3 764.18-2.69Q762.11-0.98 760.35-0.21 758.59 0.56 757.25 0.56 755.9 0.56 754.65-0.02 753.39-0.61 752.56-1.71L752.56-1.71Q750.92-3.83 750.92-7.74L750.92-7.74 750.92-21.29 747.82-21.29 747.82-23.41 750.92-24.15 750.92-27.42 753.8-30.3 754.88-30.3 754.88-24.15 762.94-24.15 762.94-21.29 754.88-21.29ZM771.75-24.73L771.75-2.59 774.87-2.03 774.87 0 764.62 0 764.62-2.03 767.79-2.59 767.79-20.36 764.62-20.92 764.62-22.95 771.75-24.73ZM767.66-32.19Q767.25-32.62 767.01-33.15 766.77-33.69 766.77-34.22 766.77-34.74 767.01-35.27 767.25-35.79 767.64-36.23L767.64-36.23Q768.55-37.21 769.29-37.21 770.04-37.21 770.56-36.94 771.09-36.67 771.5-36.23L771.5-36.23Q772.41-35.23 772.41-34.46 772.41-33.69 772.15-33.15 771.89-32.62 771.5-32.18L771.5-32.18Q770.57-31.23 769.81-31.23 769.04-31.23 768.55-31.49 768.06-31.76 767.66-32.19ZM778.38-11.87L778.38-11.87Q778.38-14.67 779.35-17.09 780.31-19.51 781.97-21.19L781.97-21.19Q785.39-24.73 790.4-24.73L790.4-24.73Q796.21-24.73 799.48-21.29L799.48-21.29Q802.58-17.99 802.58-12.67L802.58-12.67Q802.58-6.74 799.06-3.03L799.06-3.03Q795.65 0.56 790.62 0.56L790.62 0.56Q784.88 0.56 781.53-2.98L781.53-2.98Q778.38-6.3 778.38-11.87ZM784.63-19.15Q783.66-17.9 783.16-16.21 782.66-14.53 782.66-12.56 782.66-10.6 783.11-8.73 783.56-6.86 784.51-5.42L784.51-5.42Q786.61-2.29 790.57-2.29L790.57-2.29Q794.28-2.29 796.33-4.74L796.33-4.74Q798.35-7.13 798.35-11.21L798.35-11.21Q798.35-18.43 794.23-20.92L794.23-20.92Q792.69-21.85 790.59-21.85 788.49-21.85 787.05-21.13 785.61-20.41 784.63-19.15ZM821.47-21.56L821.47-21.56Q817.74-21.56 813.98-18.97L813.98-18.97 813.98-2.59 817.08-2.03 817.08 0 806.82 0 806.82-2.03 810-2.59 810-20.36 806.82-20.92 806.82-22.95 813.56-24.73 813.56-21.56Q818.49-24.73 822.72-24.73L822.72-24.73Q827.8-24.73 829.33-20.51L829.33-20.51Q829.85-19.09 829.85-17.19L829.85-17.19 829.85-2.59 832.95-2.03 832.95 0 822.72 0 822.72-2.03 825.87-2.59 825.87-16.72Q825.87-21.56 821.47-21.56Z" opacity="1" transform="matrix(1,0,0,1,0,0)" fill="#3d9970" class="slogan-text-1" data-fill-palette-color="secondary" id="text-1"></path></svg></g></svg></g></svg></g></svg></g><g transform="matrix(1,0,0,1,172.67609463374407,0)"><svg viewBox="0 0 52.14541073251175 52.14541073251175" height="52.14541073251175" width="52.14541073251175"><g><svg xmlns="http://www.w3.org/2000/svg" xmlns:xlink="http://www.w3.org/1999/xlink" version="1.1" x="0" y="0" viewBox="16.599998474121094 16.600000381469727 66.80000305175781 66.80000305175781" enable-background="new 0 0 100 100" xml:space="preserve" height="52.14541073251175" width="52.14541073251175" class="icon-icon-0" data-fill-palette-color="accent" id="icon-0"><path fill="none" d="M64.3 58.6L64.3 58.6l-3.9-2.1 0 0c-0.1 0-0.1 0-0.2 0-0.1 0.1-0.1 0.1 0 0.2l0 0 2.1 3.9 0 0c0.1 0.1 0.1 0.2 0.2 0.3 0.6 0.6 1.6 0.6 2.2 0 0.6-0.6 0.6-1.6 0-2.2C64.5 58.8 64.4 58.7 64.3 58.6z"></path><path fill="none" d="M69.1 44.9c-0.1 0-0.3 0-0.4 0.1l0 0-4.2 1.3 0 0c-0.1 0-0.1 0.1-0.1 0.2 0 0.1 0.1 0.1 0.1 0.2l0 0 4.2 1.3 0 0c0.1 0 0.3 0.1 0.4 0.1 0.9 0 1.6-0.7 1.6-1.6C70.7 45.6 70 44.9 69.1 44.9z"></path><path fill="none" d="M60.4 47c0-5.8-4.7-10.4-10.4-10.4S39.6 41.2 39.6 47c0 1.6 0.4 3.2 1.1 4.6 0 0 0 0 0 0 0 0 0 0.1 0.1 0.1 0.2 0.5 0.5 1 0.9 1.4 1.8 3.3 3.3 5.9 3.4 7.1v3.1c0 0.3 0.2 0.5 0.5 0.5l9.6 0c0.3 0 0.5-0.2 0.5-0.5v-3.1c0.1-1.2 1.1-3.8 2.9-7.1 0.3-0.4 0.6-0.9 0.9-1.4 0 0 0-0.1 0.1-0.1 0 0 0 0 0 0C60.1 50.2 60.4 48.6 60.4 47z"></path><path fill="none" d="M60.1 36.3c0.1 0.1 0.1 0.1 0.2 0l0 0 3.9-2.1 0 0c0.1-0.1 0.2-0.1 0.3-0.2 0.6-0.6 0.6-1.6 0-2.2-0.6-0.6-1.6-0.6-2.2 0-0.1 0.1-0.2 0.2-0.2 0.3l0 0-2.1 3.9 0 0C60.1 36.2 60.1 36.3 60.1 36.3z"></path><path fill="none" d="M54.5 68.1h-8.9c-0.6 0-1.1 0.5-1.1 1.1 0 0.6 0.5 1.1 1.1 1.1h8.9c0.6 0 1.1-0.5 1.1-1.1C55.5 68.6 55.1 68.1 54.5 68.1z"></path><path fill="none" d="M35.6 46.6c0.1 0 0.1-0.1 0.1-0.2 0-0.1-0.1-0.1-0.1-0.2l0 0L31.3 45l0 0c-0.1 0-0.3-0.1-0.4-0.1-0.9 0-1.6 0.7-1.6 1.6S30 48 30.9 48c0.1 0 0.3 0 0.4-0.1l0 0L35.6 46.6 35.6 46.6z"></path><path fill="none" d="M39.9 56.6c-0.1-0.1-0.1-0.1-0.2 0l0 0-3.9 2.1 0 0c-0.1 0.1-0.2 0.1-0.3 0.2-0.6 0.6-0.6 1.6 0 2.2 0.6 0.6 1.6 0.6 2.2 0 0.1-0.1 0.2-0.2 0.2-0.3l0 0 2.1-3.9 0 0C39.9 56.7 39.9 56.7 39.9 56.6z"></path><path fill="none" d="M54.5 64.8h-8.9c-0.6 0-1.1 0.5-1.1 1.1s0.5 1.1 1.1 1.1h8.9c0.6 0 1.1-0.5 1.1-1.1C55.5 65.2 55.1 64.8 54.5 64.8z"></path><path fill="none" d="M35.7 34.3L35.7 34.3l3.9 2.1 0 0c0.1 0 0.1 0 0.2 0 0.1-0.1 0.1-0.1 0-0.2l0 0-2.1-3.9 0 0c-0.1-0.1-0.1-0.2-0.2-0.3-0.6-0.6-1.6-0.6-2.2 0-0.6 0.6-0.6 1.6 0 2.2C35.5 34.2 35.6 34.3 35.7 34.3z"></path><path fill="none" d="M53.5 71.5h-7.1c-0.6 0-1.1 0.5-1.1 1.1 0 0.6 0.5 1.1 1.1 1.1h7.1c0.6 0 1.1-0.5 1.1-1.1C54.6 72 54.1 71.5 53.5 71.5z"></path><path fill="none" d="M48.5 27.8l1.3 4.2 0 0c0 0.1 0.1 0.1 0.2 0.1 0.1 0 0.1-0.1 0.2-0.1l0 0 1.3-4.2 0 0c0-0.1 0.1-0.3 0.1-0.4 0-0.9-0.7-1.6-1.6-1.6-0.9 0-1.6 0.7-1.6 1.6C48.4 27.5 48.5 27.7 48.5 27.8L48.5 27.8z"></path><path d="M50 16.6L50 16.6c-18.4 0-33.4 14.9-33.4 33.4v0c0 18.4 14.9 33.4 33.4 33.4h33.4V50C83.4 31.6 68.4 16.6 50 16.6zM60.1 36.1l2.1-3.9 0 0c0.1-0.1 0.1-0.2 0.2-0.3 0.6-0.6 1.6-0.6 2.2 0 0.6 0.6 0.6 1.6 0 2.2-0.1 0.1-0.2 0.2-0.3 0.2l0 0-3.9 2.1 0 0c-0.1 0-0.2 0-0.2 0C60.1 36.3 60.1 36.2 60.1 36.1L60.1 36.1zM50 25.8c0.9 0 1.6 0.7 1.6 1.6 0 0.1 0 0.3-0.1 0.4l0 0L50.2 32l0 0c0 0.1-0.1 0.1-0.2 0.1-0.1 0-0.1-0.1-0.2-0.1l0 0-1.3-4.2 0 0c0-0.1-0.1-0.3-0.1-0.4C48.4 26.5 49.1 25.8 50 25.8zM35.4 31.9c0.6-0.6 1.6-0.6 2.2 0 0.1 0.1 0.2 0.2 0.2 0.3l0 0 2.1 3.9 0 0c0 0.1 0 0.2 0 0.2-0.1 0.1-0.1 0.1-0.2 0l0 0-3.9-2.1 0 0c-0.1-0.1-0.2-0.1-0.3-0.2C34.8 33.5 34.8 32.5 35.4 31.9zM31.3 48C31.2 48 31 48 30.9 48c-0.9 0-1.6-0.7-1.6-1.6s0.7-1.6 1.6-1.6c0.1 0 0.3 0 0.4 0.1l0 0 4.2 1.3 0 0c0.1 0 0.1 0.1 0.1 0.2 0 0.1-0.1 0.1-0.1 0.2l0 0L31.3 48 31.3 48zM39.9 56.8l-2.1 3.9 0 0c-0.1 0.1-0.1 0.2-0.2 0.3-0.6 0.6-1.6 0.6-2.2 0-0.6-0.6-0.6-1.6 0-2.2 0.1-0.1 0.2-0.2 0.3-0.2l0 0 3.9-2.1 0 0c0.1 0 0.2 0 0.2 0C39.9 56.7 39.9 56.7 39.9 56.8L39.9 56.8zM53.5 73.7h-7.1c-0.6 0-1.1-0.5-1.1-1.1 0-0.6 0.5-1.1 1.1-1.1h7.1c0.6 0 1.1 0.5 1.1 1.1C54.6 73.2 54.1 73.7 53.5 73.7zM54.5 70.3h-8.9c-0.6 0-1.1-0.5-1.1-1.1 0-0.6 0.5-1.1 1.1-1.1h8.9c0.6 0 1.1 0.5 1.1 1.1C55.5 69.8 55.1 70.3 54.5 70.3zM54.5 66.9h-8.9c-0.6 0-1.1-0.5-1.1-1.1s0.5-1.1 1.1-1.1h8.9c0.6 0 1.1 0.5 1.1 1.1C55.5 66.4 55.1 66.9 54.5 66.9zM59.3 51.7c-0.2 0.5-0.5 1-0.9 1.4-1.8 3.3-2.9 5.9-2.9 7.1v3.1c0 0.3-0.2 0.5-0.5 0.5l-9.6 0c-0.3 0-0.5-0.2-0.5-0.5v-3.1c-0.1-1.2-1.6-3.8-3.4-7.1-0.3-0.5-0.6-0.9-0.9-1.4 0 0 0-0.1-0.1-0.1 0 0 0 0 0 0-0.7-1.4-1.1-2.9-1.1-4.6 0-5.8 4.7-10.4 10.4-10.4S60.4 41.2 60.4 47C60.4 48.6 60.1 50.2 59.3 51.7 59.4 51.6 59.4 51.6 59.3 51.7 59.4 51.6 59.4 51.6 59.3 51.7zM64.6 61.1c-0.6 0.6-1.6 0.6-2.2 0-0.1-0.1-0.2-0.2-0.2-0.3l0 0-2.1-3.9 0 0c0-0.1 0-0.2 0-0.2 0.1-0.1 0.1-0.1 0.2 0l0 0 3.9 2.1 0 0c0.1 0.1 0.2 0.1 0.3 0.2C65.2 59.5 65.2 60.5 64.6 61.1zM69.1 48c-0.1 0-0.3 0-0.4-0.1l0 0-4.2-1.3 0 0c-0.1 0-0.1-0.1-0.1-0.2 0-0.1 0.1-0.1 0.1-0.2l0 0 4.2-1.3 0 0c0.1 0 0.3-0.1 0.4-0.1 0.9 0 1.6 0.7 1.6 1.6C70.7 47.3 70 48 69.1 48z" fill="#3d9970" data-fill-palette-color="accent"></path></svg></g></svg></g><g></g></svg></g><defs></defs></svg><rect width="395.52" height="105.34128434472615" fill="none" stroke="none" visibility="hidden"></rect></g></svg></g></svg>