<svg width="1000" height="229" viewBox="0 0 1000 229" fill="none" xmlns="http://www.w3.org/2000/svg">
<g clip-path="url(#clip0_778_2)">
<g clip-path="url(#clip1_778_2)">
<g clip-path="url(#clip2_778_2)">
<g clip-path="url(#clip3_778_2)">
<g clip-path="url(#clip4_778_2)">
<g clip-path="url(#clip5_778_2)">
<g clip-path="url(#clip6_778_2)">
<path d="M753.308 31.7305H1.73438V154.686H753.308V31.7305Z" fill="#00D084"/>
<g clip-path="url(#clip7_778_2)">
<path d="M62.9813 108.744H66.3088L62.8876 98.6209H53.608L49.9993 108.744H53.5143V109.634H46.3438V108.744H48.5465L60.4974 76.5468H64.3404L76.1508 108.744H78.3066V109.634H62.9813V108.744ZM62.5126 97.5898L58.4353 85.3108L54.0298 97.5898H62.5126ZM94.991 77.2498C90.1482 77.2498 87.7268 81.9208 87.7268 91.2629V94.9653C87.7268 99.402 88.3673 102.876 89.6483 105.388C90.9293 107.907 92.8196 109.166 95.3191 109.166C98.756 109.166 101.912 105.823 104.786 99.1364H105.63L105.302 109.588H104.786C104.599 109.244 104.427 109 104.271 108.857C104.114 108.719 103.886 108.65 103.586 108.65C103.293 108.65 102.162 108.891 100.193 109.372C98.2248 109.859 96.2252 110.103 94.1943 110.103C89.1015 110.103 85.1554 108.728 82.3559 105.979C79.5626 103.229 78.166 99.0958 78.166 93.5781C78.166 88.0666 79.6251 83.8111 82.5433 80.8117C85.4678 77.8122 89.3983 76.3125 94.3349 76.3125C96.2408 76.3125 98.1061 76.5562 99.9308 77.0436C101.762 77.5248 102.833 77.7654 103.146 77.7654C103.458 77.7654 103.693 77.6935 103.849 77.5498C104.005 77.4123 104.177 77.1717 104.364 76.828H104.88L105.255 86.998H104.411C103.005 83.8424 101.559 81.4272 100.071 79.7525C98.5904 78.084 96.8969 77.2498 94.991 77.2498ZM120.111 99.652C120.111 102.526 120.602 104.729 121.583 106.26C122.57 107.791 124.345 108.557 126.907 108.557C129.469 108.557 131.437 107.76 132.812 106.166C134.187 104.573 134.874 102.151 134.874 98.9021V77.7185H131.828V76.828H138.67V77.7185H136.093V98.574C136.093 102.448 135.234 105.338 133.515 107.244C131.797 109.15 128.757 110.103 124.395 110.103C120.04 110.103 116.712 109.197 114.412 107.385C112.119 105.573 110.972 102.464 110.972 98.0585V77.7185H108.395V76.828H123.158V77.7185H120.111V99.652ZM140.583 77.7185V76.828H154.877V77.7185H152.299V108.744H154.877V109.634H140.583V108.744H143.16V77.7185H140.583ZM158.204 76.828H185.856L186.324 88.5915H185.434C184.059 84.436 182.84 81.599 181.778 80.0806C180.716 78.5683 179.185 77.8122 177.185 77.8122H176.623V108.65H180.607V109.634H163.5V108.65H167.484V77.8122H166.875C164.875 77.8122 163.328 78.5996 162.235 80.1743C161.141 81.7552 159.938 84.561 158.626 88.5915H157.736L158.204 76.828ZM200.759 99.652C200.759 102.526 201.25 104.729 202.231 106.26C203.218 107.791 204.993 108.557 207.555 108.557C210.117 108.557 212.085 107.76 213.46 106.166C214.835 104.573 215.522 102.151 215.522 98.9021V77.7185H212.476V76.828H219.318V77.7185H216.74V98.574C216.74 102.448 215.881 105.338 214.163 107.244C212.444 109.15 209.404 110.103 205.043 110.103C200.687 110.103 197.36 109.197 195.06 107.385C192.767 105.573 191.62 102.464 191.62 98.0585V77.7185H189.042V76.828H203.805V77.7185H200.759V99.652ZM234.831 109.119C236.393 109.119 237.774 108.697 238.974 107.854C240.18 107.01 240.783 105.735 240.783 104.029C240.783 102.33 240.133 101.027 238.833 100.121C237.54 99.2145 235.696 98.424 233.303 97.7492C230.916 97.0805 229.182 96.4963 228.101 95.9964C227.026 95.4965 226.004 94.8403 225.036 94.028C223.099 92.4033 222.13 89.8881 222.13 86.4825C222.13 83.7018 223.121 81.3116 225.101 79.3119C227.089 77.3123 229.801 76.3125 233.237 76.3125C234.893 76.3125 236.618 76.5562 238.412 77.0436C240.211 77.5248 241.33 77.7654 241.767 77.7654C242.205 77.7654 242.595 77.4529 242.939 76.828H243.454L243.782 86.295H243.033C241.533 83.5768 239.961 81.3959 238.318 79.7525C236.681 78.1153 234.9 77.2967 232.975 77.2967C231.057 77.2967 229.566 77.7404 228.504 78.6277C227.442 79.5213 226.91 80.7086 226.91 82.1895C226.91 83.6768 227.542 84.8172 228.804 85.6108C230.072 86.4106 231.628 87.0605 233.472 87.5604C235.315 88.0603 236.524 88.404 237.099 88.5915C237.68 88.779 238.399 89.0352 239.255 89.3601C240.117 89.6913 240.82 90.035 241.364 90.3912C241.914 90.7536 242.492 91.2098 243.098 91.7597C243.711 92.3033 244.189 92.9032 244.532 93.5593C245.376 95.059 245.798 96.84 245.798 98.9021C245.798 102.276 244.742 104.985 242.629 107.029C240.524 109.078 237.752 110.103 234.315 110.103C232.534 110.103 230.494 109.869 228.195 109.4C225.901 108.931 224.63 108.697 224.38 108.697C223.942 108.697 223.52 109.166 223.114 110.103H222.458L221.99 98.949H222.786C224.161 101.667 225.917 104.042 228.054 106.073C230.197 108.104 232.456 109.119 234.831 109.119ZM261.863 96.6056H250.053V95.1996H261.863V96.6056ZM297.669 92.6689C297.669 99.1052 295.857 103.589 292.233 106.12C288.89 108.463 284.297 109.634 278.454 109.634H265.191V108.744H268.284V77.7185H265.191V76.828H279.673C285.672 76.828 290.171 78.0528 293.17 80.5024C296.17 82.9582 297.669 87.0137 297.669 92.6689ZM277.423 77.7185V108.744H279.204C282.36 108.744 284.619 107.625 285.981 105.388C287.337 103.158 288.015 99.4176 288.015 94.1686V91.4503C288.015 84.4204 286.671 80.1868 283.984 78.7495C282.703 78.0622 280.891 77.7185 278.548 77.7185H277.423ZM311.823 99.652C311.823 102.526 312.314 104.729 313.295 106.26C314.282 107.791 316.057 108.557 318.619 108.557C321.181 108.557 323.149 107.76 324.524 106.166C325.899 104.573 326.586 102.151 326.586 98.9021V77.7185H323.54V76.828H330.382V77.7185H327.804V98.574C327.804 102.448 326.945 105.338 325.227 107.244C323.508 109.15 320.468 110.103 316.107 110.103C311.751 110.103 308.424 109.197 306.124 107.385C303.831 105.573 302.684 102.464 302.684 98.0585V77.7185H300.106V76.828H314.869V77.7185H311.823V99.652ZM353.675 95.1528V91.6847C353.675 85.967 353.39 82.3583 352.822 80.8585C352.197 79.1401 351.309 78.0778 350.16 77.6716C349.504 77.4217 348.707 77.2967 347.77 77.2967C346.832 77.2967 346.026 77.4217 345.351 77.6716C344.683 77.9216 344.126 78.359 343.683 78.9839C343.245 79.6088 342.895 80.2649 342.633 80.9523C342.37 81.6396 342.161 82.6082 342.005 83.858C341.817 85.6702 341.724 88.3415 341.724 91.8721V95.2465C341.724 99.0583 341.871 101.767 342.164 103.373C342.464 104.985 342.83 106.135 343.261 106.823C344.236 108.353 345.739 109.119 347.77 109.119C350.232 109.119 351.831 108.079 352.569 105.998C353.306 103.923 353.675 100.308 353.675 95.1528ZM347.666 110.103C342.455 110.103 338.559 108.688 335.978 105.857C333.403 103.033 332.116 98.9396 332.116 93.5781C332.116 88.2228 333.497 84.0048 336.259 80.9242C339.021 77.8497 342.936 76.3125 348.004 76.3125C353.065 76.3125 356.883 77.7716 359.458 80.6898C362.039 83.6143 363.329 87.7635 363.329 93.1375C363.329 98.5115 362.023 102.683 359.411 105.651C356.805 108.619 352.89 110.103 347.666 110.103ZM392.424 77.2498C387.581 77.2498 385.159 81.9208 385.159 91.2629V94.9653C385.159 99.402 385.8 102.876 387.081 105.388C388.362 107.907 390.252 109.166 392.752 109.166C396.189 109.166 399.344 105.823 402.219 99.1364H403.062L402.734 109.588H402.219C402.031 109.244 401.86 109 401.703 108.857C401.547 108.719 401.319 108.65 401.019 108.65C400.725 108.65 399.594 108.891 397.626 109.372C395.658 109.859 393.658 110.103 391.627 110.103C386.534 110.103 382.588 108.728 379.789 105.979C376.995 103.229 375.599 99.0958 375.599 93.5781C375.599 88.0666 377.061 83.8111 379.985 80.8117C382.904 77.8122 386.831 76.3125 391.768 76.3125C393.674 76.3125 395.539 76.5562 397.363 77.0436C399.194 77.5248 400.266 77.7654 400.579 77.7654C400.891 77.7654 401.125 77.6935 401.282 77.5498C401.438 77.4123 401.61 77.1717 401.797 76.828H402.313L402.688 86.998H401.844C400.438 83.8424 398.991 81.4272 397.504 79.7525C396.023 78.084 394.33 77.2498 392.424 77.2498ZM428.089 95.1528V91.6847C428.089 85.967 427.808 82.3583 427.246 80.8585C426.621 79.1401 425.73 78.0778 424.574 77.6716C423.918 77.4217 423.121 77.2967 422.184 77.2967C421.247 77.2967 420.441 77.4217 419.766 77.6716C419.097 77.9216 418.544 78.359 418.107 78.9839C417.669 79.6088 417.316 80.2649 417.047 80.9523C416.785 81.6396 416.576 82.6082 416.419 83.858C416.232 85.6702 416.138 88.3415 416.138 91.8721V95.2465C416.138 99.0583 416.285 101.767 416.579 103.373C416.879 104.985 417.247 106.135 417.685 106.823C418.653 108.353 420.153 109.119 422.184 109.119C424.652 109.119 426.252 108.079 426.983 105.998C427.72 103.923 428.089 100.308 428.089 95.1528ZM422.09 110.103C416.872 110.103 412.973 108.688 410.392 105.857C407.818 103.033 406.531 98.9396 406.531 93.5781C406.531 88.2228 407.912 84.0048 410.674 80.9242C413.442 77.8497 417.357 76.3125 422.418 76.3125C427.48 76.3125 431.298 77.7716 433.872 80.6898C436.453 83.6143 437.744 87.7635 437.744 93.1375C437.744 98.5115 436.438 102.683 433.826 105.651C431.22 108.619 427.308 110.103 422.09 110.103ZM469.885 77.7185H467.307V109.634H460.746L444.67 79.3119V108.744H447.248V109.634H440.827V108.744H443.405V77.7185H440.827V76.828H453.762L466.041 100.355V77.7185H463.464V76.828H469.885V77.7185ZM486.288 109.119C487.85 109.119 489.234 108.697 490.44 107.854C491.64 107.01 492.24 105.735 492.24 104.029C492.24 102.33 491.593 101.027 490.299 100.121C489 99.2145 487.156 98.424 484.769 97.7492C482.376 97.0805 480.642 96.4963 479.567 95.9964C478.486 95.4965 477.461 94.8403 476.493 94.028C474.556 92.4033 473.587 89.8881 473.587 86.4825C473.587 83.7018 474.581 81.3116 476.568 79.3119C478.549 77.3123 481.257 76.3125 484.694 76.3125C486.35 76.3125 488.078 76.5562 489.878 77.0436C491.671 77.5248 492.787 77.7654 493.224 77.7654C493.661 77.7654 494.052 77.4529 494.396 76.828H494.911L495.239 86.295H494.489C492.99 83.5768 491.421 81.3959 489.784 79.7525C488.141 78.1153 486.36 77.2967 484.441 77.2967C482.517 77.2967 481.023 77.7404 479.961 78.6277C478.898 79.5213 478.367 80.7086 478.367 82.1895C478.367 83.6768 479.002 84.8172 480.27 85.6108C481.532 86.4106 483.085 87.0605 484.929 87.5604C486.772 88.0603 487.984 88.404 488.565 88.5915C489.14 88.779 489.859 89.0352 490.721 89.3601C491.577 89.6913 492.28 90.035 492.83 90.3912C493.374 90.7536 493.952 91.2098 494.564 91.7597C495.17 92.3033 495.645 92.9032 495.989 93.5593C496.833 95.059 497.254 96.84 497.254 98.9021C497.254 102.276 496.202 104.985 494.096 107.029C491.984 109.078 489.209 110.103 485.772 110.103C483.991 110.103 481.954 109.869 479.661 109.4C477.361 108.931 476.087 108.697 475.837 108.697C475.399 108.697 474.977 109.166 474.571 110.103H473.915L473.446 98.949H474.243C475.618 101.667 477.377 104.042 479.52 106.073C481.657 108.104 483.913 109.119 486.288 109.119ZM534.748 77.8591V76.828H551.619V77.8591H546.652V108.603H548.339C550.995 108.603 553.11 107.791 554.685 106.166C556.265 104.542 557.868 102.042 559.493 98.6678H560.477L559.587 109.634H534.748V108.603H537.513V77.8591H534.748ZM560.093 76.828H587.744L588.213 88.5915H587.322C585.948 84.436 584.729 81.599 583.667 80.0806C582.604 78.5683 581.073 77.8122 579.074 77.8122H578.511V108.65H582.495V109.634H565.389V108.65H569.372V77.8122H568.763C566.764 77.8122 565.217 78.5996 564.123 80.1743C563.03 81.7552 561.827 84.561 560.515 88.5915H559.624L560.093 76.828ZM601.945 108.744H605.272L601.851 98.6209H592.571L588.963 108.744H592.478V109.634H585.307V108.744H587.51L599.461 76.5468H603.304L615.114 108.744H617.27V109.634H601.945V108.744ZM601.476 97.5898L597.399 85.3108L592.993 97.5898H601.476ZM647.78 77.7185H645.202V109.634H638.641L622.566 79.3119V108.744H625.143V109.634H618.723V108.744H621.3V77.7185H618.723V76.828H631.658L643.937 100.355V77.7185H641.359V76.828H647.78V77.7185ZM667.229 77.2498C662.387 77.2498 659.965 81.9208 659.965 91.2629V94.9653C659.965 99.402 660.606 102.876 661.887 105.388C663.168 107.907 665.058 109.166 667.557 109.166C670.994 109.166 674.15 105.823 677.025 99.1364H677.868L677.54 109.588H677.025C676.837 109.244 676.665 109 676.509 108.857C676.353 108.719 676.125 108.65 675.825 108.65C675.531 108.65 674.4 108.891 672.432 109.372C670.463 109.859 668.464 110.103 666.433 110.103C661.34 110.103 657.394 108.728 654.594 105.979C651.801 103.229 650.404 99.0958 650.404 93.5781C650.404 88.0666 651.863 83.8111 654.782 80.8117C657.706 77.8122 661.637 76.3125 666.573 76.3125C668.479 76.3125 670.344 76.5562 672.169 77.0436C674 77.5248 675.072 77.7654 675.384 77.7654C675.697 77.7654 675.931 77.6935 676.087 77.5498C676.243 77.4123 676.415 77.1717 676.603 76.828H677.118L677.493 86.998H676.65C675.244 83.8424 673.797 81.4272 672.31 79.7525C670.829 78.084 669.135 77.2498 667.229 77.2498ZM691.169 77.5779L697.543 92.2471L704.198 77.5779H699.464V76.828H708.697V77.5779H705.604L698.527 93.2313V108.744H701.386V109.634H686.529V108.744H689.388V94.1217L681.421 77.5779H679.218V76.828H694.215V77.5779H691.169Z" fill="white"/>
</g>
<path d="M531.57 78.78C531.57 79.02 531.48 79.245 531.3 79.455C531.15 79.635 530.94 79.725 530.67 79.725C530.28 79.725 529.89 79.725 529.5 79.725C529.11 79.695 528.72 79.68 528.33 79.68C528.03 79.68 527.835 79.845 527.745 80.175C527.655 80.505 527.61 80.865 527.61 81.255C527.64 81.645 527.655 81.945 527.655 82.155V98.4C527.655 100.95 527.22 103.185 526.35 105.105C525.51 107.025 524.19 108.51 522.39 109.56C520.62 110.61 518.325 111.135 515.505 111.135C511.365 111.135 508.17 110.16 505.92 108.21C503.67 106.26 502.545 103.2 502.545 99.03V97.05C502.545 94.44 502.56 91.815 502.59 89.175C502.62 86.535 502.635 83.91 502.635 81.3C502.635 81.06 502.605 80.73 502.545 80.31C502.515 79.86 502.35 79.635 502.05 79.635H501.555C501.255 79.635 500.955 79.65 500.655 79.68C500.355 79.71 500.055 79.725 499.755 79.725C499.515 79.725 499.275 79.65 499.035 79.5C498.795 79.35 498.675 79.14 498.675 78.87C498.675 78.57 498.78 78.33 498.99 78.15C499.2 77.97 499.455 77.88 499.755 77.88C500.085 77.88 500.415 77.895 500.745 77.925C501.105 77.955 501.435 77.985 501.735 78.015C503.145 78.105 504.51 78.15 505.83 78.15C506.49 78.15 507.15 78.15 507.81 78.15C508.47 78.12 509.13 78.09 509.79 78.06C510.21 78 510.615 77.955 511.005 77.925C511.425 77.895 511.83 77.88 512.22 77.88C512.52 77.88 512.745 77.985 512.895 78.195C513.045 78.375 513.12 78.6 513.12 78.87C513.12 79.08 513.03 79.275 512.85 79.455C512.67 79.635 512.46 79.725 512.22 79.725C511.83 79.725 511.44 79.71 511.05 79.68C510.69 79.65 510.315 79.635 509.925 79.635C509.625 79.635 509.445 79.755 509.385 79.995C509.355 80.235 509.325 80.46 509.295 80.67C509.265 81.15 509.25 81.63 509.25 82.11C509.28 82.59 509.295 83.07 509.295 83.55C509.295 86.22 509.265 88.92 509.205 91.65C509.145 94.35 509.115 97.035 509.115 99.705C509.115 100.965 509.16 102.165 509.25 103.305C509.37 104.445 509.625 105.465 510.015 106.365C510.435 107.235 511.095 107.925 511.995 108.435C512.895 108.945 514.14 109.2 515.73 109.2C517.92 109.2 519.645 108.69 520.905 107.67C522.165 106.65 523.065 105.33 523.605 103.71C524.145 102.06 524.415 100.335 524.415 98.535C524.415 95.595 524.355 92.625 524.235 89.625C524.145 86.625 524.1 83.655 524.1 80.715C524.1 79.995 523.725 79.635 522.975 79.635C522.675 79.635 522.375 79.65 522.075 79.68C521.775 79.71 521.475 79.725 521.175 79.725C520.935 79.725 520.71 79.65 520.5 79.5C520.29 79.32 520.185 79.11 520.185 78.87C520.185 78.6 520.275 78.375 520.455 78.195C520.635 77.985 520.875 77.88 521.175 77.88C521.655 77.88 522.12 77.91 522.57 77.97C523.02 78.03 523.485 78.075 523.965 78.105C524.265 78.105 524.565 78.105 524.865 78.105C525.165 78.105 525.465 78.105 525.765 78.105C526.095 78.105 526.425 78.105 526.755 78.105C527.115 78.105 527.46 78.105 527.79 78.105C528.27 78.075 528.735 78.03 529.185 77.97C529.665 77.91 530.145 77.88 530.625 77.88C531.255 77.88 531.57 78.18 531.57 78.78Z" fill="white"/>
</g>
<g clip-path="url(#clip8_778_2)">
<g clip-path="url(#clip9_778_2)">
<path d="M9.81262 197.722H8.85093L3.79515 180.878L1.73438 179.889V179.449H8.71354V179.889L6.37799 180.906L9.81262 192.803H9.95001L14.7035 179.312H15.7202L20.5836 192.803H20.7485L24.1282 180.933L21.7926 179.889V179.449H27.865V179.889L26.0241 180.906L20.9133 197.722H19.9517L14.9508 184.258H14.8134L9.81262 197.722ZM44.5985 197.859C42.8217 197.859 41.4204 197.319 40.3946 196.238C39.3688 195.157 38.8559 193.728 38.8559 191.952C38.8559 190.578 39.127 189.363 39.6692 188.308C40.2077 187.257 40.9221 186.432 41.8124 185.835C42.699 185.242 43.6643 184.945 44.7085 184.945C46.1556 184.945 47.2968 185.449 48.1321 186.456C48.9637 187.464 49.3796 188.911 49.3796 190.798L49.2422 190.935H41.0265C41.0449 191.778 41.2097 192.569 41.5211 193.309C41.8325 194.053 42.3326 194.653 43.0214 195.111C43.7065 195.569 44.626 195.798 45.7801 195.798C46.7876 195.798 47.9691 195.432 49.3246 194.699H49.407V194.974C48.9857 195.762 48.3592 196.439 47.5276 197.007C46.6923 197.575 45.7159 197.859 44.5985 197.859ZM44.2688 186.154C43.3896 186.154 42.6715 186.46 42.1146 187.072C41.5541 187.687 41.2097 188.554 41.0815 189.671H47.2913C47.0898 188.425 46.7381 187.528 46.2362 186.978C45.7306 186.429 45.0748 186.154 44.2688 186.154ZM81.9179 197.859C81.0569 197.859 80.315 197.786 79.6922 197.639C79.0694 197.493 78.4374 197.255 77.7963 196.925V193.847H78.181L79.0602 195.359C79.6281 196.366 80.5532 196.87 81.8354 196.87C82.5681 196.87 83.1397 196.696 83.55 196.348C83.964 196 84.171 195.524 84.171 194.919C84.171 194.388 84.0427 193.976 83.7863 193.683C83.5298 193.39 83.1671 193.128 82.6982 192.897C82.2329 192.67 81.6797 192.409 81.0386 192.116C80.1044 191.695 79.3845 191.232 78.8789 190.726C78.377 190.224 78.126 189.515 78.126 188.599C78.126 187.922 78.3184 187.308 78.703 186.758C79.0877 186.209 79.5768 185.769 80.1703 185.439C80.7675 185.11 81.3866 184.945 82.0278 184.945C82.7055 184.945 83.3283 185.027 83.8962 185.192C84.4641 185.357 85.0411 185.586 85.6273 185.879V188.874H85.2426L84.3358 187.418C84.0244 186.923 83.6856 186.566 83.3192 186.346C82.9528 186.126 82.559 186.017 82.1377 186.017C81.5149 186.017 81.0148 186.172 80.6374 186.484C80.2637 186.795 80.0769 187.225 80.0769 187.775C80.0769 188.398 80.3004 188.869 80.7473 189.187C81.198 189.51 81.8537 189.872 82.7147 190.275C83.2276 190.532 83.7442 190.788 84.2644 191.045C84.7883 191.301 85.2188 191.662 85.5558 192.127C85.8965 192.596 86.0669 193.261 86.0669 194.122C86.0669 194.928 85.8471 195.61 85.4074 196.167C84.9678 196.727 84.4274 197.148 83.7863 197.43C83.1452 197.716 82.5224 197.859 81.9179 197.859ZM102.855 197.859C102.049 197.859 101.353 197.621 100.767 197.145C100.181 196.668 99.8878 196 99.8878 195.139V186.511H97.6347V186.346L99.9703 185.22L101.921 182.197H102.086V185.22H105.713V186.511H102.086V194.672C102.086 195.148 102.297 195.496 102.718 195.716C103.139 195.936 103.634 196.046 104.202 196.046C104.55 196.046 104.876 196.027 105.18 195.991C105.48 195.954 105.74 195.908 105.96 195.853H106.043V196.128C105.86 196.549 105.499 196.943 104.96 197.31C104.418 197.676 103.716 197.859 102.855 197.859ZM120.358 197.859C119.497 197.859 118.783 197.606 118.215 197.101C117.647 196.599 117.363 195.899 117.363 195.001C117.363 194.104 117.698 193.325 118.369 192.666C119.036 192.007 120.157 191.494 121.732 191.127L124.342 190.523V188.517C124.342 187.894 124.091 187.357 123.59 186.907C123.084 186.46 122.511 186.236 121.869 186.236C121.173 186.236 120.688 186.423 120.413 186.797C120.138 187.174 120.001 187.674 120.001 188.297V189.066L119.864 189.204H118.435C118.16 189.204 117.973 189.158 117.874 189.066C117.772 188.975 117.72 188.764 117.72 188.434C117.72 188.031 117.84 187.619 118.078 187.198C118.316 186.777 118.682 186.41 119.177 186.099C119.69 185.769 120.226 185.494 120.787 185.275C121.344 185.055 121.943 184.945 122.584 184.945C123.225 184.945 123.853 185.036 124.469 185.22C125.081 185.403 125.579 185.709 125.964 186.137C126.348 186.57 126.541 187.171 126.541 187.94V195.743C126.669 195.872 126.852 195.982 127.09 196.073C127.328 196.165 127.658 196.21 128.079 196.21H129.123L129.206 196.265V196.348C128.986 196.751 128.662 197.103 128.233 197.403C127.801 197.707 127.273 197.859 126.65 197.859C126.083 197.859 125.621 197.707 125.266 197.403C124.907 197.103 124.654 196.705 124.507 196.21H124.342C123.866 196.687 123.276 197.081 122.573 197.392C121.866 197.703 121.128 197.859 120.358 197.859ZM119.506 194.452C119.506 195.588 120.193 196.156 121.567 196.156C122.007 196.156 122.443 196.11 122.875 196.018C123.304 195.927 123.793 195.762 124.342 195.524V191.457C122.877 191.732 121.805 192.019 121.128 192.32C120.45 192.624 120.01 192.95 119.809 193.298C119.607 193.646 119.506 194.031 119.506 194.452ZM145.917 197.584H140.037V197.145L141.768 196.265V188.077L140.12 186.648V186.456L143.527 184.945H143.692L143.939 186.978H144.076C144.772 186.282 145.445 185.769 146.093 185.439C146.745 185.11 147.465 184.945 148.253 184.945C149.334 184.945 150.217 185.214 150.902 185.753C151.59 186.295 151.935 187.097 151.935 188.16V196.265L153.666 197.145V197.584H147.786V197.145L149.737 196.265V189.451C149.737 188.645 149.484 188.031 148.978 187.61C148.476 187.189 147.822 186.978 147.016 186.978C146.522 186.978 145.976 187.061 145.379 187.225C144.785 187.39 144.315 187.628 143.967 187.94V196.265L145.917 197.145V197.584ZM169.905 197.859C168.989 197.859 168.168 197.63 167.443 197.172C166.721 196.714 166.153 196.068 165.739 195.232C165.329 194.401 165.124 193.408 165.124 192.254C165.124 190.697 165.426 189.372 166.031 188.281C166.635 187.193 167.441 186.365 168.449 185.797C169.456 185.229 170.555 184.945 171.746 184.945C172.259 184.945 172.707 184.967 173.092 185.011C173.477 185.058 173.825 185.119 174.136 185.192V180.109L172.35 178.68V178.488L176.17 176.977H176.334V196.348L178.285 197.145V197.584H174.411L174.191 196.183H173.999C173.303 196.769 172.629 197.194 171.977 197.458C171.328 197.725 170.638 197.859 169.905 197.859ZM167.322 191.622C167.322 193.142 167.725 194.245 168.531 194.93C169.337 195.619 170.299 195.963 171.416 195.963C171.856 195.963 172.308 195.894 172.773 195.754C173.242 195.619 173.697 195.414 174.136 195.139V187.445C173.697 187.061 173.261 186.771 172.828 186.577C172.4 186.387 171.92 186.291 171.389 186.291C170.656 186.291 169.982 186.469 169.366 186.824C168.754 187.183 168.26 187.751 167.883 188.528C167.509 189.308 167.322 190.34 167.322 191.622ZM229.92 197.859C229.059 197.859 228.345 197.606 227.777 197.101C227.209 196.599 226.925 195.899 226.925 195.001C226.925 194.104 227.259 193.325 227.925 192.666C228.596 192.007 229.719 191.494 231.294 191.127L233.904 190.523V188.517C233.904 187.894 233.652 187.357 233.146 186.907C232.644 186.46 232.073 186.236 231.431 186.236C230.735 186.236 230.25 186.423 229.975 186.797C229.7 187.174 229.563 187.674 229.563 188.297V189.066L229.426 189.204H227.997C227.722 189.204 227.533 189.158 227.431 189.066C227.332 188.975 227.282 188.764 227.282 188.434C227.282 188.031 227.401 187.619 227.64 187.198C227.878 186.777 228.244 186.41 228.739 186.099C229.252 185.769 229.786 185.494 230.343 185.275C230.904 185.055 231.505 184.945 232.146 184.945C232.787 184.945 233.413 185.036 234.025 185.22C234.641 185.403 235.141 185.709 235.525 186.137C235.91 186.57 236.102 187.171 236.102 187.94V195.743C236.231 195.872 236.414 195.982 236.652 196.073C236.89 196.165 237.22 196.21 237.641 196.21H238.685L238.768 196.265V196.348C238.548 196.751 238.222 197.103 237.79 197.403C237.361 197.707 236.835 197.859 236.212 197.859C235.645 197.859 235.181 197.707 234.822 197.403C234.467 197.103 234.216 196.705 234.069 196.21H233.904C233.428 196.687 232.836 197.081 232.129 197.392C231.426 197.703 230.69 197.859 229.92 197.859ZM229.068 194.452C229.068 195.588 229.755 196.156 231.129 196.156C231.569 196.156 232.003 196.11 232.432 196.018C232.864 195.927 233.355 195.762 233.904 195.524V191.457C232.439 191.732 231.367 192.019 230.69 192.32C230.012 192.624 229.572 192.95 229.371 193.298C229.169 193.646 229.068 194.031 229.068 194.452ZM254.127 197.859C253.266 197.859 252.525 197.786 251.902 197.639C251.279 197.493 250.647 197.255 250.006 196.925V193.847H250.391L251.27 195.359C251.838 196.366 252.763 196.87 254.045 196.87C254.778 196.87 255.349 196.696 255.76 196.348C256.174 196 256.381 195.524 256.381 194.919C256.381 194.388 256.252 193.976 255.996 193.683C255.739 193.39 255.377 193.128 254.908 192.897C254.442 192.67 253.889 192.409 253.248 192.116C252.314 191.695 251.594 191.232 251.088 190.726C250.587 190.224 250.336 189.515 250.336 188.599C250.336 187.922 250.528 187.308 250.913 186.758C251.297 186.209 251.786 185.769 252.38 185.439C252.977 185.11 253.596 184.945 254.237 184.945C254.915 184.945 255.538 185.027 256.106 185.192C256.674 185.357 257.251 185.586 257.837 185.879V188.874H257.452L256.545 187.418C256.234 186.923 255.895 186.566 255.529 186.346C255.162 186.126 254.769 186.017 254.347 186.017C253.724 186.017 253.224 186.172 252.847 186.484C252.473 186.795 252.286 187.225 252.286 187.775C252.286 188.398 252.51 188.869 252.957 189.187C253.408 189.51 254.063 189.872 254.924 190.275C255.437 190.532 255.954 190.788 256.474 191.045C256.998 191.301 257.428 191.662 257.765 192.127C258.106 192.596 258.276 193.261 258.276 194.122C258.276 194.928 258.057 195.61 257.617 196.167C257.177 196.727 256.637 197.148 255.996 197.43C255.355 197.716 254.732 197.859 254.127 197.859ZM289.71 197.859C288.849 197.859 288.135 197.606 287.567 197.101C286.999 196.599 286.715 195.899 286.715 195.001C286.715 194.104 287.05 193.325 287.721 192.666C288.388 192.007 289.509 191.494 291.084 191.127L293.694 190.523V188.517C293.694 187.894 293.443 187.357 292.941 186.907C292.436 186.46 291.863 186.236 291.221 186.236C290.525 186.236 290.04 186.423 289.765 186.797C289.49 187.174 289.353 187.674 289.353 188.297V189.066L289.216 189.204H287.787C287.512 189.204 287.325 189.158 287.226 189.066C287.124 188.975 287.072 188.764 287.072 188.434C287.072 188.031 287.191 187.619 287.43 187.198C287.668 186.777 288.034 186.41 288.529 186.099C289.042 185.769 289.578 185.494 290.139 185.275C290.696 185.055 291.295 184.945 291.936 184.945C292.577 184.945 293.205 185.036 293.821 185.22C294.433 185.403 294.931 185.709 295.315 186.137C295.7 186.57 295.893 187.171 295.893 187.94V195.743C296.021 195.872 296.204 195.982 296.442 196.073C296.68 196.165 297.01 196.21 297.431 196.21H298.475L298.558 196.265V196.348C298.338 196.751 298.014 197.103 297.585 197.403C297.153 197.707 296.625 197.859 296.002 197.859C295.435 197.859 294.973 197.707 294.618 197.403C294.259 197.103 294.006 196.705 293.859 196.21H293.694C293.218 196.687 292.628 197.081 291.925 197.392C291.218 197.703 290.48 197.859 289.71 197.859ZM288.858 194.452C288.858 195.588 289.545 196.156 290.919 196.156C291.359 196.156 291.795 196.11 292.227 196.018C292.656 195.927 293.145 195.762 293.694 195.524V191.457C292.229 191.732 291.157 192.019 290.48 192.32C289.802 192.624 289.362 192.95 289.161 193.298C288.959 193.646 288.858 194.031 288.858 194.452ZM327.139 197.859H326.975V180.109L325.326 178.68V178.488L329.008 176.977H329.173V186.648H329.283C329.979 186.062 330.651 185.632 331.299 185.357C331.952 185.082 332.653 184.945 333.404 184.945C334.338 184.945 335.163 185.183 335.877 185.659C336.591 186.136 337.154 186.808 337.564 187.676C337.978 188.548 338.185 189.589 338.185 190.798C338.185 192.3 337.901 193.576 337.333 194.628C336.766 195.683 335.996 196.485 335.025 197.035C334.054 197.584 332.965 197.859 331.756 197.859C331.004 197.859 330.303 197.791 329.651 197.656C329.002 197.517 328.394 197.346 327.826 197.145L327.139 197.859ZM331.893 186.841C331.453 186.841 330.999 186.909 330.53 187.044C330.065 187.183 329.612 187.39 329.173 187.665V195.414C329.686 195.817 330.202 196.104 330.722 196.276C331.246 196.452 331.829 196.54 332.47 196.54C333.111 196.54 333.697 196.37 334.228 196.029C334.76 195.692 335.185 195.148 335.503 194.397C335.826 193.646 335.987 192.657 335.987 191.429C335.987 189.836 335.588 188.673 334.789 187.94C333.994 187.207 333.029 186.841 331.893 186.841ZM355.853 197.859C354.076 197.859 352.675 197.319 351.649 196.238C350.623 195.157 350.11 193.728 350.11 191.952C350.11 190.578 350.381 189.363 350.924 188.308C351.462 187.257 352.176 186.432 353.067 185.835C353.953 185.242 354.919 184.945 355.963 184.945C357.41 184.945 358.551 185.449 359.386 186.456C360.218 187.464 360.634 188.911 360.634 190.798L360.497 190.935H352.281C352.299 191.778 352.464 192.569 352.775 193.309C353.087 194.053 353.587 194.653 354.276 195.111C354.961 195.569 355.88 195.798 357.034 195.798C358.042 195.798 359.223 195.432 360.579 194.699H360.661V194.974C360.24 195.762 359.614 196.439 358.782 197.007C357.947 197.575 356.97 197.859 355.853 197.859ZM355.523 186.154C354.644 186.154 353.926 186.46 353.369 187.072C352.808 187.687 352.464 188.554 352.336 189.671H358.546C358.344 188.425 357.992 187.528 357.491 186.978C356.985 186.429 356.329 186.154 355.523 186.154ZM375.526 197.859C374.666 197.859 373.951 197.606 373.383 197.101C372.815 196.599 372.531 195.899 372.531 195.001C372.531 194.104 372.867 193.325 373.537 192.666C374.204 192.007 375.325 191.494 376.9 191.127L379.511 190.523V188.517C379.511 187.894 379.26 187.357 378.758 186.907C378.252 186.46 377.679 186.236 377.038 186.236C376.342 186.236 375.856 186.423 375.581 186.797C375.307 187.174 375.169 187.674 375.169 188.297V189.066L375.032 189.204H373.603C373.328 189.204 373.141 189.158 373.043 189.066C372.94 188.975 372.889 188.764 372.889 188.434C372.889 188.031 373.008 187.619 373.246 187.198C373.484 186.777 373.85 186.41 374.345 186.099C374.858 185.769 375.395 185.494 375.955 185.275C376.512 185.055 377.111 184.945 377.752 184.945C378.393 184.945 379.022 185.036 379.637 185.22C380.249 185.403 380.747 185.709 381.132 186.137C381.516 186.57 381.709 187.171 381.709 187.94V195.743C381.837 195.872 382.02 195.982 382.258 196.073C382.496 196.165 382.826 196.21 383.247 196.21H384.292L384.374 196.265V196.348C384.154 196.751 383.83 197.103 383.401 197.403C382.969 197.707 382.442 197.859 381.819 197.859C381.251 197.859 380.789 197.707 380.434 197.403C380.075 197.103 379.822 196.705 379.675 196.21H379.511C379.034 196.687 378.445 197.081 377.741 197.392C377.034 197.703 376.296 197.859 375.526 197.859ZM374.675 194.452C374.675 195.588 375.362 196.156 376.735 196.156C377.175 196.156 377.611 196.11 378.043 196.018C378.472 195.927 378.961 195.762 379.511 195.524V191.457C378.045 191.732 376.974 192.019 376.296 192.32C375.618 192.624 375.178 192.95 374.977 193.298C374.775 193.646 374.675 194.031 374.675 194.452ZM401.003 197.859C399.226 197.859 397.825 197.319 396.799 196.238C395.773 195.157 395.26 193.728 395.26 191.952C395.26 190.578 395.539 189.363 396.096 188.308C396.656 187.257 397.413 186.432 398.365 185.835C399.318 185.242 400.389 184.945 401.58 184.945C402.313 184.945 403.027 185.068 403.723 185.313C404.419 185.562 404.951 185.888 405.317 186.291C405.61 186.639 405.757 186.914 405.757 187.116C405.757 187.372 405.638 187.592 405.399 187.775L404.355 188.654H404.163L403.229 187.39C402.954 187.024 402.61 186.725 402.196 186.495C401.785 186.267 401.278 186.154 400.673 186.154C399.666 186.154 398.873 186.551 398.294 187.346C397.719 188.145 397.431 189.259 397.431 190.688C397.431 191.567 397.578 192.395 397.871 193.172C398.164 193.952 398.653 194.584 399.338 195.067C400.027 195.555 400.976 195.798 402.185 195.798C403.192 195.798 404.374 195.432 405.729 194.699H405.812V194.974C405.39 195.762 404.762 196.439 403.927 197.007C403.095 197.575 402.121 197.859 401.003 197.859ZM423.672 197.859C422.463 197.859 421.404 197.575 420.495 197.007C419.59 196.439 418.885 195.67 418.38 194.699C417.878 193.728 417.627 192.629 417.627 191.402C417.627 190.175 417.878 189.076 418.38 188.105C418.885 187.134 419.59 186.365 420.495 185.797C421.404 185.229 422.463 184.945 423.672 184.945C424.881 184.945 425.938 185.229 426.843 185.797C427.751 186.365 428.456 187.134 428.958 188.105C429.464 189.076 429.717 190.175 429.717 191.402C429.717 192.629 429.464 193.728 428.958 194.699C428.456 195.67 427.751 196.439 426.843 197.007C425.938 197.575 424.881 197.859 423.672 197.859ZM424.056 196.678C424.789 196.678 425.394 196.449 425.87 195.991C426.346 195.533 426.694 194.941 426.914 194.216C427.134 193.494 427.244 192.739 427.244 191.952C427.244 190.981 427.11 190.046 426.843 189.149C426.579 188.251 426.157 187.519 425.579 186.951C425.003 186.383 424.258 186.099 423.342 186.099C422.591 186.099 421.977 186.328 421.501 186.786C421.025 187.244 420.671 187.83 420.44 188.544C420.213 189.259 420.1 190.019 420.1 190.825C420.1 191.796 420.237 192.73 420.512 193.628C420.787 194.525 421.217 195.258 421.803 195.826C422.389 196.394 423.14 196.678 424.056 196.678ZM447.494 197.584H441.614V197.145L443.345 196.265V188.077L441.697 186.648V186.456L445.104 184.945H445.269L445.516 186.978H445.653C446.349 186.282 447.024 185.769 447.676 185.439C448.324 185.11 449.042 184.945 449.83 184.945C450.911 184.945 451.795 185.214 452.484 185.753C453.169 186.295 453.512 187.097 453.512 188.16V196.265L455.243 197.145V197.584H449.363V197.145L451.314 196.265V189.451C451.314 188.645 451.063 188.031 450.561 187.61C450.055 187.189 449.399 186.978 448.593 186.978C448.099 186.978 447.555 187.061 446.961 187.225C446.364 187.39 445.891 187.628 445.543 187.94V196.265L447.494 197.145V197.584ZM488.99 197.859C487.781 197.859 486.722 197.575 485.814 197.007C484.909 196.439 484.204 195.67 483.698 194.699C483.196 193.728 482.945 192.629 482.945 191.402C482.945 190.175 483.196 189.076 483.698 188.105C484.204 187.134 484.909 186.365 485.814 185.797C486.722 185.229 487.781 184.945 488.99 184.945C490.199 184.945 491.256 185.229 492.161 185.797C493.07 186.365 493.775 187.134 494.277 188.105C494.782 189.076 495.035 190.175 495.035 191.402C495.035 192.629 494.782 193.728 494.277 194.699C493.775 195.67 493.07 196.439 492.161 197.007C491.256 197.575 490.199 197.859 488.99 197.859ZM489.375 196.678C490.108 196.678 490.712 196.449 491.188 195.991C491.665 195.533 492.013 194.941 492.232 194.216C492.452 193.494 492.562 192.739 492.562 191.952C492.562 190.981 492.428 190.046 492.161 189.149C491.897 188.251 491.476 187.519 490.897 186.951C490.322 186.383 489.576 186.099 488.66 186.099C487.909 186.099 487.296 186.328 486.819 186.786C486.343 187.244 485.99 187.83 485.759 188.544C485.532 189.259 485.418 190.019 485.418 190.825C485.418 191.796 485.555 192.73 485.83 193.628C486.105 194.525 486.536 195.258 487.122 195.826C487.708 196.394 488.459 196.678 489.375 196.678ZM512.978 197.584H507.098V197.145L508.829 196.265V186.511H506.685V185.22H508.829V184.121C508.829 183.754 508.92 183.278 509.103 182.692C509.287 182.106 509.556 181.486 509.911 180.834C510.27 180.186 510.706 179.569 511.219 178.982C511.732 178.396 512.313 177.914 512.961 177.537C513.613 177.163 514.333 176.977 515.121 176.977C515.286 176.977 515.46 177.004 515.643 177.059C515.826 177.114 515.982 177.169 516.11 177.224C516.385 177.352 516.59 177.471 516.725 177.581C516.865 177.691 516.934 177.828 516.934 177.993C516.934 178.158 516.898 178.323 516.824 178.488L516.275 179.834H516.083L515.341 179.532C514.828 179.33 514.232 179.23 513.555 179.23C512.547 179.23 511.873 179.545 511.532 180.175C511.195 180.809 511.027 181.758 511.027 183.022V185.22H514.654V186.511H511.027V196.32L512.978 197.145V197.584ZM544.521 181.62C544.045 181.62 543.651 181.459 543.34 181.137C543.028 180.818 542.873 180.43 542.873 179.972C542.873 179.495 543.028 179.101 543.34 178.79C543.651 178.479 544.045 178.323 544.521 178.323C544.998 178.323 545.391 178.479 545.703 178.79C546.014 179.101 546.17 179.495 546.17 179.972C546.17 180.43 546.014 180.818 545.703 181.137C545.391 181.459 544.998 181.62 544.521 181.62ZM547.434 197.584H541.773V197.145L543.505 196.265V188.077L541.856 186.648V186.456L545.538 184.945H545.703V196.265L547.434 197.145V197.584ZM565.299 197.584H559.419V197.145L561.15 196.265V188.077L559.502 186.648V186.456L562.909 184.945H563.074L563.321 186.978H563.458C564.154 186.282 564.827 185.769 565.475 185.439C566.127 185.11 566.847 184.945 567.635 184.945C568.716 184.945 569.599 185.214 570.284 185.753C570.972 186.295 571.317 187.097 571.317 188.16V196.265L573.048 197.145V197.584H567.168V197.145L569.119 196.265V189.451C569.119 188.645 568.866 188.031 568.36 187.61C567.858 187.189 567.204 186.978 566.398 186.978C565.904 186.978 565.358 187.061 564.761 187.225C564.167 187.39 563.696 187.628 563.348 187.94V196.265L565.299 197.145V197.584ZM590.496 197.584H584.616V197.145L586.347 196.265V188.077L584.698 186.648V186.456L588.105 184.945H588.27L588.517 186.978H588.655C589.351 186.282 590.023 185.769 590.672 185.439C591.324 185.11 592.044 184.945 592.831 184.945C593.912 184.945 594.795 185.214 595.48 185.753C596.169 186.295 596.513 187.097 596.513 188.16V196.265L598.244 197.145V197.584H592.364V197.145L594.315 196.265V189.451C594.315 188.645 594.062 188.031 593.557 187.61C593.055 187.189 592.401 186.978 591.595 186.978C591.1 186.978 590.554 187.061 589.957 187.225C589.364 187.39 588.893 187.628 588.545 187.94V196.265L590.496 197.145V197.584ZM615.912 197.859C614.703 197.859 613.646 197.575 612.741 197.007C611.833 196.439 611.127 195.67 610.625 194.699C610.12 193.728 609.867 192.629 609.867 191.402C609.867 190.175 610.12 189.076 610.625 188.105C611.127 187.134 611.833 186.365 612.741 185.797C613.646 185.229 614.703 184.945 615.912 184.945C617.121 184.945 618.18 185.229 619.088 185.797C619.993 186.365 620.699 187.134 621.204 188.105C621.706 189.076 621.957 190.175 621.957 191.402C621.957 192.629 621.706 193.728 621.204 194.699C620.699 195.67 619.993 196.439 619.088 197.007C618.18 197.575 617.121 197.859 615.912 197.859ZM616.297 196.678C617.029 196.678 617.634 196.449 618.11 195.991C618.586 195.533 618.935 194.941 619.154 194.216C619.374 193.494 619.484 192.739 619.484 191.952C619.484 190.981 619.352 190.046 619.088 189.149C618.821 188.251 618.4 187.519 617.824 186.951C617.246 186.383 616.498 186.099 615.582 186.099C614.831 186.099 614.218 186.328 613.741 186.786C613.265 187.244 612.913 187.83 612.686 188.544C612.455 189.259 612.34 190.019 612.34 190.825C612.34 191.796 612.477 192.73 612.752 193.628C613.027 194.525 613.457 195.258 614.044 195.826C614.63 196.394 615.381 196.678 616.297 196.678ZM639.35 197.584H638.773L633.745 186.511L631.904 185.659V185.22H638.471V185.659L636.218 186.484V186.648L639.735 194.315H639.845L642.949 186.813V186.648L640.971 185.659V185.22H646.357V185.659L644.323 186.621L639.35 197.584ZM659.221 197.859C658.36 197.859 657.646 197.606 657.078 197.101C656.51 196.599 656.226 195.899 656.226 195.001C656.226 194.104 656.56 193.325 657.227 192.666C657.897 192.007 659.02 191.494 660.595 191.127L663.206 190.523V188.517C663.206 187.894 662.953 187.357 662.447 186.907C661.945 186.46 661.374 186.236 660.733 186.236C660.037 186.236 659.551 186.423 659.276 186.797C659.002 187.174 658.864 187.674 658.864 188.297V189.066L658.727 189.204H657.298C657.023 189.204 656.835 189.158 656.732 189.066C656.633 188.975 656.584 188.764 656.584 188.434C656.584 188.031 656.703 187.619 656.941 187.198C657.179 186.777 657.545 186.41 658.04 186.099C658.553 185.769 659.088 185.494 659.644 185.275C660.205 185.055 660.806 184.945 661.447 184.945C662.088 184.945 662.715 185.036 663.326 185.22C663.942 185.403 664.442 185.709 664.827 186.137C665.211 186.57 665.404 187.171 665.404 187.94V195.743C665.532 195.872 665.715 195.982 665.953 196.073C666.191 196.165 666.521 196.21 666.942 196.21H667.987L668.069 196.265V196.348C667.849 196.751 667.523 197.103 667.091 197.403C666.662 197.707 666.136 197.859 665.514 197.859C664.946 197.859 664.482 197.707 664.123 197.403C663.768 197.103 663.517 196.705 663.37 196.21H663.206C662.729 196.687 662.138 197.081 661.43 197.392C660.727 197.703 659.991 197.859 659.221 197.859ZM658.37 194.452C658.37 195.588 659.057 196.156 660.43 196.156C660.87 196.156 661.304 196.11 661.733 196.018C662.165 195.927 662.656 195.762 663.206 195.524V191.457C661.74 191.732 660.668 192.019 659.991 192.32C659.313 192.624 658.873 192.95 658.672 193.298C658.47 193.646 658.37 194.031 658.37 194.452ZM683.291 197.859C682.485 197.859 681.789 197.621 681.203 197.145C680.617 196.668 680.324 196 680.324 195.139V186.511H678.071V186.346L680.406 185.22L682.357 182.197H682.522V185.22H686.149V186.511H682.522V194.672C682.522 195.148 682.733 195.496 683.154 195.716C683.575 195.936 684.07 196.046 684.638 196.046C684.986 196.046 685.31 196.027 685.61 195.991C685.914 195.954 686.176 195.908 686.396 195.853H686.479V196.128C686.295 196.549 685.933 196.943 685.391 197.31C684.852 197.676 684.152 197.859 683.291 197.859ZM700.739 181.62C700.263 181.62 699.869 181.459 699.558 181.137C699.246 180.818 699.091 180.43 699.091 179.972C699.091 179.495 699.246 179.101 699.558 178.79C699.869 178.479 700.263 178.323 700.739 178.323C701.215 178.323 701.609 178.479 701.921 178.79C702.232 179.101 702.388 179.495 702.388 179.972C702.388 180.43 702.232 180.818 701.921 181.137C701.609 181.459 701.215 181.62 700.739 181.62ZM703.652 197.584H697.991V197.145L699.723 196.265V188.077L698.074 186.648V186.456L701.756 184.945H701.921V196.265L703.652 197.145V197.584ZM721.732 197.859C720.523 197.859 719.466 197.575 718.561 197.007C717.652 196.439 716.947 195.67 716.445 194.699C715.939 193.728 715.687 192.629 715.687 191.402C715.687 190.175 715.939 189.076 716.445 188.105C716.947 187.134 717.652 186.365 718.561 185.797C719.466 185.229 720.523 184.945 721.732 184.945C722.941 184.945 723.999 185.229 724.908 185.797C725.813 186.365 726.518 187.134 727.024 188.105C727.526 189.076 727.777 190.175 727.777 191.402C727.777 192.629 727.526 193.728 727.024 194.699C726.518 195.67 725.813 196.439 724.908 197.007C723.999 197.575 722.941 197.859 721.732 197.859ZM722.116 196.678C722.849 196.678 723.454 196.449 723.93 195.991C724.406 195.533 724.754 194.941 724.974 194.216C725.194 193.494 725.304 192.739 725.304 191.952C725.304 190.981 725.172 190.046 724.908 189.149C724.641 188.251 724.219 187.519 723.644 186.951C723.065 186.383 722.318 186.099 721.402 186.099C720.651 186.099 720.037 186.328 719.561 186.786C719.085 187.244 718.733 187.83 718.506 188.544C718.275 189.259 718.16 190.019 718.16 190.825C718.16 191.796 718.297 192.73 718.572 193.628C718.847 194.525 719.277 195.258 719.863 195.826C720.449 196.394 721.2 196.678 722.116 196.678ZM745.56 197.584H739.68V197.145L741.411 196.265V188.077L739.762 186.648V186.456L743.169 184.945H743.334L743.581 186.978H743.719C744.415 186.282 745.087 185.769 745.736 185.439C746.388 185.11 747.108 184.945 747.895 184.945C748.976 184.945 749.859 185.214 750.544 185.753C751.233 186.295 751.577 187.097 751.577 188.16V196.265L753.308 197.145V197.584H747.428V197.145L749.379 196.265V189.451C749.379 188.645 749.126 188.031 748.621 187.61C748.119 187.189 747.465 186.978 746.659 186.978C746.164 186.978 745.618 187.061 745.021 187.225C744.428 187.39 743.957 187.628 743.609 187.94V196.265L745.56 197.145V197.584Z" fill="#00D084"/>
</g>
</g>
</g>
</g>
<g clip-path="url(#clip10_778_2)">
<g clip-path="url(#clip11_778_2)">
<path d="M820.722 63.1303L841.852 55.4001L833.864 47.4121L794.439 63.1303L833.864 79.1062L841.852 71.1183L820.722 63.1303Z" fill="#00D084"/>
<path d="M836.955 18.8103L857.054 28.0866V17.0066L818.145 0L834.893 38.909H845.973L836.955 18.8103Z" fill="#00D084"/>
<path d="M836.955 107.708L845.973 87.3516H834.893L818.145 126.261L857.054 109.512V98.4316L836.955 107.708Z" fill="#00D084"/>
<path d="M951.879 63.1303L930.75 71.1183L938.738 79.1062L978.162 63.1303L938.738 47.4121L930.75 55.4001L951.879 63.1303Z" fill="#00D084"/>
<path d="M935.903 107.708L915.547 98.4316V109.512L954.456 126.261L937.707 87.3516H926.627L935.903 107.708Z" fill="#00D084"/>
<path d="M935.903 18.8103L926.627 38.909H937.707L954.456 0L915.547 17.0066V28.0866L935.903 18.8103Z" fill="#00D084"/>
<path d="M869.937 47.4125L886.944 37.6208C890.036 35.8171 891.067 31.9519 889.263 28.6021C887.459 25.51 883.594 24.4793 880.244 26.2831L863.238 36.0747C860.146 37.8785 859.115 41.7436 860.919 45.0934C862.722 48.4432 866.845 49.2162 869.937 47.4125ZM860.919 68.2842C862.722 71.3763 866.588 72.407 869.937 70.6033L909.619 47.6701C912.711 45.8664 913.742 42.0013 911.938 38.6515C910.135 35.5594 906.27 34.5287 902.92 36.3324L863.238 59.2655C860.403 61.0693 859.373 64.9344 860.919 68.2842ZM911.938 84.0024C910.135 80.9103 906.27 79.8796 902.92 81.6833L894.932 86.0638V104.101C894.932 104.101 885.913 104.101 883.594 104.101V99.9783V99.7206C883.594 99.4629 883.594 99.2052 883.594 98.6899C883.594 98.1745 883.336 97.6592 883.079 97.1438L878.183 88.1252L909.362 70.0879C912.454 68.2842 913.484 64.419 911.681 61.0693C909.877 57.9772 906.012 56.9464 902.662 58.7502L862.98 81.6833C859.888 83.487 858.857 87.3522 860.661 90.7019C862.207 93.5364 865.814 94.5671 869.164 93.2787L873.287 101.009V130.126C873.287 134.249 876.379 137.857 880.502 138.372C882.306 140.949 885.656 142.752 889.778 142.752C893.643 142.752 896.993 140.949 899.055 138.372C902.92 137.857 906.527 134.507 906.527 130.126V94.8248L909.619 93.021C912.711 90.9596 913.742 87.0945 911.938 84.0024ZM899.828 131.415H880.244V126.261H899.828V131.415ZM899.828 123.427H880.244V118.273H899.828V123.427ZM899.828 115.439H880.244V110.285H899.828V115.439Z" fill="#00D084"/>
<path d="M789.543 147.133C794.954 134.764 807.323 138.887 807.323 138.887C807.323 138.887 893.644 164.655 901.117 168.005C905.497 170.066 908.589 174.704 908.589 179.342C908.589 184.496 907.043 187.588 903.178 190.422C899.055 193.257 894.932 193.772 889.264 191.968C886.944 191.195 873.288 186.815 859.115 182.434C837.986 175.735 832.833 174.446 831.544 175.219C829.225 176.508 828.71 178.312 829.74 180.373C830.256 181.404 842.367 185.526 861.95 191.968C897.251 203.306 898.54 203.564 906.785 198.668C915.031 193.772 918.896 184.753 916.577 175.477C915.546 171.097 915.546 170.839 917.35 170.066C918.381 169.551 933.326 163.366 950.333 156.151C984.346 141.464 984.861 141.464 990.53 144.814C996.457 148.164 998.776 158.213 995.684 162.336C993.88 164.655 938.995 197.122 938.995 197.122C938.995 197.122 889.264 229.847 880.245 229.589C871.742 229.589 785.42 195.06 785.42 195.06C785.42 195.06 771.763 190.422 776.659 178.054C781.297 166.716 784.647 158.471 789.543 147.133Z" fill="#00D084"/>
</g>
</g>
</g>
</g>
</g>
</g>
<defs>
<clipPath id="clip0_778_2">
<rect width="1000" height="229" fill="white"/>
</clipPath>
<clipPath id="clip1_778_2">
<rect width="1000" height="229" fill="white" transform="translate(-0.605469 0.294922)"/>
</clipPath>
<clipPath id="clip2_778_2">
<rect width="995.32" height="229.59" fill="white" transform="translate(1.73438)"/>
</clipPath>
<clipPath id="clip3_778_2">
<rect width="995.32" height="229.59" fill="white" transform="translate(1.73438)"/>
</clipPath>
<clipPath id="clip4_778_2">
<rect width="751.574" height="166.129" fill="white" transform="translate(1.73438 31.7305)"/>
</clipPath>
<clipPath id="clip5_778_2">
<rect width="751.574" height="166.129" fill="white" transform="translate(1.73438 31.7305)"/>
</clipPath>
<clipPath id="clip6_778_2">
<rect width="751.574" height="122.955" fill="white" transform="translate(1.73438 31.7305)"/>
</clipPath>
<clipPath id="clip7_778_2">
<rect width="662.409" height="33.7906" fill="white" transform="translate(46.3164 76.3125)"/>
</clipPath>
<clipPath id="clip8_778_2">
<rect width="751.574" height="20.8826" fill="white" transform="translate(1.73438 176.977)"/>
</clipPath>
<clipPath id="clip9_778_2">
<rect width="751.574" height="20.8826" fill="white" transform="translate(1.73438 176.977)"/>
</clipPath>
<clipPath id="clip10_778_2">
<rect width="221.455" height="229.59" fill="white" transform="translate(775.6)"/>
</clipPath>
<clipPath id="clip11_778_2">
<rect width="221.455" height="229.59" fill="white" transform="translate(775.6)"/>
</clipPath>
</defs>
</svg>
