<svg xmlns="http://www.w3.org/2000/svg" version="1.1" xmlns:xlink="http://www.w3.org/1999/xlink" xmlns:svgjs="http://svgjs.dev/svgjs" width="1000" height="303" viewBox="0 0 1000 303"><g transform="matrix(1,0,0,1,-0.6060606026975393,-0.5084797245733341)"><svg viewBox="0 0 396 120" data-background-color="#eaf1ed" preserveAspectRatio="xMidYMid meet" height="303" width="1000" xmlns="http://www.w3.org/2000/svg" xmlns:xlink="http://www.w3.org/1999/xlink"><g id="tight-bounds" transform="matrix(1,0,0,1,0.2400000013317367,0.20137810874192041)"><svg viewBox="0 0 395.52 119.59724378251617" height="119.59724378251617" width="395.52"><g><svg viewBox="0 0 574.2333009174465 173.63652932307548" height="119.59724378251617" width="395.52"><g transform="matrix(1,0,0,1,0,67.92250581003243)"><svg viewBox="0 0 395.52 37.791517703010605" height="37.791517703010605" width="395.52"><g id="textblocktransform"><svg viewBox="0 0 395.52 37.791517703010605" height="37.791517703010605" width="395.52" id="textblock"><g><svg viewBox="0 0 395.52 21.504818763326224" height="21.504818763326224" width="395.52"><g transform="matrix(1,0,0,1,0,0)"><svg width="395.52" viewBox="0.4000000059604645 -32.650001525878906 609.6399536132812 33.150001525878906" height="21.504818763326224" data-palette-color="#040404"><path d="M19.35-32.2L29.2 0 22.3 0 21.5-4.2 20.65-7.2 14.35-7.35 8.8-7.2 7.95-4.55 7.1 0 0.4 0 11.3-32.2 19.35-32.2ZM14.85-12.35L19.2-12.45 15.4-25.85 14.95-25.85 10.55-12.45 14.85-12.35ZM45.95-32.6Q50.65-32.6 54.4-30.65L54.4-30.65 53.2-25 52.65-24.75Q51.15-25.8 49.35-26.4 47.55-27 45.65-27L45.65-27Q37.7-27 37.7-16.55L37.7-16.55Q37.7-10.9 39.77-8.08 41.85-5.25 45.85-5.25L45.85-5.25Q47.7-5.25 49.67-5.83 51.65-6.4 53.25-7.4L53.25-7.4 53.85-7.05 53.3-1.3Q49.5 0.45 45.3 0.45L45.3 0.45Q38.1 0.45 34.32-3.75 30.55-7.95 30.55-15.8L30.55-15.8Q30.55-23.8 34.57-28.2 38.6-32.6 45.95-32.6L45.95-32.6ZM83.9-32.2L83.65-15.85 83.59-11.6Q83.65-5.85 80.25-2.7 76.84 0.45 70.5 0.45L70.5 0.45Q64.4 0.45 61.2-2.6 58-5.65 58.15-11.35L58.15-11.35 58.2-16 58.05-32.2 64.84-32.2 64.5-12.25Q64.45-8.6 66.05-6.85 67.65-5.1 70.9-5.1L70.9-5.1Q77.4-5.1 77.34-11.9L77.34-11.9 77-32.2 83.9-32.2ZM97.69-32.2L97.29-10.2 97.59 0 90.79 0 91.14-9.6 90.79-32.2 97.69-32.2ZM125.34-32.2L125.74-31.65 125.34-26.6 119.29-26.9 117.29-26.9 117.04-10.2 117.34 0 110.54 0 110.89-9.6 110.64-26.9 108.64-26.9 102.49-26.6 102.04-27.15 102.49-32.2 125.34-32.2ZM155.34-32.2L155.09-15.85 155.04-11.6Q155.09-5.85 151.69-2.7 148.29 0.45 141.94 0.45L141.94 0.45Q135.84 0.45 132.64-2.6 129.44-5.65 129.59-11.35L129.59-11.35 129.64-16 129.49-32.2 136.29-32.2 135.94-12.25Q135.89-8.6 137.49-6.85 139.09-5.1 142.34-5.1L142.34-5.1Q148.84-5.1 148.79-11.9L148.79-11.9 148.44-32.2 155.34-32.2ZM172.59-32.6Q176.69-32.6 180.74-30.95L180.74-30.95 179.64-25.1 178.64-24.7Q176.94-25.9 175.11-26.6 173.29-27.3 171.79-27.3L171.79-27.3Q169.79-27.3 168.59-26.23 167.39-25.15 167.39-23.75L167.39-23.75Q167.39-22.3 168.71-21.3 170.04-20.3 172.89-18.95L172.89-18.95Q175.64-17.7 177.36-16.63 179.09-15.55 180.31-13.8 181.54-12.05 181.54-9.5L181.54-9.5Q181.54-6.75 180.04-4.48 178.54-2.2 175.79-0.88 173.04 0.45 169.44 0.45L169.44 0.45Q164.69 0.45 159.89-1.6L159.89-1.6 160.84-7.9 161.59-8.3Q163.59-6.55 165.96-5.63 168.34-4.7 170.19-4.7L170.19-4.7Q172.39-4.7 173.61-5.78 174.84-6.85 174.84-8.35L174.84-8.35Q174.84-9.95 173.51-10.95 172.19-11.95 169.24-13.35L169.24-13.35Q166.54-14.55 164.84-15.6 163.14-16.65 161.94-18.4 160.74-20.15 160.74-22.65L160.74-22.65Q160.74-25.45 162.24-27.73 163.74-30 166.44-31.3 169.14-32.6 172.59-32.6L172.59-32.6ZM196.48-15.95L197.03-15.4 197.03-11.3 185.13-9.45 184.58-10 184.58-14.15 196.48-15.95ZM213.78-32.4Q220.78-32.4 224.53-28.5 228.28-24.6 228.28-17.3L228.28-17.3Q228.28-8.75 224.08-4.2 219.88 0.35 212.08 0.35L212.08 0.35Q209.73 0.35 206.46 0.25 203.18 0.15 200.83 0L200.83 0 201.18-9.6 200.83-32.2 213.78-32.4ZM213.28-4.9Q221.23-4.9 221.23-15.75L221.23-15.75Q221.23-21.65 219.31-24.33 217.38-27 213.28-27L213.28-27Q210.63-27 207.63-26.75L207.63-26.75 207.33-10.2 207.48-5.25Q210.98-4.9 213.28-4.9L213.28-4.9ZM258.58-32.2L258.33-15.85 258.28-11.6Q258.33-5.85 254.93-2.7 251.53 0.45 245.18 0.45L245.18 0.45Q239.08 0.45 235.88-2.6 232.68-5.65 232.83-11.35L232.83-11.35 232.88-16 232.73-32.2 239.53-32.2 239.18-12.25Q239.13-8.6 240.73-6.85 242.33-5.1 245.58-5.1L245.58-5.1Q252.08-5.1 252.03-11.9L252.03-11.9 251.68-32.2 258.58-32.2ZM278.23-32.65Q285.03-32.65 288.7-28.53 292.38-24.4 292.38-16.8L292.38-16.8Q292.38-8.5 288.38-4 284.38 0.5 277.08 0.5L277.08 0.5Q270.33 0.5 266.65-3.73 262.98-7.95 262.98-15.7L262.98-15.7Q262.98-23.85 266.95-28.25 270.93-32.65 278.23-32.65L278.23-32.65ZM277.63-27.2Q273.63-27.2 271.83-24.7 270.03-22.2 270.03-16.55L270.03-16.55Q270.03-10.1 271.8-7.35 273.58-4.6 277.68-4.6L277.68-4.6Q281.68-4.6 283.48-7.13 285.28-9.65 285.28-15.4L285.28-15.4Q285.28-21.75 283.5-24.48 281.73-27.2 277.63-27.2L277.63-27.2ZM318.07-32.6Q322.77-32.6 326.52-30.65L326.52-30.65 325.32-25 324.77-24.75Q323.27-25.8 321.47-26.4 319.67-27 317.77-27L317.77-27Q309.82-27 309.82-16.55L309.82-16.55Q309.82-10.9 311.9-8.08 313.97-5.25 317.97-5.25L317.97-5.25Q319.82-5.25 321.8-5.83 323.77-6.4 325.37-7.4L325.37-7.4 325.97-7.05 325.42-1.3Q321.62 0.45 317.42 0.45L317.42 0.45Q310.22 0.45 306.45-3.75 302.67-7.95 302.67-15.8L302.67-15.8Q302.67-23.8 306.7-28.2 310.72-32.6 318.07-32.6L318.07-32.6ZM343.77-32.65Q350.57-32.65 354.24-28.53 357.92-24.4 357.92-16.8L357.92-16.8Q357.92-8.5 353.92-4 349.92 0.5 342.62 0.5L342.62 0.5Q335.87 0.5 332.19-3.73 328.52-7.95 328.52-15.7L328.52-15.7Q328.52-23.85 332.49-28.25 336.47-32.65 343.77-32.65L343.77-32.65ZM343.17-27.2Q339.17-27.2 337.37-24.7 335.57-22.2 335.57-16.55L335.57-16.55Q335.57-10.1 337.34-7.35 339.12-4.6 343.22-4.6L343.22-4.6Q347.22-4.6 349.02-7.13 350.82-9.65 350.82-15.4L350.82-15.4Q350.82-21.75 349.04-24.48 347.27-27.2 343.17-27.2L343.17-27.2ZM389.92-32.3L389.52-9.95 389.77 0 382.47 0 369.32-21.8 368.92-21.8 368.87-11.1 369.07 0 362.92 0 363.27-9.5 362.97-32.2 370.22-32.2 383.37-10.4 383.82-10.4 383.67-31.9 389.92-32.3ZM408.01-32.6Q412.11-32.6 416.16-30.95L416.16-30.95 415.06-25.1 414.06-24.7Q412.36-25.9 410.54-26.6 408.71-27.3 407.21-27.3L407.21-27.3Q405.21-27.3 404.01-26.23 402.81-25.15 402.81-23.75L402.81-23.75Q402.81-22.3 404.14-21.3 405.46-20.3 408.31-18.95L408.31-18.95Q411.06-17.7 412.79-16.63 414.51-15.55 415.74-13.8 416.96-12.05 416.96-9.5L416.96-9.5Q416.96-6.75 415.46-4.48 413.96-2.2 411.21-0.88 408.46 0.45 404.86 0.45L404.86 0.45Q400.11 0.45 395.31-1.6L395.31-1.6 396.26-7.9 397.01-8.3Q399.01-6.55 401.39-5.63 403.76-4.7 405.61-4.7L405.61-4.7Q407.81-4.7 409.04-5.78 410.26-6.85 410.26-8.35L410.26-8.35Q410.26-9.95 408.94-10.95 407.61-11.95 404.66-13.35L404.66-13.35Q401.96-14.55 400.26-15.6 398.56-16.65 397.36-18.4 396.16-20.15 396.16-22.65L396.16-22.65Q396.16-25.45 397.66-27.73 399.16-30 401.86-31.3 404.56-32.6 408.01-32.6L408.01-32.6ZM435.31-32.65Q442.11-32.65 445.79-28.53 449.46-24.4 449.46-16.8L449.46-16.8Q449.46-8.5 445.46-4 441.46 0.5 434.16 0.5L434.16 0.5Q427.41 0.5 423.74-3.73 420.06-7.95 420.06-15.7L420.06-15.7Q420.06-23.85 424.04-28.25 428.01-32.65 435.31-32.65L435.31-32.65ZM434.71-27.2Q430.71-27.2 428.91-24.7 427.11-22.2 427.11-16.55L427.11-16.55Q427.11-10.1 428.89-7.35 430.66-4.6 434.76-4.6L434.76-4.6Q438.76-4.6 440.56-7.13 442.36-9.65 442.36-15.4L442.36-15.4Q442.36-21.75 440.59-24.48 438.81-27.2 434.71-27.2L434.71-27.2ZM471.71-5.6L472.11-5.05 471.66 0 454.26 0 454.61-9.6 454.26-32.2 461.16-32.2 460.76-10.2 460.91-5.6 471.71-5.6ZM493.15-32.2L493.55-31.65 493.15-26.6 487.1-26.9 485.1-26.9 484.85-10.2 485.15 0 478.35 0 478.7-9.6 478.45-26.9 476.45-26.9 470.3-26.6 469.85-27.15 470.3-32.2 493.15-32.2ZM511.05-32.2L520.9 0 514 0 513.2-4.2 512.35-7.2 506.05-7.35 500.5-7.2 499.65-4.55 498.8 0 492.1 0 503-32.2 511.05-32.2ZM506.55-12.35L510.9-12.45 507.1-25.85 506.65-25.85 502.25-12.45 506.55-12.35ZM552.6-32.3L552.2-9.95 552.45 0 545.15 0 532-21.8 531.6-21.8 531.55-11.1 531.75 0 525.6 0 525.95-9.5 525.65-32.2 532.9-32.2 546.05-10.4 546.5-10.4 546.35-31.9 552.6-32.3ZM572.8-32.6Q577.5-32.6 581.25-30.65L581.25-30.65 580.05-25 579.5-24.75Q578-25.8 576.2-26.4 574.4-27 572.5-27L572.5-27Q564.55-27 564.55-16.55L564.55-16.55Q564.55-10.9 566.62-8.08 568.7-5.25 572.7-5.25L572.7-5.25Q574.55-5.25 576.52-5.83 578.5-6.4 580.1-7.4L580.1-7.4 580.7-7.05 580.15-1.3Q576.35 0.45 572.15 0.45L572.15 0.45Q564.95 0.45 561.17-3.75 557.4-7.95 557.4-15.8L557.4-15.8Q557.4-23.8 561.42-28.2 565.45-32.6 572.8-32.6L572.8-32.6ZM598.79-11.1L598.69-8.95 598.99 0 592.24 0 592.54-8.95 592.49-10.85 582.24-32.2 589.44-32.2 590.14-29.95 595.59-17.7 596.04-17.7 602.14-29.75 603.09-32.2 610.04-32.2 598.79-11.1Z" opacity="1" transform="matrix(1,0,0,1,0,0)" fill="#040404" class="wordmark-text-0" data-fill-palette-color="primary" id="text-0"></path></svg></g></svg></g><g transform="matrix(1,0,0,1,163.310208,26.581590357697227)"><svg viewBox="0 0 232.209792 11.20992734531338" height="11.20992734531338" width="232.209792"><g transform="matrix(1,0,0,1,0,0)"><svg width="232.209792" viewBox="0.05000000447034836 -37.54999923706055 798.4600219726562 38.54999923706055" height="11.20992734531338" data-palette-color="#0c0b0b"><path d="M47.3-32.7L47.6-31.1 43.8-29.45 35.4 0.1Q32.25 0.65 29.1 0.6L29.1 0.6 23.7-17.85 22.65-12.05 18.9 0.1 18.85 0.05 18.85 0.1Q15.7 0.65 12.65 0.6L12.65 0.6 3.65-29.8 0.05-30.25 0.1-32.7 14.1-32.7 14.4-31.1 10.15-29.3 15.35-10.25 15.85-4 16.05-4 21.9-23.95 19.9-30.8 25.9-32.25 31.6-10.45 32.2-4 32.35-4 39.3-29.6 34.35-30.25 34.4-32.7 47.3-32.7ZM62.5-12.4L49.75-12.6Q49.75-8.35 51.97-6 54.2-3.65 57.65-3.65L57.65-3.65Q60.35-3.65 64.05-5.35L64.05-5.35 64.95-3 57.15 0.7Q51.35 1 47.62-2.45 43.9-5.9 43.9-11.45L43.9-11.45Q43.9-16.85 47.37-20.73 50.85-24.6 55.8-24.6L55.8-24.6Q60-24.6 62.72-21.98 65.45-19.35 65.4-15.2L65.4-15.2 62.5-12.4ZM53.65-21.2L53.65-21.2Q51-19.7 50.1-15.6L50.1-15.6 59.85-16.1Q59.45-18.4 57.72-19.83 56-21.25 53.65-21.2ZM86.89-18.7L86.89-18.7Q86.89-17.2 88.14-16.28 89.39-15.35 91.99-14.2L91.99-14.2 95.34-12.5Q99.29-10.25 99.29-6.4L99.29-6.4Q99.29-3.15 96.74-1.07 94.19 1 90.14 1L90.14 1Q85.54 1 80.74-1.65L80.74-1.65 82.94-6.75Q87.44-3.5 92.54-2.5L92.54-2.5Q93.74-3.55 93.74-5.05L93.74-5.05Q93.74-6.45 92.72-7.43 91.69-8.4 87.94-10.1 84.19-11.8 82.84-13.43 81.49-15.05 81.49-17.2L81.49-17.2Q81.49-20.6 84.39-22.6 87.29-24.6 91.49-24.6L91.49-24.6Q95.34-24.6 98.34-23.05L98.34-23.05 98.39-23.05 98.44-21.85Q98.44-19.05 97.54-16.4L97.54-16.4 94.29-16.4 93.54-20.6Q90.89-21.45 88.59-21.3L88.59-21.3Q86.89-20.4 86.89-18.7ZM113.09-4.1L113.09-4.1Q114.44-4.1 117.49-5.05L117.49-5.05 118.14-2.65 111.09 0.8Q109.09 0.9 107.29-0.6 105.49-2.1 105.49-3.9L105.49-3.9 105.49-19.15 102.24-19.1 101.94-21.6Q103.99-22.75 105.74-23.35L105.74-23.35 107.94-29.75 110.84-29.75 111.24-23.5 118.24-23.5 118.39-21.7 115.99-19.05 111.34-19.05 111.34-6.65Q111.34-5.25 111.72-4.67 112.09-4.1 113.09-4.1ZM144.44-4.2L145.04-2 139.49 0.8Q138.54 0.7 137.29-0.33 136.04-1.35 135.39-2.75L135.39-2.75 129.89 0.7 128.54 0.8Q125.49 0.8 123.51-1 121.54-2.8 121.54-5.35L121.54-5.35Q121.54-8.95 125.24-10.9L125.24-10.9 134.89-11.15 134.89-15.95Q134.89-19.95 132.49-21.2L132.49-21.2Q129.84-21.1 127.79-20.4L127.79-20.4 127.14-15.1 123.74-14.95Q122.39-17.75 122.49-21.45L122.49-21.45Q124.94-22.7 128.71-23.75 132.49-24.8 134.24-24.8L134.24-24.8Q135.94-24.8 137.61-23.73 139.29-22.65 140.19-21.25L140.19-21.25Q140.74-20.25 140.79-17.45L140.79-17.45 140.79-4.9Q140.79-3.85 142.04-3.85L142.04-3.85 144.44-4.2ZM128.69-3.3L128.69-3.3Q131.09-3.3 134.89-4.8L134.89-4.8 134.89-8.4 133.14-8.45Q127.54-8.45 127.54-5.55L127.54-5.55Q127.54-4.1 128.69-3.3ZM170.69-16.4L170.69-3.6Q172.99-3.1 174.24-2.4L174.24-2.4 173.99 0 162.24 0 162.04-1.7 164.84-2.85 164.84-14.6Q164.84-19.75 161.69-19.75L161.69-19.75Q159.54-19.75 155.39-17.1L155.39-17.1 155.39-3.55Q157.44-3 158.49-2.4L158.49-2.4 158.29 0 146.14 0 145.94-1.7Q147.14-2.35 149.54-3.1L149.54-3.1 149.54-20.35 145.79-20.4 145.29-22.8Q148.74-24.2 153.14-24.45L153.14-24.45 155.39-22.35 155.39-19.5Q161.49-23.85 164.69-24.4L164.69-24.4Q166.19-24.2 167.71-23.25 169.24-22.3 170.04-20.95L170.04-20.95Q170.64-19.85 170.69-16.4L170.69-16.4ZM201.18-4.2L201.78-2 196.23 0.8Q195.18 0.7 193.91-0.45 192.63-1.6 192.03-3.1L192.03-3.1 186.48 0.8Q181.58 0.85 178.36-2.73 175.13-6.3 175.13-11.65L175.13-11.65Q175.13-17.2 178.81-20.9 182.48-24.6 187.98-24.6L187.98-24.6Q189.93-24.6 191.68-24.05L191.68-24.05 191.68-32.65 187.93-32.75 187.43-35.15Q190.88-36.55 195.28-36.8L195.28-36.8 197.53-34.75 197.53-4.9Q197.53-3.85 198.83-3.85L198.83-3.85 201.18-4.2ZM181.28-12.35L181.28-12.35Q181.28-8.8 182.96-6.43 184.63-4.05 187.43-4.05L187.43-4.05Q189.33-4.05 191.68-5.3L191.68-5.3 191.68-19.2Q189.18-20.9 186.18-20.9L186.18-20.9 184.58-20.75Q181.28-17.85 181.28-12.35ZM209.43-18.7L209.43-18.7Q209.43-17.2 210.68-16.28 211.93-15.35 214.53-14.2L214.53-14.2 217.88-12.5Q221.83-10.25 221.83-6.4L221.83-6.4Q221.83-3.15 219.28-1.07 216.73 1 212.68 1L212.68 1Q208.08 1 203.28-1.65L203.28-1.65 205.48-6.75Q209.98-3.5 215.08-2.5L215.08-2.5Q216.28-3.55 216.28-5.05L216.28-5.05Q216.28-6.45 215.26-7.43 214.23-8.4 210.48-10.1 206.73-11.8 205.38-13.43 204.03-15.05 204.03-17.2L204.03-17.2Q204.03-20.6 206.93-22.6 209.83-24.6 214.03-24.6L214.03-24.6Q217.88-24.6 220.88-23.05L220.88-23.05 220.93-23.05 220.98-21.85Q220.98-19.05 220.08-16.4L220.08-16.4 216.83-16.4 216.08-20.6Q213.43-21.45 211.13-21.3L211.13-21.3Q209.43-20.4 209.43-18.7ZM262.08-4.2L262.68-2 257.13 0.8Q256.18 0.7 254.93-0.33 253.68-1.35 253.03-2.75L253.03-2.75 247.53 0.7 246.18 0.8Q243.13 0.8 241.15-1 239.18-2.8 239.18-5.35L239.18-5.35Q239.18-8.95 242.88-10.9L242.88-10.9 252.53-11.15 252.53-15.95Q252.53-19.95 250.13-21.2L250.13-21.2Q247.48-21.1 245.43-20.4L245.43-20.4 244.78-15.1 241.38-14.95Q240.03-17.75 240.13-21.45L240.13-21.45Q242.58-22.7 246.35-23.75 250.13-24.8 251.88-24.8L251.88-24.8Q253.58-24.8 255.25-23.73 256.93-22.65 257.83-21.25L257.83-21.25Q258.38-20.25 258.43-17.45L258.43-17.45 258.43-4.9Q258.43-3.85 259.68-3.85L259.68-3.85 262.08-4.2ZM246.33-3.3L246.33-3.3Q248.73-3.3 252.53-4.8L252.53-4.8 252.53-8.4 250.78-8.45Q245.18-8.45 245.18-5.55L245.18-5.55Q245.18-4.1 246.33-3.3ZM270.57-18.7L270.57-18.7Q270.57-17.2 271.82-16.28 273.07-15.35 275.67-14.2L275.67-14.2 279.02-12.5Q282.97-10.25 282.97-6.4L282.97-6.4Q282.97-3.15 280.42-1.07 277.87 1 273.82 1L273.82 1Q269.22 1 264.42-1.65L264.42-1.65 266.62-6.75Q271.12-3.5 276.22-2.5L276.22-2.5Q277.42-3.55 277.42-5.05L277.42-5.05Q277.42-6.45 276.4-7.43 275.37-8.4 271.62-10.1 267.87-11.8 266.52-13.43 265.17-15.05 265.17-17.2L265.17-17.2Q265.17-20.6 268.07-22.6 270.97-24.6 275.17-24.6L275.17-24.6Q279.02-24.6 282.02-23.05L282.02-23.05 282.07-23.05 282.12-21.85Q282.12-19.05 281.22-16.4L281.22-16.4 277.97-16.4 277.22-20.6Q274.57-21.45 272.27-21.3L272.27-21.3Q270.57-20.4 270.57-18.7ZM323.22-4.2L323.82-2 318.27 0.8Q317.32 0.7 316.07-0.33 314.82-1.35 314.17-2.75L314.17-2.75 308.67 0.7 307.32 0.8Q304.27 0.8 302.29-1 300.32-2.8 300.32-5.35L300.32-5.35Q300.32-8.95 304.02-10.9L304.02-10.9 313.67-11.15 313.67-15.95Q313.67-19.95 311.27-21.2L311.27-21.2Q308.62-21.1 306.57-20.4L306.57-20.4 305.92-15.1 302.52-14.95Q301.17-17.75 301.27-21.45L301.27-21.45Q303.72-22.7 307.49-23.75 311.27-24.8 313.02-24.8L313.02-24.8Q314.72-24.8 316.39-23.73 318.07-22.65 318.97-21.25L318.97-21.25Q319.52-20.25 319.57-17.45L319.57-17.45 319.57-4.9Q319.57-3.85 320.82-3.85L320.82-3.85 323.22-4.2ZM307.47-3.3L307.47-3.3Q309.87-3.3 313.67-4.8L313.67-4.8 313.67-8.4 311.92-8.45Q306.32-8.45 306.32-5.55L306.32-5.55Q306.32-4.1 307.47-3.3ZM346.71-20.4L352.36-24.2 354.26-24.4Q358.26-24.4 360.86-21.05 363.46-17.7 363.46-12.7L363.46-12.7Q363.46-6.75 359.69-2.9 355.91 0.95 350.01 0.95L350.01 0.95Q345.81 0.95 340.81-1.15L340.81-1.15 340.86-1.2 340.86-32.65 337.11-32.75 336.66-35.15Q340.11-36.55 344.51-36.8L344.51-36.8 346.71-34.75 346.71-20.4ZM351.71-2.8L353.51-2.95Q355.31-4.15 356.34-6.53 357.36-8.9 357.36-11.55L357.36-11.55Q357.36-14.85 355.76-17.25 354.16-19.65 351.61-19.65L351.61-19.65Q349.66-19.65 346.71-17.9L346.71-17.9 346.71-4.1Q348.96-2.8 351.71-2.8L351.71-2.8ZM384.06-12.4L371.31-12.6Q371.31-8.35 373.54-6 375.76-3.65 379.21-3.65L379.21-3.65Q381.91-3.65 385.61-5.35L385.61-5.35 386.51-3 378.71 0.7Q372.91 1 369.19-2.45 365.46-5.9 365.46-11.45L365.46-11.45Q365.46-16.85 368.94-20.73 372.41-24.6 377.36-24.6L377.36-24.6Q381.56-24.6 384.29-21.98 387.01-19.35 386.96-15.2L386.96-15.2 384.06-12.4ZM375.21-21.2L375.21-21.2Q372.56-19.7 371.66-15.6L371.66-15.6 381.41-16.1Q381.01-18.4 379.29-19.83 377.56-21.25 375.21-21.2ZM412.46-4.2L413.06-2 407.51 0.8Q406.56 0.7 405.31-0.33 404.06-1.35 403.41-2.75L403.41-2.75 397.91 0.7 396.56 0.8Q393.51 0.8 391.53-1 389.56-2.8 389.56-5.35L389.56-5.35Q389.56-8.95 393.26-10.9L393.26-10.9 402.91-11.15 402.91-15.95Q402.91-19.95 400.51-21.2L400.51-21.2Q397.86-21.1 395.81-20.4L395.81-20.4 395.16-15.1 391.76-14.95Q390.41-17.75 390.51-21.45L390.51-21.45Q392.96-22.7 396.73-23.75 400.51-24.8 402.26-24.8L402.26-24.8Q403.96-24.8 405.63-23.73 407.31-22.65 408.21-21.25L408.21-21.25Q408.76-20.25 408.81-17.45L408.81-17.45 408.81-4.9Q408.81-3.85 410.06-3.85L410.06-3.85 412.46-4.2ZM396.71-3.3L396.71-3.3Q399.11-3.3 402.91-4.8L402.91-4.8 402.91-8.4 401.16-8.45Q395.56-8.45 395.56-5.55L395.56-5.55Q395.56-4.1 396.71-3.3ZM434.36-2.5L427.41 0.7 426.46 0.75Q421.16 0.75 417.86-2.78 414.56-6.3 414.56-11.8L414.56-11.8Q414.56-17.35 417.91-20.98 421.26-24.6 426.36-24.6L426.36-24.6Q431.91-24.6 434.76-20.25L434.76-20.25 430.71-16.6Q427.21-20.3 423.31-21L423.31-21Q420.46-17.7 420.46-12.9L420.46-12.9Q420.46-8.75 422.48-6.15 424.51-3.55 428.11-3.55L428.11-3.55Q430.56-3.55 433.41-4.85L433.41-4.85 434.36-2.5ZM436.1-11.9L436.1-11.9Q436.1-17.5 439.43-21.05 442.75-24.6 447.8-24.6 452.85-24.6 456.08-21.03 459.3-17.45 459.3-11.65L459.3-11.65Q459.3-5.9 456.13-2.45 452.95 1 447.95 1L447.95 1Q442.8 1 439.45-2.63 436.1-6.25 436.1-11.9ZM450.5-3L450.5-3Q453.25-4.85 453.25-11.1L453.25-11.1Q453.25-15.4 451.83-18.18 450.4-20.95 447.45-20.95L447.45-20.95Q445.55-20.95 444.25-20L444.25-20Q442.2-17.45 442.2-12.25L442.2-12.25Q442.2-8.15 443.75-5.4 445.3-2.65 448.4-2.65L448.4-2.65Q449.4-2.65 450.5-3ZM486.4-16.4L486.4-3.6Q488.7-3.1 489.95-2.4L489.95-2.4 489.7 0 477.95 0 477.75-1.7 480.55-2.85 480.55-14.6Q480.55-19.75 477.4-19.75L477.4-19.75Q475.25-19.75 471.1-17.1L471.1-17.1 471.1-3.55Q473.15-3 474.2-2.4L474.2-2.4 474 0 461.85 0 461.65-1.7Q462.85-2.35 465.25-3.1L465.25-3.1 465.25-20.35 461.5-20.4 461-22.8Q464.45-24.2 468.85-24.45L468.85-24.45 471.1-22.35 471.1-19.5Q477.2-23.85 480.4-24.4L480.4-24.4Q481.9-24.2 483.43-23.25 484.95-22.3 485.75-20.95L485.75-20.95Q486.35-19.85 486.4-16.4L486.4-16.4ZM504.85-11.9L504.85-11.9Q504.85-17.5 508.17-21.05 511.5-24.6 516.55-24.6 521.6-24.6 524.82-21.03 528.05-17.45 528.05-11.65L528.05-11.65Q528.05-5.9 524.87-2.45 521.7 1 516.7 1L516.7 1Q511.55 1 508.2-2.63 504.85-6.25 504.85-11.9ZM519.25-3L519.25-3Q522-4.85 522-11.1L522-11.1Q522-15.4 520.57-18.18 519.15-20.95 516.2-20.95L516.2-20.95Q514.3-20.95 513-20L513-20Q510.95-17.45 510.95-12.25L510.95-12.25Q510.95-8.15 512.5-5.4 514.05-2.65 517.15-2.65L517.15-2.65Q518.15-2.65 519.25-3ZM548.44-35.1L545.09-29.9Q542.04-32.85 538.44-32.85L538.44-32.85 537.54-32.8 539.29-23.5 544.69-23.5 544.79-21.75 542.39-19.05 539.14-19.05 539.14-3.75Q542.34-3.15 543.69-2.4L543.69-2.4 543.49 0 530.09 0 529.89-1.7 533.29-3.05 533.29-19.1 529.99-19.05 529.74-21.6 533.29-23.05 533.29-27.95Q533.39-32.1 535.92-34.83 538.44-37.55 542.19-37.55L542.19-37.55Q545.79-37.55 548.44-35.1L548.44-35.1ZM567.74-28.3L567.74-28.3Q564.99-29.45 563.19-31.8L563.19-31.8Q564.69-34.8 566.89-36.35L566.89-36.35Q569.44-35.2 571.24-32.65L571.24-32.65Q570.09-29.85 567.74-28.3ZM570.39-22.45L570.39-3.6Q572.69-3.2 573.94-2.4L573.94-2.4 573.74 0 560.94 0 560.74-1.7Q562.19-2.45 564.54-3.15L564.54-3.15 564.54-20.35 560.79-20.4 560.29-22.8Q563.74-24.2 568.14-24.45L568.14-24.45 570.39-22.45ZM600.88-16.4L600.88-3.6Q603.18-3.1 604.43-2.4L604.43-2.4 604.18 0 592.43 0 592.23-1.7 595.03-2.85 595.03-14.6Q595.03-19.75 591.88-19.75L591.88-19.75Q589.73-19.75 585.58-17.1L585.58-17.1 585.58-3.55Q587.63-3 588.68-2.4L588.68-2.4 588.48 0 576.33 0 576.13-1.7Q577.33-2.35 579.73-3.1L579.73-3.1 579.73-20.35 575.98-20.4 575.48-22.8Q578.93-24.2 583.33-24.45L583.33-24.45 585.58-22.35 585.58-19.5Q591.68-23.85 594.88-24.4L594.88-24.4Q596.38-24.2 597.91-23.25 599.43-22.3 600.23-20.95L600.23-20.95Q600.83-19.85 600.88-16.4L600.88-16.4ZM631.23-16.4L631.23-3.6Q633.53-3.1 634.78-2.4L634.78-2.4 634.53 0 622.78 0 622.58-1.7 625.38-2.85 625.38-14.6Q625.38-19.75 622.23-19.75L622.23-19.75Q620.08-19.75 615.93-17.1L615.93-17.1 615.93-3.55Q617.98-3 619.03-2.4L619.03-2.4 618.83 0 606.68 0 606.48-1.7Q607.68-2.35 610.08-3.1L610.08-3.1 610.08-20.35 606.33-20.4 605.83-22.8Q609.28-24.2 613.68-24.45L613.68-24.45 615.93-22.35 615.93-19.5Q622.03-23.85 625.23-24.4L625.23-24.4Q626.73-24.2 628.26-23.25 629.78-22.3 630.58-20.95L630.58-20.95Q631.18-19.85 631.23-16.4L631.23-16.4ZM635.68-11.9L635.68-11.9Q635.68-17.5 639-21.05 642.33-24.6 647.38-24.6 652.43-24.6 655.65-21.03 658.88-17.45 658.88-11.65L658.88-11.65Q658.88-5.9 655.7-2.45 652.53 1 647.53 1L647.53 1Q642.38 1 639.03-2.63 635.68-6.25 635.68-11.9ZM650.08-3L650.08-3Q652.83-4.85 652.83-11.1L652.83-11.1Q652.83-15.4 651.4-18.18 649.98-20.95 647.03-20.95L647.03-20.95Q645.13-20.95 643.83-20L643.83-20Q641.78-17.45 641.78-12.25L641.78-12.25Q641.78-8.15 643.33-5.4 644.88-2.65 647.98-2.65L647.98-2.65Q648.98-2.65 650.08-3ZM685.13-23.6L685.38-21.55 682.43-20.3Q677.83-7.4 674.88-0.15L674.88-0.15Q673.38 0.35 671.03 0.35L671.03 0.35 668.28 0.15 661.08-20.25 658.18-21.05 658.23-23.6 669.68-23.6 669.93-21.55 667.43-20.5 670.83-9.65 671.58-4.8 672.63-4.8Q674.43-10.75 676.68-20.5L676.68-20.5 674.08-21.05 674.13-23.6 685.13-23.6ZM709.22-4.2L709.82-2 704.27 0.8Q703.32 0.7 702.07-0.33 700.82-1.35 700.17-2.75L700.17-2.75 694.67 0.7 693.32 0.8Q690.27 0.8 688.3-1 686.32-2.8 686.32-5.35L686.32-5.35Q686.32-8.95 690.02-10.9L690.02-10.9 699.67-11.15 699.67-15.95Q699.67-19.95 697.27-21.2L697.27-21.2Q694.62-21.1 692.57-20.4L692.57-20.4 691.92-15.1 688.52-14.95Q687.17-17.75 687.27-21.45L687.27-21.45Q689.72-22.7 693.5-23.75 697.27-24.8 699.02-24.8L699.02-24.8Q700.72-24.8 702.4-23.73 704.07-22.65 704.97-21.25L704.97-21.25Q705.52-20.25 705.57-17.45L705.57-17.45 705.57-4.9Q705.57-3.85 706.82-3.85L706.82-3.85 709.22-4.2ZM693.47-3.3L693.47-3.3Q695.87-3.3 699.67-4.8L699.67-4.8 699.67-8.4 697.92-8.45Q692.32-8.45 692.32-5.55L692.32-5.55Q692.32-4.1 693.47-3.3ZM722.32-4.1L722.32-4.1Q723.67-4.1 726.72-5.05L726.72-5.05 727.37-2.65 720.32 0.8Q718.32 0.9 716.52-0.6 714.72-2.1 714.72-3.9L714.72-3.9 714.72-19.15 711.47-19.1 711.17-21.6Q713.22-22.75 714.97-23.35L714.97-23.35 717.17-29.75 720.07-29.75 720.47-23.5 727.47-23.5 727.62-21.7 725.22-19.05 720.57-19.05 720.57-6.65Q720.57-5.25 720.95-4.67 721.32-4.1 722.32-4.1ZM736.67-28.3L736.67-28.3Q733.92-29.45 732.12-31.8L732.12-31.8Q733.62-34.8 735.82-36.35L735.82-36.35Q738.37-35.2 740.17-32.65L740.17-32.65Q739.02-29.85 736.67-28.3ZM739.32-22.45L739.32-3.6Q741.62-3.2 742.87-2.4L742.87-2.4 742.67 0 729.87 0 729.67-1.7Q731.12-2.45 733.47-3.15L733.47-3.15 733.47-20.35 729.72-20.4 729.22-22.8Q732.67-24.2 737.07-24.45L737.07-24.45 739.32-22.45ZM744.67-11.9L744.67-11.9Q744.67-17.5 747.99-21.05 751.32-24.6 756.37-24.6 761.42-24.6 764.64-21.03 767.87-17.45 767.87-11.65L767.87-11.65Q767.87-5.9 764.69-2.45 761.52 1 756.52 1L756.52 1Q751.37 1 748.02-2.63 744.67-6.25 744.67-11.9ZM759.07-3L759.07-3Q761.82-4.85 761.82-11.1L761.82-11.1Q761.82-15.4 760.39-18.18 758.97-20.95 756.02-20.95L756.02-20.95Q754.12-20.95 752.82-20L752.82-20Q750.77-17.45 750.77-12.25L750.77-12.25Q750.77-8.15 752.32-5.4 753.87-2.65 756.97-2.65L756.97-2.65Q757.97-2.65 759.07-3ZM794.96-16.4L794.96-3.6Q797.26-3.1 798.51-2.4L798.51-2.4 798.26 0 786.51 0 786.31-1.7 789.11-2.85 789.11-14.6Q789.11-19.75 785.96-19.75L785.96-19.75Q783.81-19.75 779.66-17.1L779.66-17.1 779.66-3.55Q781.71-3 782.76-2.4L782.76-2.4 782.56 0 770.41 0 770.21-1.7Q771.41-2.35 773.81-3.1L773.81-3.1 773.81-20.35 770.06-20.4 769.56-22.8Q773.01-24.2 777.41-24.45L777.41-24.45 779.66-22.35 779.66-19.5Q785.76-23.85 788.96-24.4L788.96-24.4Q790.46-24.2 791.99-23.25 793.51-22.3 794.31-20.95L794.31-20.95Q794.91-19.85 794.96-16.4L794.96-16.4Z" opacity="1" transform="matrix(1,0,0,1,0,0)" fill="#0c0b0b" class="slogan-text-1" data-fill-palette-color="secondary" id="text-1"></path></svg></g></svg></g></svg></g></svg></g><g transform="matrix(1,0,0,1,400.596771594371,0)"><svg viewBox="0 0 173.63652932307548 173.63652932307548" height="173.63652932307548" width="173.63652932307548"><g><svg></svg></g><g id="icon-0"><svg viewBox="0 0 173.63652932307548 173.63652932307548" height="173.63652932307548" width="173.63652932307548"><g><rect width="157.88062203264826" height="157.88062203264826" x="7.8779536452136085" y="7.8779536452136085" fill="#1c2e12" data-fill-palette-color="accent"></rect><rect width="157.88062203264826" height="157.88062203264826" x="-8.881784197001252e-16" y="-8.881784197001252e-16" fill="#1c2e12" opacity="0.5" data-fill-palette-color="accent"></rect></g><g transform="matrix(1,0,0,1,22.50843898632459,31.44670746438438)"><svg viewBox="0 0 128.6196513504263 110.74311439430672" height="110.74311439430672" width="128.6196513504263"><g><svg xmlns="http://www.w3.org/2000/svg" xmlns:xlink="http://www.w3.org/1999/xlink" version="1.1" x="0" y="0" viewBox="0.8520021438598633 8.295343399047852 99.14799499511719 85.3676528930664" enable-background="new 0 0 100 100" xml:space="preserve" height="110.74311439430672" width="128.6196513504263" class="icon-s-0" data-fill-palette-color="background" id="s-0"><path d="M92.422 47.256c0.042-0.18 0.066-0.366 0.066-0.555 0-1.759-1.923-3.183-4.296-3.183-0.857 0-1.654 0.187-2.325 0.507-1.106-0.307-2.27-0.537-3.477-0.682-1.048-1.185-2.872-1.969-4.947-1.969-2.636 0-4.868 1.265-5.617 3.009-4.149 1.408-7.342 3.932-8.726 6.997h13.774c-0.003 0.002-0.005 0.003-0.007 0.006-0.992 0.803-3.626 2.15-10.126 2.15-4 0-7.329 1.349-9.897 4.011-1.134 1.176-2.026 2.524-2.73 3.934-0.927-4.731-1.291-11.464 1.908-12.767 9.229-3.76 15.616-11.02 16.367-18.406H100c-2.484-5.501-8.046-10.083-15.315-12.812 0.268-0.471 0.416-0.976 0.416-1.501 0-2.548-3.419-4.613-7.637-4.613-0.788 0-1.548 0.072-2.263 0.206C73.846 9.29 70.513 7.92 66.84 8.386c-4.533 0.575-7.867 3.726-7.447 7.039 0.016 0.121 0.037 0.24 0.063 0.358-5.299 1.131-10.01 3.169-13.743 5.845-0.014-0.003-0.027-0.006-0.041-0.01-0.445-0.604-1.255-1.009-2.183-1.009-0.569 0-1.092 0.154-1.516 0.41-1.205-0.127-2.439-0.194-3.696-0.194-3.123 0-6.105 0.408-8.841 1.147-0.601-0.261-1.287-0.409-2.015-0.409-2.122 0-3.883 1.254-4.231 2.901-1.788 0.988-3.362 2.147-4.671 3.442-1.222-0.589-2.697-0.934-4.287-0.934-4.218 0-7.637 2.421-7.637 5.409 0 0.708 0.194 1.384 0.544 2.004-2.893 1.861-5.088 4.22-6.287 6.877h15.355c0.148 0.893 0.677 2.524 2.538 4.032 2.672 2.162 7.133 3.26 13.261 3.26 2.625 0 4.687 0.81 6.302 2.478 4.16 4.297 3.938 12.68 3.936 12.76l0.013 0.001-1.895 28.043h0.004c0 0.002-0.001 0.003-0.001 0.005 0 1.006 3.964 1.822 8.854 1.822 4.889 0 8.853-0.816 8.853-1.822 0-0.002-0.001-0.003-0.001-0.005h0.001l-1.346-21.651c0.362-2.825 1.3-6.695 3.715-9.189 1.615-1.668 3.677-2.479 6.303-2.479 6.127 0 10.588-1.096 13.259-3.26 1.76-1.424 2.33-2.959 2.511-3.877h13.243C95.062 49.846 93.914 48.448 92.422 47.256zM40.499 35.335c-1.527-1.16-3.301-2.167-5.266-2.98h4.82C40.14 33.398 40.289 34.392 40.499 35.335zM46.671 48.437c-0.568 1.612-0.906 3.462-1.012 5.522-0.792-2.259-1.979-4.53-3.758-6.374-2.568-2.662-5.897-4.012-9.896-4.012-5.521 0-8.261-0.964-9.588-1.773-0.309-0.188-0.543-0.37-0.723-0.536H43.09c0.425 0.583 0.891 1.127 1.401 1.634 1.161 1.152 2.422 1.981 3.65 2.579C47.549 46.36 47.055 47.348 46.671 48.437zM51.071 42.516c-1.246-0.431-2.644-1.15-3.859-2.356-1.852-1.84-2.951-4.458-3.282-7.804h17.267c-0.317-0.704-0.705-1.387-1.154-2.046h4.414c-0.352 1.653-1.274 3.41-2.688 5.078-2.127 2.512-5.138 4.608-8.707 6.062C52.352 41.738 51.688 42.097 51.071 42.516z" fill="#eaf1ed" data-fill-palette-color="background"></path></svg></g></svg></g></svg></g></svg></g></svg></g><defs></defs></svg><rect width="395.52" height="119.59724378251617" fill="none" stroke="none" visibility="hidden"></rect></g></svg></g></svg>