<svg xmlns="http://www.w3.org/2000/svg" version="1.1" xmlns:xlink="http://www.w3.org/1999/xlink" xmlns:svgjs="http://svgjs.dev/svgjs" width="1000" height="131" viewBox="0 0 1000 131"><g transform="matrix(1,0,0,1,-0.6060606060606233,-0.17585403866563354)"><svg viewBox="0 0 396 52" data-background-color="#4d7e3e" preserveAspectRatio="xMidYMid meet" height="131" width="1000" xmlns="http://www.w3.org/2000/svg" xmlns:xlink="http://www.w3.org/1999/xlink"><g id="tight-bounds" transform="matrix(1,0,0,1,0.2400000000000091,0.06980527466316744)"><svg viewBox="0 0 395.52 51.86038966899421" height="51.86038966899421" width="395.52"><g><svg viewBox="0 0 806.8032666699157 105.78765118254267" height="51.86038966899421" width="395.52"><g><svg viewBox="0 0 806.8032666699157 105.78765118254267" height="105.78765118254267" width="806.8032666699157"><g id="textblocktransform"><svg viewBox="0 0 806.8032666699157 105.78765118254267" height="105.78765118254267" width="806.8032666699157" id="textblock"><g><svg viewBox="0 0 806.8032666699157 79.6056" height="79.6056" width="806.8032666699157"><g><svg><g></g><g></g></svg></g><g><svg><g><svg></svg></g><g></g></svg></g><g id="text-0"><svg viewBox="0 0 806.8032666699157 79.6056" height="79.6056" width="806.8032666699157"><g transform="matrix(1,0,0,1,0,16.802799999999994)"><svg width="342.20000000000005" viewBox="3.049999952316284 -26.149999618530273 342.1800231933594 31.75" height="31.750000000000007" data-palette-color="#c9efc7"><path d="M34.5-0.4L34.5-0.4 34.5 0 22.9 0Q22.7-2.75 22.05-5.9L22.05-5.9Q18.55-2.4 15.05 0L15.05 0 3.4 0Q3.05-2.05 3.05-5.43 3.05-8.8 4.05-12.2L4.05-12.2Q7.65-13.25 10.98-15.75 14.3-18.25 15.8-21.15L15.8-21.15Q14.4-23.35 12.95-25L12.95-25 29.55-25Q34.5-14.15 34.5-0.4ZM21.15-9.55L21.15-9.55Q19.9-13.85 17.75-17.95L17.75-17.95Q15.4-11.05 15.05-4.9L15.05-4.9Q18.75-6.9 21.15-9.55ZM57.85-21.95L57.85-21.95Q56.1-22.25 54.47-22.25 52.85-22.25 50.55-21.7L50.55-21.7Q49.8-18.55 49.8-15.55L49.8-15.55Q49.8-7.8 56.7-3.65L56.7-3.65Q61.3-6.7 65-11.25L65-11.25Q65.15-9.25 65.25-5.15L65.25-5.15Q61.55-2.25 57.7-0.6 53.85 1.05 48.1 1.05L48.1 1.05 46.95 1.05Q42.45-0.9 39.87-4.7 37.3-8.5 37.3-12.7L37.3-12.7Q37.3-18.3 41.9-22.23 46.5-26.15 55.25-26.15L55.25-26.15Q60.15-26.15 65.5-24.9L65.5-24.9Q64.7-21.75 63.5-18.95L63.5-18.95Q60.35-18.65 57-18.65L57-18.65Q57.5-20.05 57.85-21.95ZM93.5-25L99.9-25Q100.09-21.75 100.09-15.53 100.09-9.3 99.3-2.25L99.3-2.25Q94.09 1.1 86.84 1.1L86.84 1.1Q77.2 1.1 71.25-2.25L71.25-2.25Q70.59-7.65 70.59-12.73 70.59-17.8 71.34-25L71.34-25 84.8-25Q82.8-14.15 82.7-4.15L82.7-4.15Q84.8-2.25 88.75-2.25 92.7-2.25 94.8-3.65L94.8-3.65Q94.9-5.3 94.9-8.4L94.9-8.4Q94.9-16.3 93.5-25L93.5-25ZM105.59-25L119.09-25 119.09-23.65Q119.09-10.45 117.44 0L117.44 0 105.44 0Q106.39-4.6 106.39-10.63 106.39-16.65 105.59-25L105.59-25ZM145.44-21.75L145.44-21.75Q144.14-13.85 144.14-8.85 144.14-3.85 144.54 0L144.54 0 133.64 0Q131.94-7.95 131.94-17.1L131.94-17.1Q131.94-18.65 132.04-21.75L132.04-21.75Q127.79-20.5 126.84-16L126.84-16 121.89-16.3 123.69-25 156.94-25Q155.94-19.5 154.64-16L154.64-16 149.59-16.3Q149.79-17.1 149.79-17.9L149.79-17.9Q149.79-19.85 148.59-20.8 147.39-21.75 145.44-21.75ZM183.59-25L189.99-25Q190.19-21.75 190.19-15.53 190.19-9.3 189.39-2.25L189.39-2.25Q184.19 1.1 176.94 1.1L176.94 1.1Q167.29 1.1 161.34-2.25L161.34-2.25Q160.69-7.65 160.69-12.73 160.69-17.8 161.44-25L161.44-25 174.89-25Q172.89-14.15 172.79-4.15L172.79-4.15Q174.89-2.25 178.84-2.25 182.79-2.25 184.89-3.65L184.89-3.65Q184.99-5.3 184.99-8.4L184.99-8.4Q184.99-16.3 183.59-25L183.59-25ZM213.29-22L213.29-22Q211.29-22.3 209.01-22.3 206.74-22.3 204.59-22L204.59-22Q205.94-19.7 207.79-18.25 209.64-16.8 212.46-15.38 215.29-13.95 217.06-12.75 218.84-11.55 220.99-8.8 223.14-6.05 223.69-3.05L223.69-3.05Q221.29 0.05 217.34 2.43 213.39 4.8 209.24 5.6L209.24 5.6Q206.44 5.35 202.16 4.03 197.89 2.7 195.74 2.7 193.59 2.7 191.44 4.05L191.44 4.05Q192.34 1.5 194.39-2.35L194.39-2.35 194.79-2.35Q197.99-2.35 200.81-1.35 203.64-0.35 205.96 0.65 208.29 1.65 209.71 1.65 211.14 1.65 211.79 1.45L211.79 1.45Q211.79-1.85 209.74-4L209.74-4Q208.64-5.15 207.86-5.78 207.09-6.4 205.49-7.5L205.49-7.5 204.64-8.1Q201.24-10.45 199.04-12.88 196.84-15.3 195.84-18.85L195.84-18.85Q197.44-22.4 198.99-25L198.99-25Q203.74-26.15 208.84-26.15L208.84-26.15 211.04-26.15Q215.34-26.15 220.89-24.95L220.89-24.95Q220.09-21.65 218.94-19L218.94-19Q214.74-18.7 212.44-18.7L212.44-18.7Q212.89-19.85 213.29-22ZM228.53-15.25L228.53-15.25 231.88-15.2Q239.58-15.2 242.18-16.05L242.18-16.05Q240.58-13.45 238.43-11.2L238.43-11.2 236.93-11.2Q229.38-11.2 224.48-12.25L224.48-12.25 225.23-12.9Q227.38-14.8 228.53-15.25ZM258.68-26.15L258.68-26.15Q268.33-26.15 274.38-23.75L274.38-23.75Q276.53-19.45 276.53-15.05L276.53-15.05Q276.53-9.4 272.68-5.25L272.68-5.25Q267.08 0.7 257.53 0.7L257.53 0.7Q254.23 0.7 248.58-0.05L248.58-0.05Q246.63-10.1 246.63-18.6L246.63-18.6Q246.63-21.55 246.93-25L246.93-25Q254.98-26.15 258.68-26.15ZM260.18-22.4L260.18-22.4Q259.28-13 259.28-8.93 259.28-4.85 259.43-2.3L259.43-2.3Q262.13-3.75 263.66-7.18 265.18-10.6 265.18-14.13 265.18-17.65 263.91-19.9 262.63-22.15 260.18-22.4ZM305.33-25L311.73-25Q311.93-21.75 311.93-15.53 311.93-9.3 311.13-2.25L311.13-2.25Q305.93 1.1 298.68 1.1L298.68 1.1Q289.03 1.1 283.08-2.25L283.08-2.25Q282.43-7.65 282.43-12.73 282.43-17.8 283.18-25L283.18-25 296.63-25Q294.63-14.15 294.53-4.15L294.53-4.15Q296.63-2.25 300.58-2.25 304.53-2.25 306.63-3.65L306.63-3.65Q306.73-5.3 306.73-8.4L306.73-8.4Q306.73-16.3 305.33-25L305.33-25ZM320.03-0.15L320.03-0.15Q315.58-5.85 315.58-11.85 315.58-17.85 320.58-22 325.58-26.15 333.38-26.15L333.38-26.15Q337.53-26.15 341.63-24.9L341.63-24.9Q345.23-20.35 345.23-15.15L345.23-15.15Q345.23-8.6 339.88-3.75 334.53 1.1 326.93 1.1L326.93 1.1Q323.68 1.1 320.03-0.15ZM327.63-21.8L327.63-21.8Q325.88-18.8 325.88-14.75 325.88-10.7 327.65-7.28 329.43-3.85 332.53-2.35L332.53-2.35Q334.88-5.35 334.88-9.3 334.88-13.25 332.95-16.65 331.03-20.05 327.63-21.8Z" opacity="1" transform="matrix(1,0,0,1,0,0)" fill="#c9efc7" class="undefined-p-0"></path></svg></g><g><svg xmlns="http://www.w3.org/2000/svg" xmlns:xlink="http://www.w3.org/1999/xlink" xmlns:a="http://ns.adobe.com/AdobeSVGViewerExtensions/3.0/" version="1.1" x="360.99440000000004" y="0" viewBox="0.0019477009773254395 0.0005591233493760228 83.9830322265625 90.32720184326172" enable-background="new -8.009 -5 100 100" xml:space="preserve" height="79.6056" width="74.0144666699157" class="icon-s-0" data-fill-palette-color="accent" id="s-0"><path fill="#0a1511" d="M33.957 0.026c-0.477 0.298-1.199 0.424-1.74 0.606-0.299-0.11-0.596-0.224-0.891-0.342-0.198 0.119-0.394 0.241-0.59 0.363-0.077-0.136-0.155-0.271-0.235-0.406-0.324 0.119-0.646 0.237-0.972 0.354-0.096 0.035-0.587 0.287-0.667 0.191-0.114-0.137-0.212-0.291-0.314-0.437-1.392 0.157-2.794 0.241-4.19 0.352-0.165 0.132-0.329 0.266-0.494 0.397C23.72 1.222 23.564 1.38 23.39 1.456c-0.128 0.056-0.279-0.047-0.413-0.04-0.375 0.022-0.907 0.492-1.227 0.692-0.229 0.144-0.458 0.288-0.687 0.432-0.393-0.227-0.756-0.496-1.226-0.489-0.478 0.008-0.957 0.047-1.434 0.07-0.149-0.155-0.958-1.138-1.071-0.982-0.548 0.669-1.061 1.372-1.589 2.057-0.931 0.467-1.953 0.876-2.827 1.439-0.229 0.16-0.191 0.596-0.333 0.831-0.188 0.313-0.673 0.692-0.729 1.059-0.074 0.44-0.082 0.901-0.117 1.347-0.591 0.656-1.209 1.468-2.019 1.851-0.286 0.135-0.619 0.37-0.939 0.384-0.372 0.017-0.868-0.047-1.216 0.069-0.232 0.058-0.557 0.841-0.674 1.04-0.168 0.282-0.336 0.564-0.504 0.847-0.112 0.007-0.723-0.005-0.757 0.063-0.124 0.124-0.204 0.366-0.286 0.518-0.217 0.396-0.434 0.794-0.65 1.191-0.202 0.371-0.335 0.575-0.688 0.79-0.222 0.135-0.438 0.278-0.655 0.421-0.136 0.273-0.272 0.545-0.409 0.819-0.17 0.341-0.33 0.919-0.62 1.168-0.181 0.113-0.66 0.359-0.71 0.581-0.11 0.493-0.13 0.936-0.102 1.435 0.021 0.367 0.219 0.49 0.486 0.719 0.017 0.228 0.035 0.455 0.055 0.682-0.139 0.203-0.277 0.407-0.414 0.611 0.097 0.246 0.197 0.491 0.297 0.736-0.186 1.013-0.465 1.981-0.76 2.969-0.143 0.479-0.254 0.857-0.522 1.274-0.158 0.245-0.774 0.905-0.625 1.181 0.2 0.429 0.505 0.831 0.757 1.233-0.191 0.241-0.382 0.482-0.573 0.724 0 0.319 0 0.638 0 0.958 0.313 0.349 0.624 0.701 0.932 1.055 0.185 0.212 0.747 1.122 1.042 1.073 0.118-0.017 0.118-0.013 0.118 0.246v0.264c0.417 0.335 0.828 0.72 1.279 1.008 0.162 0.099 0.099 0.41 0.141 0.568 0.045 0.166 0.189 0.307 0.298 0.435C4.009 35.151 4 35.52 3.992 35.887c0.86 0.779 1.718 1.561 2.581 2.337 0.378 0.341 0.778 0.482 1.106 0.883 0.288 0.353 0.563 0.749 0.909 1.048 0.294 0.254 0.736 0.409 1.08 0.583 0.48 0.246 0.878 0.506 1.429 0.42 0.839-0.131 1.655-0.424 2.479-0.625 0.903-0.22 1.852-0.173 2.775-0.197 0.214 0.086 0.428 0.172 0.643 0.258 0.249 0.1 0.68 0.378 0.947 0.344 0.216 0 0.542-0.229 0.73-0.317 0.457-0.21 0.91-0.427 1.361-0.649 0.318-0.156 0.546-0.173 0.882-0.227 0.438-0.07 0.783-0.399 1.16-0.606 0.481-0.264 1.083-0.277 1.616-0.256 0.786 0.03 1.572 0.071 2.355 0.131 0.404 0.445 0.653 0.901 0.909 1.448 0.215 0.46 0.444 0.728 0.819 1.058 0.498-0.006 1.023 0.03 1.516-0.054 0.085-0.015 1.755-0.195 1.583-0.452 0.249 0.316 0.535 0.608 0.811 0.901 0.033 0.036 0.17 0.227 0.227 0.227 0.12 0 0.35-0.286 0.439-0.367 0.089 0.075 0.178 0.15 0.268 0.226l-0.134 0.142c-0.276 0.301-0.276 0.276-0.049 0.502l0.205 0.209c-0.103 0.983-0.245 1.867-0.715 2.752l0.163 0.158c0.155 0.15 0.159 0.163 0.134 0.348-0.076 0.475-0.256 0.944-0.392 1.405-0.029 0.097-0.039 0.273-0.134 0.331-0.128 0.08-0.276 0.102-0.284 0.275-0.028 0.653 0.583 1.302 0.918 1.815 0.529 0.813 1.256 1.489 1.92 2.19 0.627 0.662 1.049 1.288 1.323 2.158 0.287 0.913 0.764 1.751 1.164 2.618 0.268 0.582 0.36 0.925 0.259 1.533-0.183 1.086 0.384 1.99 0.809 2.941-0.028 0.326-0.058 0.652-0.088 0.978-0.521 0.597-1.041 1.192-1.564 1.786-0.091 0.519-0.15 1.057-0.297 1.562-0.145 0.502-0.382 0.985-0.582 1.467 0.024 0.747-0.049 1.58 0.148 2.303 0.266 0.971 0.994 1.79 1.367 2.723 0.213 0.534 0.58 1.028 0.877 1.515 0.422 0.688 0.847 1.373 1.271 2.058 0 0.662 0 1.325 0 1.987 0.265 0.423 0.267 0.813 0.322 1.311 0.084 0.756 0.198 1.413 0.585 2.072 0.634 1.08 1.487 1.995 2.217 3.011-0.014 0.225-0.027 0.45-0.038 0.675 0.464 0.794 0.891 1.824 1.523 2.487 0.162 0.167 0.162 0.176-0.013 0.222-0.079 0.017-0.131 0.071-0.181 0.188l-0.063 0.167c-0.176 0.009-0.35 0.018-0.525 0.025l0.012 0.125c0.04 0.534 0.503 0.877 0.852 1.242 0.268 0.277 0.533 0.556 0.8 0.832 0.11-0.016 0.221-0.034 0.331-0.054l-0.018 0.139c-0.013 0.158-0.029 0.153 0.363 0.079 0.47-0.1 0.767-0.235 1.264-0.247 0.347-0.009 0.691-0.017 1.037-0.025 0.247-0.161 0.496-0.321 0.744-0.481 0.447-0.004 0.901 0.01 1.347-0.037 0.424-0.049 0.795 0.206 1.167 0.381 0.107-0.13 0.213-0.262 0.317-0.394 0.225-0.265 1.207-0.202 1.506-0.222 0.553-0.033 0.979-0.303 1.444-0.586 0.727-0.44 1.476-0.975 2.076-1.583 0.686-0.695 1.321-1.472 1.874-2.276 0.142-0.207 0.534-0.617 0.544-0.882 0.013-0.263 0.763-0.505 0.982-0.611 0.308-0.683 0.604-1.326 1.07-1.915-0.038-0.56-0.098-1.116-0.166-1.672 0.156-0.282 0.274-0.639 0.59-0.767 0.993-0.406 1.986-0.813 2.981-1.218 0.063-0.372 0.126-0.743 0.189-1.115 0.078-0.462 0.048-0.783-0.019-1.252-0.076-0.543-0.133-1.066-0.358-1.571-0.277-0.619-0.233-1.096-0.173-1.765 0.005-0.085 0.022-0.089 0.227-0.063 0.116 0.017 0.259 0.042 0.313 0.055 0.156 0.036 0.092-0.413 0.092-0.519 0.482-0.215 0.857-0.461 1.258-0.813 0.748-0.66 1.505-1.261 2.423-1.666 0.41-0.18 0.812-0.38 1.212-0.581 0.325-0.163 0.751-0.304 1.033-0.534 0.444-0.363 0.807-0.858 1.185-1.29 0-0.746 0.01-1.493-0.047-2.237-0.058-0.702 0.091-1.358 0.218-2.045-0.125-0.231-0.25-0.462-0.373-0.694 0.088-0.505 0.174-1.009 0.26-1.514-0.319-0.309-0.638-0.616-0.958-0.925-0.186-0.677-0.365-1.354-0.513-2.043-0.101-0.466 0.076-0.985 0.158-1.453-0.212-0.585-0.424-1.17-0.636-1.757 0.248-0.51 0.361-0.876 0.335-1.446 0.157 0.056 0.308 0.126 0.455 0.204 0.313-0.451 0.625-0.902 0.937-1.354-0.011-0.294-0.021-0.588-0.034-0.883 1.379-0.751 2.264-2.258 3.228-3.467 0.341-0.428 0.672-0.86 1.014-1.288 0.31-0.279 0.677-0.513 1.013-0.756 0.831-0.582 1.541-1.307 2.262-2.018 0.254-0.252 0.509-0.503 0.763-0.754 0.151-0.148 0.394-0.313 0.494-0.5 0.317-0.582 0.635-1.164 0.951-1.746 1.028-1.888 1.963-3.778 2.668-5.819 0.129-0.374 0.241-0.752 0.35-1.132 0.052-0.179 0.191-0.451 0.177-0.637-0.021-0.276-0.044-0.551-0.065-0.827-0.015-0.182 0.039-0.841-0.096-0.977-0.066-0.099-0.555-0.128-0.687-0.155-0.395 0.304-0.791 0.606-1.188 0.907-0.484-0.014-1.049 0.041-1.519-0.067-0.204-0.04-0.167 0.5-0.179 0.64-0.368-0.05-0.736-0.1-1.104-0.15-0.246 0.257-0.487 0.517-0.724 0.782-0.268-0.021-0.911-0.19-1.125-0.017-0.157 0.126-0.319 0.245-0.481 0.364-0.432-0.043-0.864-0.096-1.297-0.127-0.261-0.019-0.511-0.381-0.697-0.541-0.19-0.162-0.344-0.172-0.585-0.172h-0.382c0-0.216 0.001-0.432 0.005-0.648 0.188-0.132 0.377-0.265 0.564-0.397-0.026-0.251-0.05-0.502-0.067-0.753 0-0.305-0.973-0.753-1.21-0.935-0.565-0.436-1.056-0.959-1.607-1.41-0.341-0.277-0.774-0.368-1.125-0.628-0.561-0.416-1.063-0.907-1.615-1.334-0.088-0.066-0.121-0.43-0.145-0.527-0.09-0.367-0.17-0.735-0.261-1.102-0.09-0.366-0.196-0.521-0.498-0.734-0.472-0.348-0.921-0.75-1.422-1.054-0.245-0.148-0.42-0.733-0.552-0.995-0.016-0.553-0.031-1.105-0.045-1.658-0.014-0.472-0.356-1.004-0.541-1.438-0.523-0.38-1.035-0.796-1.593-1.125-0.017-0.341 0.083-1.06-0.144-1.326-0.768-0.909-1.411-1.968-2.103-2.939-0.084-0.001-0.319 0.027-0.376-0.03-0.08-0.079-0.091-0.367-0.123-0.481-0.077-0.27-0.158-0.539-0.266-0.798-0.155-0.379-0.443-0.688-0.691-1.01-0.376-0.489-0.747-0.981-1.12-1.471 0.025-0.036 0.215-0.303 0.255-0.264 0.313 0.312 0.462 0.649 0.898 0.795 0.015 0.22 0.028 0.44 0.043 0.661 0.387 0.294 0.914 0.875 1.362 1.024 0.13 0 0.246-1.592 0.237-1.826-0.018-0.41-0.052-0.821-0.077-1.23-0.147-0.194-0.76-1.209-0.95-1.209-0.752 0-1.511 0.178-2.262 0.217-0.276 0.025-0.158-0.472-0.31-0.472-0.457 0-0.722 1.122-0.862 1.447-0.08-0.219-0.424-1.474-0.653-1.365-0.519 0.246-1.019 0.536-1.525 0.805-0.35-0.138-0.699-0.276-1.05-0.414-0.352-0.138-0.724-0.125-1.1-0.152-0.733-0.054-1.467-0.11-2.199-0.166l-0.155-0.259c-0.273-0.475-0.989-0.342-1.469-0.381-0.437-0.035-0.623-0.188-0.965-0.476-0.188-0.159-0.42-0.429-0.686-0.443-0.313 0-0.626-0.034-0.938-0.054-0.577 0.421-1.301 0.816-1.803 1.317-0.1 0.1 0.155 1.087 0.185 1.275-0.335 0.381-0.538 0.767-1.079 0.757-0.48-0.013-0.623-0.029-0.656-0.08-0.186-0.248-0.596-0.424-0.852-0.598-0.209-0.142-0.42-0.284-0.63-0.427-0.234-0.028-1.485-0.06-1.567-0.226-0.11-0.437-0.493-0.927-0.711-1.33-0.516-0.056-0.836-0.088-1.226-0.443-0.563 0.019-1.126 0.038-1.69 0.054-0.32-0.128-0.9-0.248-1.138-0.485-0.137-0.118-0.34-0.903-0.501-0.903-0.14 0-0.404 0.244-0.527 0.326-0.194-0.142-0.39-0.284-0.584-0.426 0.459-0.376 0.902-0.772 1.35-1.163 0.013-0.514-0.323-0.905-0.38-1.422 0.253-0.259 0.507-0.519 0.761-0.778-0.217-0.376-0.265-0.487-0.674-0.238-0.191 0.113-0.31 0.241-0.412 0.016-0.066-0.146-0.171-0.618-0.323-0.694C34.036-0.003 33.99 0.005 33.957 0.026 33.923 0.047 33.99 0.005 33.957 0.026z" data-fill-palette-color="accent"></path></svg></g><g transform="matrix(1,0,0,1,453.80326666991573,13.602799999999998)"><svg width="353.00000000000006" viewBox="1.9000000953674316 -29.350000381469727 352.9800109863281 49.20000076293945" height="49.2" data-palette-color="#c9efc7"><path d="M22.45-21.95L22.45-21.95Q20.7-22.25 19.07-22.25 17.45-22.25 15.15-21.7L15.15-21.7Q14.4-18.55 14.4-15.55L14.4-15.55Q14.4-7.8 21.3-3.65L21.3-3.65Q25.9-6.7 29.6-11.25L29.6-11.25Q29.75-9.25 29.85-5.15L29.85-5.15Q26.15-2.25 22.3-0.6 18.45 1.05 12.7 1.05L12.7 1.05 11.55 1.05Q7.05-0.9 4.48-4.7 1.9-8.5 1.9-12.7L1.9-12.7Q1.9-18.3 6.5-22.23 11.1-26.15 19.85-26.15L19.85-26.15Q24.75-26.15 30.1-24.9L30.1-24.9Q29.3-21.75 28.1-18.95L28.1-18.95Q24.95-18.65 21.6-18.65L21.6-18.65Q22.1-20.05 22.45-21.95ZM37.75-0.15L37.75-0.15Q33.3-5.85 33.3-11.85 33.3-17.85 38.3-22 43.3-26.15 51.1-26.15L51.1-26.15Q55.25-26.15 59.35-24.9L59.35-24.9Q62.95-20.35 62.95-15.15L62.95-15.15Q62.95-8.6 57.6-3.75 52.25 1.1 44.65 1.1L44.65 1.1Q41.4 1.1 37.75-0.15ZM45.35-21.8L45.35-21.8Q43.6-18.8 43.6-14.75 43.6-10.7 45.37-7.28 47.15-3.85 50.25-2.35L50.25-2.35Q52.6-5.35 52.6-9.3 52.6-13.25 50.67-16.65 48.75-20.05 45.35-21.8ZM90.84-25L96.8-25Q97.09-19.75 97.09-13.93 97.09-8.1 96.59 0L96.59 0 91.8 0Q82.09-5.2 74-14.15L74-14.15Q74.4-10.8 74.4-7.28 74.4-3.75 74.15 0L74.15 0 68.3 0Q69.3-6.15 69.3-11.38 69.3-16.6 68.8-19.65L68.8-19.65Q66.8-22.65 65.65-25L65.65-25 79.84-25Q81.95-21.4 85.57-17.57 89.2-13.75 92.5-11.6L92.5-11.6Q92.5-18.9 90.84-25L90.84-25ZM121.39-22L121.39-22Q119.39-22.3 117.12-22.3 114.84-22.3 112.69-22L112.69-22Q114.04-19.7 115.89-18.25 117.74-16.8 120.57-15.38 123.39-13.95 125.17-12.75 126.94-11.55 129.09-8.8 131.24-6.05 131.79-3.05L131.79-3.05Q129.39 0.05 125.44 2.43 121.49 4.8 117.34 5.6L117.34 5.6Q114.54 5.35 110.27 4.03 105.99 2.7 103.84 2.7 101.69 2.7 99.54 4.05L99.54 4.05Q100.44 1.5 102.49-2.35L102.49-2.35 102.89-2.35Q106.09-2.35 108.92-1.35 111.74-0.35 114.07 0.65 116.39 1.65 117.82 1.65 119.24 1.65 119.89 1.45L119.89 1.45Q119.89-1.85 117.84-4L117.84-4Q116.74-5.15 115.97-5.78 115.19-6.4 113.59-7.5L113.59-7.5 112.74-8.1Q109.34-10.45 107.14-12.88 104.94-15.3 103.94-18.85L103.94-18.85Q105.54-22.4 107.09-25L107.09-25Q111.84-26.15 116.94-26.15L116.94-26.15 119.14-26.15Q123.44-26.15 128.99-24.95L128.99-24.95Q128.19-21.65 127.04-19L127.04-19Q122.84-18.7 120.54-18.7L120.54-18.7Q120.99-19.85 121.39-22ZM138.14-0.15L138.14-0.15Q133.69-5.85 133.69-11.85 133.69-17.85 138.69-22 143.69-26.15 151.49-26.15L151.49-26.15Q155.64-26.15 159.74-24.9L159.74-24.9Q163.34-20.35 163.34-15.15L163.34-15.15Q163.34-8.6 157.99-3.75 152.64 1.1 145.04 1.1L145.04 1.1Q141.79 1.1 138.14-0.15ZM145.74-21.8L145.74-21.8Q143.99-18.8 143.99-14.75 143.99-10.7 145.77-7.28 147.54-3.85 150.64-2.35L150.64-2.35Q152.99-5.35 152.99-9.3 152.99-13.25 151.06-16.65 149.14-20.05 145.74-21.8ZM178.59-3.85Q180.94-3.3 183.09-3.3 185.24-3.3 186.51-4.28 187.79-5.25 188.39-7.65L188.39-7.65 194.39-7.45Q193.64-2.95 192.39 0L192.39 0 167.84 0Q166.89-6.4 166.89-13.25 166.89-20.1 167.59-25L167.59-25 181.99-25Q178.69-12.35 178.59-3.85L178.59-3.85ZM212.34-21.75L212.34-21.75Q211.04-13.85 211.04-8.85 211.04-3.85 211.44 0L211.44 0 200.54 0Q198.84-7.95 198.84-17.1L198.84-17.1Q198.84-18.65 198.94-21.75L198.94-21.75Q194.69-20.5 193.74-16L193.74-16 188.79-16.3 190.59-25 223.84-25Q222.84-19.5 221.54-16L221.54-16 216.49-16.3Q216.69-17.1 216.69-17.9L216.69-17.9Q216.69-19.85 215.49-20.8 214.29-21.75 212.34-21.75ZM250.83-0.4L250.83-0.4 250.83 0 239.23 0Q239.03-2.75 238.38-5.9L238.38-5.9Q234.88-2.4 231.38 0L231.38 0 219.73 0Q219.38-2.05 219.38-5.43 219.38-8.8 220.38-12.2L220.38-12.2Q223.98-13.25 227.31-15.75 230.63-18.25 232.13-21.15L232.13-21.15Q230.73-23.35 229.28-25L229.28-25 245.88-25Q250.83-14.15 250.83-0.4ZM237.48-9.55L237.48-9.55Q236.23-13.85 234.08-17.95L234.08-17.95Q231.73-11.05 231.38-4.9L231.38-4.9Q235.08-6.9 237.48-9.55ZM278.08-25L284.03-25Q284.33-19.75 284.33-13.93 284.33-8.1 283.83 0L283.83 0 279.03 0Q269.33-5.2 261.23-14.15L261.23-14.15Q261.63-10.8 261.63-7.28 261.63-3.75 261.38 0L261.38 0 255.53 0Q256.53-6.15 256.53-11.38 256.53-16.6 256.03-19.65L256.03-19.65Q254.03-22.65 252.88-25L252.88-25 267.08-25Q269.18-21.4 272.81-17.57 276.43-13.75 279.73-11.6L279.73-11.6Q279.73-18.9 278.08-25L278.08-25ZM309.93-21.95L309.93-21.95Q308.18-22.25 306.55-22.25 304.93-22.25 302.63-21.7L302.63-21.7Q301.88-18.55 301.88-15.55L301.88-15.55Q301.88-7.8 308.78-3.65L308.78-3.65Q313.38-6.7 317.08-11.25L317.08-11.25Q317.23-9.25 317.33-5.15L317.33-5.15Q313.63-2.25 309.78-0.6 305.93 1.05 300.18 1.05L300.18 1.05 299.03 1.05Q294.53-0.9 291.95-4.7 289.38-8.5 289.38-12.7L289.38-12.7Q289.38-18.3 293.98-22.23 298.58-26.15 307.33-26.15L307.33-26.15Q312.23-26.15 317.58-24.9L317.58-24.9Q316.78-21.75 315.58-18.95L315.58-18.95Q312.43-18.65 309.08-18.65L309.08-18.65Q309.58-20.05 309.93-21.95ZM352.08-24.05L352.08-24.05Q350.38-23.65 349.23-23.65 348.08-23.65 347.03-23.8L347.03-23.8Q345.48-21.95 344.23-18.85 342.98-15.75 342.35-13.3 341.73-10.85 340.98-7.3L340.98-7.3Q337.18 10.8 333.38 18.4L333.38 18.4Q330.88 19.15 327.18 19.85L327.18 19.85Q332.18 11.3 335.28 0L335.28 0 324.93 0Q320.98-12.8 320.83-25L320.83-25 335.43-25Q334.38-20.35 334.38-15.13 334.38-9.9 336.08-3.2L336.08-3.2Q336.43-4.55 337.28-7.93 338.13-11.3 338.53-12.75 338.93-14.2 339.75-16.85 340.58-19.5 341.25-20.83 341.93-22.15 342.93-23.8L342.93-23.8Q344.73-26.75 347.68-27.8L347.68-27.8Q348.53-28.05 351.13-28.33 353.73-28.6 354.88-29.35L354.88-29.35Q353.53-26.25 352.08-24.05Z" opacity="1" transform="matrix(1,0,0,1,0,0)" fill="#c9efc7" class="undefined-p-1"></path></svg></g></svg></g></svg></g><g transform="matrix(1,0,0,1,154.09942393395394,87.101013)"><svg viewBox="0 0 498.60441880200784 18.68663818254268" height="18.68663818254268" width="498.60441880200784"><g transform="matrix(1,0,0,1,0,0)"><svg width="498.60441880200784" viewBox="2.5999999046325684 -34.599998474121094 932.4600219726562 34.94999694824219" height="18.68663818254268" data-palette-color="#131413"><path d="M33.15-7.85L33.15-7.85Q35.1-7.85 35.85-9.98 36.6-12.1 36.6-16.9L36.6-16.9 36.7-29.15Q36.7-31.8 37.93-33.02 39.15-34.25 42.15-34.25L42.15-34.25Q44-34.25 45.13-33.65 46.25-33.05 47.05-31.3 47.85-29.55 48.15-26.55 48.45-23.55 48.45-18.6L48.45-18.6Q48.45-15.65 47.95-13.1 47.45-10.55 46.6-8.65 45.75-6.75 44.58-5.23 43.4-3.7 42.1-2.7 40.8-1.7 39.35-1.03 37.9-0.35 36.52-0.08 35.15 0.2 33.85 0.2L33.85 0.2Q29.35 0.2 25.7-2.65L25.7-2.65Q22.1 0.3 17.55 0.3L17.55 0.3Q15.6 0.3 13.65-0.28 11.7-0.85 9.68-2.25 7.65-3.65 6.1-5.73 4.55-7.8 3.58-11.13 2.6-14.45 2.6-18.5L2.6-18.5Q2.6-25.05 3.23-28.4 3.85-31.75 5.13-32.95 6.4-34.15 8.85-34.15L8.85-34.15Q10.9-34.15 12.1-33.58 13.3-33 13.8-31.9 14.3-30.8 14.3-29.05L14.3-29.05 14.35-16.85Q14.35-12.05 15.1-9.9 15.85-7.75 18.05-7.75L18.05-7.75Q19.15-7.75 19.7-8.68 20.25-9.6 20.45-11.65L20.45-11.65Q19.8-14.55 19.8-20.7L19.8-20.7Q19.8-24.15 19.95-26.2 20.1-28.25 20.4-29.75 20.7-31.25 21.4-31.9 22.1-32.55 22.98-32.83 23.85-33.1 25.4-33.1L25.4-33.1Q26.3-33.1 26.98-33.05 27.65-33 28.25-32.75 28.85-32.5 29.25-32.3 29.65-32.1 30-31.55 30.35-31 30.55-30.6 30.75-30.2 30.93-29.3 31.1-28.4 31.18-27.73 31.25-27.05 31.28-25.73 31.3-24.4 31.33-23.43 31.35-22.45 31.35-20.65L31.35-20.65Q31.35-14.35 30.7-11.35L30.7-11.35Q30.9-9.55 31.45-8.7 32-7.85 33.15-7.85ZM66.55 0.3L66.55 0.3Q60.45 0.3 56.47-2.85 52.5-6 52.5-11.45L52.5-11.45Q52.5-17.35 56.42-20.78 60.35-24.2 66.55-24.2L66.55-24.2Q72.4-24.2 75.12-22.13 77.85-20.05 77.85-16.45L77.85-16.45Q77.85-15.75 77.67-15.1 77.5-14.45 77.12-13.83 76.75-13.2 76.12-12.68 75.5-12.15 74.7-11.73 73.9-11.3 72.8-11.08 71.7-10.85 70.45-10.85L70.45-10.85 63.4-10.8Q63.9-9.2 65.2-8.28 66.5-7.35 68.5-7.35L68.5-7.35Q70.65-7.35 72.9-7.9L72.9-7.9Q73.85-8.15 74.97-8.7 76.1-9.25 76.6-9.25L76.6-9.25Q77.45-9.25 77.92-8.75 78.4-8.25 78.4-7.5L78.4-7.5Q78.4-6.6 77.6-5.33 76.8-4.05 75.37-2.78 73.95-1.5 71.6-0.6 69.25 0.3 66.55 0.3ZM63.15-14L63.15-14Q66.6-14.05 66.9-14.05L66.9-14.05Q67.65-14.05 68-14.95L68-14.95Q68.25-15.6 68.25-16.75L68.25-16.75Q68.25-19.9 66.35-19.9L66.35-19.9Q65.65-19.9 64.97-19.15 64.3-18.4 63.8-17.03 63.3-15.65 63.15-14ZM107.79-24.2L107.79-24.2Q112.44-24.2 115.54-22.3 118.64-20.4 118.64-18.15L118.64-18.15Q118.64-17.5 118.09-16.95 117.54-16.4 116.69-16.4L116.69-16.4Q115.94-16.4 115.04-16.93 114.14-17.45 113.34-18.05 112.54-18.65 111.24-19.15 109.94-19.65 108.49-19.65L108.49-19.65Q106.54-19.65 106.54-18.45L106.54-18.45Q106.54-17.6 107.54-17.1 108.54-16.6 110.47-16.05 112.39-15.5 113.39-15L113.39-15Q117.14-13.55 118.54-11.88 119.94-10.2 119.94-7.45L119.94-7.45Q119.94-6.1 119.19-4.78 118.44-3.45 116.94-2.27 115.44-1.1 112.87-0.38 110.29 0.35 106.99 0.35L106.99 0.35Q100.54 0.35 97.34-2.6L97.34-2.6Q95.79-4.05 95.79-5.6L95.79-5.6Q95.79-6.55 96.42-7.1 97.04-7.65 98.19-7.65L98.19-7.65Q99.34-7.65 101.69-6.53 104.04-5.4 106.04-5.4L106.04-5.4Q108.79-5.4 108.79-6.75L108.79-6.75Q108.79-7.45 107.34-7.88 105.89-8.3 103.54-8.9 101.19-9.5 99.79-10.4L99.79-10.4Q97.59-11.35 96.72-12.78 95.84-14.2 95.84-16.25L95.84-16.25Q95.84-19.75 99.17-21.98 102.49-24.2 107.79-24.2ZM125.64-10.7L125.64-10.7 125.64-16.6Q124.39-16.65 123.64-17.03 122.89-17.4 122.56-18 122.24-18.6 122.24-19.5L122.24-19.5Q122.24-22.35 125.69-22.6L125.69-22.6 125.69-27.25Q125.69-29.15 128.44-30.68 131.19-32.2 133.89-32.2L133.89-32.2Q135.54-32.2 136.04-31.25 136.54-30.3 136.54-28.4L136.54-28.4 136.59-22.65 137.94-22.65Q140.69-22.65 141.72-21.93 142.74-21.2 142.74-19.3L142.74-19.3Q142.74-18.5 142.44-17.95 142.14-17.4 141.47-17.1 140.79-16.8 139.84-16.68 138.89-16.55 137.49-16.55L137.49-16.55 136.59-16.55 136.59-11.05Q136.59-10.25 136.66-9.73 136.74-9.2 136.89-8.9 137.04-8.6 137.31-8.5 137.59-8.4 137.99-8.4L137.99-8.4Q138.59-8.4 138.99-8.83 139.39-9.25 139.62-9.78 139.84-10.3 140.22-10.73 140.59-11.15 141.09-11.15L141.09-11.15Q142.24-11.15 142.87-10.6 143.49-10.05 143.49-9.25L143.49-9.25Q143.49-7.9 142.97-6.35 142.44-4.8 141.44-3.35 140.44-1.9 138.66-0.95 136.89 0 134.69 0L134.69 0Q129.74 0 127.69-2.5 125.64-5 125.64-10.7ZM156.39 0.3L156.39 0.3Q152.44 0.3 149.84-2.93 147.24-6.15 147.24-11.75L147.24-11.75Q147.24-17.45 149.81-20.83 152.39-24.2 156.39-24.2L156.39-24.2Q160.44-24.2 163.89-21.35L163.89-21.35Q165.24-23.85 168.24-23.85L168.24-23.85Q170.94-23.85 172.44-22.68 173.94-21.5 173.94-18.35L173.94-18.35 173.94-5.35Q173.94-2.35 172.69-1.18 171.44 0 168.29 0L168.29 0Q164.99 0 163.94-1.85L163.94-1.85Q160.74 0.3 156.39 0.3ZM163.19-7.2L163.19-16.55Q162.34-18 160.99-18L160.99-18Q159.69-18 158.89-16.1 158.09-14.2 158.09-11.75L158.09-11.75Q158.09-9.45 158.84-7.65 159.59-5.85 160.94-5.85L160.94-5.85Q162.34-5.85 163.19-7.2L163.19-7.2ZM194.04-4.15L193.99-13.45Q193.99-16.25 191.79-16.25L191.79-16.25Q190.74-16.25 190.06-15.38 189.39-14.5 189.29-13.05L189.29-13.05 189.29-5.35Q189.29-2.3 188.04-1.15 186.79 0 183.64 0L183.64 0Q180.69 0 179.61-1.38 178.54-2.75 178.54-5.9L178.54-5.9 178.54-18.2Q178.54-20.75 179.91-22.3 181.29-23.85 183.59-23.85L183.59-23.85Q185.49-23.85 186.79-23.3 188.09-22.75 188.74-21.4L188.74-21.4Q192.64-23.95 198.24-23.95L198.24-23.95Q201.79-23.95 203.36-21.15 204.94-18.35 204.94-11.95L204.94-11.95Q204.94-8.8 204.79-6.83 204.64-4.85 204.31-3.43 203.99-2 203.29-1.3 202.59-0.6 201.66-0.3 200.74 0 199.29 0L199.29 0Q196.49 0 195.26-1.05 194.04-2.1 194.04-4.15L194.04-4.15ZM236.08-28.7L236.08-7.5Q236.08-3.45 234.73-1.73 233.38 0 230.58 0L230.58 0Q227.38 0 226.18-2L226.18-2Q222.93 0.35 218.33 0.35L218.33 0.35Q214.43 0.35 211.83-2.88 209.23-6.1 209.23-11.7L209.23-11.7Q209.23-17.4 211.78-20.78 214.33-24.15 218.33-24.15L218.33-24.15Q221.93-24.15 225.08-21.85L225.08-21.85 225.08-28.25Q225.08-31.3 226.58-32.77 228.08-34.25 230.58-34.25L230.58-34.25Q233.33-34.25 234.71-33.15 236.08-32.05 236.08-28.7L236.08-28.7ZM225.18-7.2L225.18-7.2 225.13-16.55Q224.28-17.95 222.93-17.95L222.93-17.95Q222.08-17.95 221.41-17 220.73-16.05 220.38-14.65 220.03-13.25 220.03-11.7L220.03-11.7Q220.03-9.4 220.78-7.6 221.53-5.8 222.88-5.8L222.88-5.8Q223.13-5.8 223.38-5.85 223.63-5.9 223.83-5.98 224.03-6.05 224.23-6.18 224.43-6.3 224.58-6.45 224.73-6.6 224.88-6.8 225.03-7 225.18-7.2ZM252.43-24.2L252.43-24.2Q257.08-24.2 260.18-22.3 263.28-20.4 263.28-18.15L263.28-18.15Q263.28-17.5 262.73-16.95 262.18-16.4 261.33-16.4L261.33-16.4Q260.58-16.4 259.68-16.93 258.78-17.45 257.98-18.05 257.18-18.65 255.88-19.15 254.58-19.65 253.13-19.65L253.13-19.65Q251.18-19.65 251.18-18.45L251.18-18.45Q251.18-17.6 252.18-17.1 253.18-16.6 255.11-16.05 257.03-15.5 258.03-15L258.03-15Q261.78-13.55 263.18-11.88 264.58-10.2 264.58-7.45L264.58-7.45Q264.58-6.1 263.83-4.78 263.08-3.45 261.58-2.27 260.08-1.1 257.51-0.38 254.93 0.35 251.63 0.35L251.63 0.35Q245.18 0.35 241.98-2.6L241.98-2.6Q240.43-4.05 240.43-5.6L240.43-5.6Q240.43-6.55 241.06-7.1 241.68-7.65 242.83-7.65L242.83-7.65Q243.98-7.65 246.33-6.53 248.68-5.4 250.68-5.4L250.68-5.4Q253.43-5.4 253.43-6.75L253.43-6.75Q253.43-7.45 251.98-7.88 250.53-8.3 248.18-8.9 245.83-9.5 244.43-10.4L244.43-10.4Q242.23-11.35 241.36-12.78 240.48-14.2 240.48-16.25L240.48-16.25Q240.48-19.75 243.81-21.98 247.13-24.2 252.43-24.2ZM291.23 0.3L291.23 0.3Q287.28 0.3 284.68-2.93 282.08-6.15 282.08-11.75L282.08-11.75Q282.08-17.45 284.65-20.83 287.23-24.2 291.23-24.2L291.23-24.2Q295.28-24.2 298.73-21.35L298.73-21.35Q300.08-23.85 303.08-23.85L303.08-23.85Q305.78-23.85 307.28-22.68 308.78-21.5 308.78-18.35L308.78-18.35 308.78-5.35Q308.78-2.35 307.53-1.18 306.28 0 303.13 0L303.13 0Q299.83 0 298.78-1.85L298.78-1.85Q295.58 0.3 291.23 0.3ZM298.03-7.2L298.03-16.55Q297.18-18 295.83-18L295.83-18Q294.53-18 293.73-16.1 292.93-14.2 292.93-11.75L292.93-11.75Q292.93-9.45 293.68-7.65 294.43-5.85 295.78-5.85L295.78-5.85Q297.18-5.85 298.03-7.2L298.03-7.2ZM325.22-24.2L325.22-24.2Q329.87-24.2 332.97-22.3 336.07-20.4 336.07-18.15L336.07-18.15Q336.07-17.5 335.52-16.95 334.97-16.4 334.12-16.4L334.12-16.4Q333.37-16.4 332.47-16.93 331.57-17.45 330.77-18.05 329.97-18.65 328.67-19.15 327.37-19.65 325.92-19.65L325.92-19.65Q323.97-19.65 323.97-18.45L323.97-18.45Q323.97-17.6 324.97-17.1 325.97-16.6 327.9-16.05 329.82-15.5 330.82-15L330.82-15Q334.57-13.55 335.97-11.88 337.37-10.2 337.37-7.45L337.37-7.45Q337.37-6.1 336.62-4.78 335.87-3.45 334.37-2.27 332.87-1.1 330.3-0.38 327.72 0.35 324.42 0.35L324.42 0.35Q317.97 0.35 314.77-2.6L314.77-2.6Q313.22-4.05 313.22-5.6L313.22-5.6Q313.22-6.55 313.85-7.1 314.47-7.65 315.62-7.65L315.62-7.65Q316.77-7.65 319.12-6.53 321.47-5.4 323.47-5.4L323.47-5.4Q326.22-5.4 326.22-6.75L326.22-6.75Q326.22-7.45 324.77-7.88 323.32-8.3 320.97-8.9 318.62-9.5 317.22-10.4L317.22-10.4Q315.02-11.35 314.15-12.78 313.27-14.2 313.27-16.25L313.27-16.25Q313.27-19.75 316.6-21.98 319.92-24.2 325.22-24.2ZM364.02 0.3L364.02 0.3Q360.07 0.3 357.47-2.93 354.87-6.15 354.87-11.75L354.87-11.75Q354.87-17.45 357.44-20.83 360.02-24.2 364.02-24.2L364.02-24.2Q368.07-24.2 371.52-21.35L371.52-21.35Q372.87-23.85 375.87-23.85L375.87-23.85Q378.57-23.85 380.07-22.68 381.57-21.5 381.57-18.35L381.57-18.35 381.57-5.35Q381.57-2.35 380.32-1.18 379.07 0 375.92 0L375.92 0Q372.62 0 371.57-1.85L371.57-1.85Q368.37 0.3 364.02 0.3ZM370.82-7.2L370.82-16.55Q369.97-18 368.62-18L368.62-18Q367.32-18 366.52-16.1 365.72-14.2 365.72-11.75L365.72-11.75Q365.72-9.45 366.47-7.65 367.22-5.85 368.57-5.85L368.57-5.85Q369.97-5.85 370.82-7.2L370.82-7.2ZM410.81-28.65L410.81-21.8Q414.11-24.25 417.96-24.25L417.96-24.25Q421.86-24.25 424.46-20.95 427.06-17.65 427.06-12.6L427.06-12.6Q427.06-6.5 423.11-3.08 419.16 0.35 412.86 0.35L412.86 0.35Q409.01 0.35 406.14-0.75 403.26-1.85 401.64-4.05 400.01-6.25 399.96-9.35L399.96-9.35 399.86-28.2Q399.86-31.3 401.36-32.75 402.86-34.2 405.36-34.2L405.36-34.2Q408.16-34.2 409.49-32.88 410.81-31.55 410.81-28.65L410.81-28.65ZM410.86-7.65L410.86-7.65Q411.76-5.95 413.36-5.95L413.36-5.95Q414.71-5.95 415.46-7.65 416.21-9.35 416.21-11.55L416.21-11.55Q416.21-12.75 416.01-13.9 415.81-15.05 415.46-15.98 415.11-16.9 414.56-17.48 414.01-18.05 413.31-18.05L413.31-18.05Q411.76-18.05 410.86-16.2L410.86-16.2Q410.86-15.55 410.86-12.48 410.86-9.4 410.86-7.65ZM444.96 0.3L444.96 0.3Q438.86 0.3 434.89-2.85 430.91-6 430.91-11.45L430.91-11.45Q430.91-17.35 434.84-20.78 438.76-24.2 444.96-24.2L444.96-24.2Q450.81-24.2 453.54-22.13 456.26-20.05 456.26-16.45L456.26-16.45Q456.26-15.75 456.09-15.1 455.91-14.45 455.54-13.83 455.16-13.2 454.54-12.68 453.91-12.15 453.11-11.73 452.31-11.3 451.21-11.08 450.11-10.85 448.86-10.85L448.86-10.85 441.81-10.8Q442.31-9.2 443.61-8.28 444.91-7.35 446.91-7.35L446.91-7.35Q449.06-7.35 451.31-7.9L451.31-7.9Q452.26-8.15 453.39-8.7 454.51-9.25 455.01-9.25L455.01-9.25Q455.86-9.25 456.34-8.75 456.81-8.25 456.81-7.5L456.81-7.5Q456.81-6.6 456.01-5.33 455.21-4.05 453.79-2.78 452.36-1.5 450.01-0.6 447.66 0.3 444.96 0.3ZM441.56-14L441.56-14Q445.01-14.05 445.31-14.05L445.31-14.05Q446.06-14.05 446.41-14.95L446.41-14.95Q446.66-15.6 446.66-16.75L446.66-16.75Q446.66-19.9 444.76-19.9L444.76-19.9Q444.06-19.9 443.39-19.15 442.71-18.4 442.21-17.03 441.71-15.65 441.56-14ZM469.91 0.3L469.91 0.3Q465.96 0.3 463.36-2.93 460.76-6.15 460.76-11.75L460.76-11.75Q460.76-17.45 463.33-20.83 465.91-24.2 469.91-24.2L469.91-24.2Q473.96-24.2 477.41-21.35L477.41-21.35Q478.76-23.85 481.76-23.85L481.76-23.85Q484.46-23.85 485.96-22.68 487.46-21.5 487.46-18.35L487.46-18.35 487.46-5.35Q487.46-2.35 486.21-1.18 484.96 0 481.81 0L481.81 0Q478.51 0 477.46-1.85L477.46-1.85Q474.26 0.3 469.91 0.3ZM476.71-7.2L476.71-16.55Q475.86-18 474.51-18L474.51-18Q473.21-18 472.41-16.1 471.61-14.2 471.61-11.75L471.61-11.75Q471.61-9.45 472.36-7.65 473.11-5.85 474.46-5.85L474.46-5.85Q475.86-5.85 476.71-7.2L476.71-7.2ZM506.96-18.7L506.96-18.7Q506.96-19.85 505.66-19.85L505.66-19.85Q504.71-19.85 503.96-18.8 503.21-17.75 502.81-16.18 502.41-14.6 502.41-12.9L502.41-12.9Q502.41-10.4 503.93-8.85 505.46-7.3 508.06-7.3L508.06-7.3Q510.61-7.3 512.46-7.9L512.46-7.9Q513.21-8.1 514.28-8.65 515.36-9.2 515.81-9.2L515.81-9.2Q516.51-9.2 516.96-8.95 517.41-8.7 517.58-8.35 517.76-8 517.76-7.6L517.76-7.6Q517.76-6.9 517.28-5.9 516.81-4.9 515.81-3.8 514.81-2.7 513.48-1.78 512.16-0.85 510.21-0.25 508.26 0.35 506.11 0.35L506.11 0.35Q499.91 0.35 495.91-2.98 491.91-6.3 491.91-12.1L491.91-12.1Q491.91-15.8 493.73-18.57 495.56-21.35 498.76-22.78 501.96-24.2 506.11-24.2L506.11-24.2Q510.06-24.2 512.63-23.28 515.21-22.35 516.31-20.8 517.41-19.25 517.41-17.1L517.41-17.1Q517.41-16.15 517.03-15.15 516.66-14.15 515.88-13.15 515.11-12.15 513.61-11.53 512.11-10.9 510.11-10.9L510.11-10.9Q509.21-10.9 508.63-11 508.06-11.1 507.43-11.43 506.81-11.75 506.51-12.5 506.21-13.25 506.21-14.4L506.21-14.4Q506.21-15.4 506.58-16.82 506.96-18.25 506.96-18.7ZM538.25-11.85L538.25-11.85Q538.25-14.45 537.6-16.43 536.95-18.4 535.7-18.4L535.7-18.4Q534.85-18.4 534.2-17.4 533.55-16.4 533.25-14.95 532.95-13.5 532.95-11.85L532.95-11.85Q532.95-9.3 533.65-7.38 534.35-5.45 535.65-5.45 536.95-5.45 537.6-7.35 538.25-9.25 538.25-11.85ZM535.65 0.35L535.65 0.35Q531.75 0.35 528.63-1.05 525.5-2.45 523.63-5.25 521.75-8.05 521.75-11.8L521.75-11.8Q521.75-17.5 525.65-20.85 529.55-24.2 535.65-24.2 541.75-24.2 545.6-20.85 549.45-17.5 549.45-11.8L549.45-11.8Q549.45-6.15 545.53-2.9 541.6 0.35 535.65 0.35ZM569.05-4.15L569-13.45Q569-16.25 566.8-16.25L566.8-16.25Q565.75-16.25 565.07-15.38 564.4-14.5 564.3-13.05L564.3-13.05 564.3-5.35Q564.3-2.3 563.05-1.15 561.8 0 558.65 0L558.65 0Q555.7 0 554.62-1.38 553.55-2.75 553.55-5.9L553.55-5.9 553.55-18.2Q553.55-20.75 554.92-22.3 556.3-23.85 558.6-23.85L558.6-23.85Q560.5-23.85 561.8-23.3 563.1-22.75 563.75-21.4L563.75-21.4Q567.65-23.95 573.25-23.95L573.25-23.95Q576.8-23.95 578.37-21.15 579.95-18.35 579.95-11.95L579.95-11.95Q579.95-8.8 579.8-6.83 579.65-4.85 579.32-3.43 579-2 578.3-1.3 577.6-0.6 576.67-0.3 575.75 0 574.3 0L574.3 0Q571.5 0 570.27-1.05 569.05-2.1 569.05-4.15L569.05-4.15ZM614.09-11.85L614.09-11.85Q614.09-14.45 613.44-16.43 612.79-18.4 611.54-18.4L611.54-18.4Q610.69-18.4 610.04-17.4 609.39-16.4 609.09-14.95 608.79-13.5 608.79-11.85L608.79-11.85Q608.79-9.3 609.49-7.38 610.19-5.45 611.49-5.45 612.79-5.45 613.44-7.35 614.09-9.25 614.09-11.85ZM611.49 0.35L611.49 0.35Q607.59 0.35 604.47-1.05 601.34-2.45 599.47-5.25 597.59-8.05 597.59-11.8L597.59-11.8Q597.59-17.5 601.49-20.85 605.39-24.2 611.49-24.2 617.59-24.2 621.44-20.85 625.29-17.5 625.29-11.8L625.29-11.8Q625.29-6.15 621.37-2.9 617.44 0.35 611.49 0.35ZM644.14-26.3L644.14-26.3Q643.09-25.45 643.09-22.35L643.09-22.35Q646.44-22.35 647.74-21.73 649.04-21.1 649.04-19L649.04-19Q649.04-17.3 647.64-16.78 646.24-16.25 643.09-16.25L643.09-16.25 643.09-7.5Q643.09-3.25 641.77-1.63 640.44 0 637.59 0L637.59 0Q634.79 0 633.49-1.58 632.19-3.15 632.19-7.15L632.19-7.15 632.24-16.25Q628.54-16.3 628.54-19.15L628.54-19.15Q628.54-22.1 632.29-22.3L632.29-22.3Q632.34-28.75 634.17-31.48 635.99-34.2 641.19-34.2L641.19-34.2Q645.34-34.2 647.67-32.5 649.99-30.8 649.99-29.05L649.99-29.05Q649.99-28.3 649.37-27.73 648.74-27.15 647.59-27.15L647.59-27.15Q645.14-27.15 644.14-26.3ZM666.34-30.8L666.34-30.8Q666.34-32.45 667.76-33.52 669.19-34.6 671.79-34.6L671.79-34.6Q677.24-34.6 677.24-30.8L677.24-30.8Q677.24-28.7 675.86-27.85 674.49-27 671.79-27L671.79-27Q669.44-27 667.89-27.9 666.34-28.8 666.34-30.8ZM677.19-18.35L677.19-5.35Q677.19-2.35 675.94-1.18 674.69 0 671.54 0L671.54 0Q668.59 0 667.51-1.38 666.44-2.75 666.44-5.9L666.44-5.9 666.44-18.2Q666.44-20.75 667.81-22.3 669.19-23.85 671.49-23.85L671.49-23.85Q674.19-23.85 675.69-22.68 677.19-21.5 677.19-18.35L677.19-18.35ZM697.13-4.15L697.08-13.45Q697.08-16.25 694.88-16.25L694.88-16.25Q693.83-16.25 693.16-15.38 692.48-14.5 692.38-13.05L692.38-13.05 692.38-5.35Q692.38-2.3 691.13-1.15 689.88 0 686.73 0L686.73 0Q683.78 0 682.71-1.38 681.63-2.75 681.63-5.9L681.63-5.9 681.63-18.2Q681.63-20.75 683.01-22.3 684.38-23.85 686.68-23.85L686.68-23.85Q688.58-23.85 689.88-23.3 691.18-22.75 691.83-21.4L691.83-21.4Q695.73-23.95 701.33-23.95L701.33-23.95Q704.88-23.95 706.46-21.15 708.03-18.35 708.03-11.95L708.03-11.95Q708.03-8.8 707.88-6.83 707.73-4.85 707.41-3.43 707.08-2 706.38-1.3 705.68-0.6 704.76-0.3 703.83 0 702.38 0L702.38 0Q699.58 0 698.36-1.05 697.13-2.1 697.13-4.15L697.13-4.15ZM727.93-4.15L727.88-13.45Q727.88-16.25 725.68-16.25L725.68-16.25Q724.63-16.25 723.96-15.38 723.28-14.5 723.18-13.05L723.18-13.05 723.18-5.35Q723.18-2.3 721.93-1.15 720.68 0 717.53 0L717.53 0Q714.58 0 713.51-1.38 712.43-2.75 712.43-5.9L712.43-5.9 712.43-18.2Q712.43-20.75 713.81-22.3 715.18-23.85 717.48-23.85L717.48-23.85Q719.38-23.85 720.68-23.3 721.98-22.75 722.63-21.4L722.63-21.4Q726.53-23.95 732.13-23.95L732.13-23.95Q735.68-23.95 737.26-21.15 738.83-18.35 738.83-11.95L738.83-11.95Q738.83-8.8 738.68-6.83 738.53-4.85 738.21-3.43 737.88-2 737.18-1.3 736.48-0.6 735.56-0.3 734.63 0 733.18 0L733.18 0Q730.38 0 729.16-1.05 727.93-2.1 727.93-4.15L727.93-4.15ZM759.48-11.85L759.48-11.85Q759.48-14.45 758.83-16.43 758.18-18.4 756.93-18.4L756.93-18.4Q756.08-18.4 755.43-17.4 754.78-16.4 754.48-14.95 754.18-13.5 754.18-11.85L754.18-11.85Q754.18-9.3 754.88-7.38 755.58-5.45 756.88-5.45 758.18-5.45 758.83-7.35 759.48-9.25 759.48-11.85ZM756.88 0.35L756.88 0.35Q752.98 0.35 749.85-1.05 746.73-2.45 744.85-5.25 742.98-8.05 742.98-11.8L742.98-11.8Q742.98-17.5 746.88-20.85 750.78-24.2 756.88-24.2 762.98-24.2 766.83-20.85 770.68-17.5 770.68-11.8L770.68-11.8Q770.68-6.15 766.75-2.9 762.83 0.35 756.88 0.35ZM787.93-7.5L787.93-7.5Q789.38-7.5 789.78-8.33 790.18-9.15 790.18-11.35L790.18-11.35 790.23-19.4Q790.23-20.95 790.75-21.9 791.28-22.85 792.53-23.35 793.78-23.85 795.88-23.85L795.88-23.85Q797.23-23.85 798.08-23.55 798.93-23.25 799.58-22.58 800.23-21.9 800.53-20.53 800.83-19.15 800.98-17.23 801.13-15.3 801.13-12.35L801.13-12.35Q801.13-9.65 800.28-7.5 799.43-5.35 798.1-3.98 796.78-2.6 795.03-1.68 793.28-0.75 791.53-0.38 789.78 0 788 0 786.23 0 784.48-0.38 782.73-0.75 780.95-1.68 779.18-2.6 777.83-3.98 776.48-5.35 775.63-7.5 774.78-9.65 774.78-12.35L774.78-12.35Q774.78-17.25 775.23-19.63 775.68-22 776.75-22.93 777.83-23.85 780.03-23.85L780.03-23.85Q783.13-23.85 784.43-22.78 785.73-21.7 785.73-19.4L785.73-19.4 785.78-11.4Q785.78-10.6 785.78-10.23 785.78-9.85 785.83-9.3 785.88-8.75 786.03-8.5 786.18-8.25 786.4-7.98 786.63-7.7 787-7.6 787.38-7.5 787.93-7.5ZM814.67 0.3L814.67 0.3Q810.72 0.3 808.12-2.93 805.52-6.15 805.52-11.75L805.52-11.75Q805.52-17.45 808.1-20.83 810.67-24.2 814.67-24.2L814.67-24.2Q818.72-24.2 822.17-21.35L822.17-21.35Q823.52-23.85 826.52-23.85L826.52-23.85Q829.22-23.85 830.72-22.68 832.22-21.5 832.22-18.35L832.22-18.35 832.22-5.35Q832.22-2.35 830.97-1.18 829.72 0 826.57 0L826.57 0Q823.27 0 822.22-1.85L822.22-1.85Q819.02 0.3 814.67 0.3ZM821.47-7.2L821.47-16.55Q820.62-18 819.27-18L819.27-18Q817.97-18 817.17-16.1 816.37-14.2 816.37-11.75L816.37-11.75Q816.37-9.45 817.12-7.65 817.87-5.85 819.22-5.85L819.22-5.85Q820.62-5.85 821.47-7.2L821.47-7.2ZM839.42-10.7L839.42-10.7 839.42-16.6Q838.17-16.65 837.42-17.03 836.67-17.4 836.35-18 836.02-18.6 836.02-19.5L836.02-19.5Q836.02-22.35 839.47-22.6L839.47-22.6 839.47-27.25Q839.47-29.15 842.22-30.68 844.97-32.2 847.67-32.2L847.67-32.2Q849.32-32.2 849.82-31.25 850.32-30.3 850.32-28.4L850.32-28.4 850.37-22.65 851.72-22.65Q854.47-22.65 855.5-21.93 856.52-21.2 856.52-19.3L856.52-19.3Q856.52-18.5 856.22-17.95 855.92-17.4 855.25-17.1 854.57-16.8 853.62-16.68 852.67-16.55 851.27-16.55L851.27-16.55 850.37-16.55 850.37-11.05Q850.37-10.25 850.45-9.73 850.52-9.2 850.67-8.9 850.82-8.6 851.1-8.5 851.37-8.4 851.77-8.4L851.77-8.4Q852.37-8.4 852.77-8.83 853.17-9.25 853.4-9.78 853.62-10.3 854-10.73 854.37-11.15 854.87-11.15L854.87-11.15Q856.02-11.15 856.65-10.6 857.27-10.05 857.27-9.25L857.27-9.25Q857.27-7.9 856.75-6.35 856.22-4.8 855.22-3.35 854.22-1.9 852.45-0.95 850.67 0 848.47 0L848.47 0Q843.52 0 841.47-2.5 839.42-5 839.42-10.7ZM861.82-30.8L861.82-30.8Q861.82-32.45 863.24-33.52 864.67-34.6 867.27-34.6L867.27-34.6Q872.72-34.6 872.72-30.8L872.72-30.8Q872.72-28.7 871.34-27.85 869.97-27 867.27-27L867.27-27Q864.92-27 863.37-27.9 861.82-28.8 861.82-30.8ZM872.67-18.35L872.67-5.35Q872.67-2.35 871.42-1.18 870.17 0 867.02 0L867.02 0Q864.07 0 862.99-1.38 861.92-2.75 861.92-5.9L861.92-5.9 861.92-18.2Q861.92-20.75 863.29-22.3 864.67-23.85 866.97-23.85L866.97-23.85Q869.67-23.85 871.17-22.68 872.67-21.5 872.67-18.35L872.67-18.35ZM893.37-11.85L893.37-11.85Q893.37-14.45 892.72-16.43 892.07-18.4 890.82-18.4L890.82-18.4Q889.97-18.4 889.32-17.4 888.67-16.4 888.37-14.95 888.07-13.5 888.07-11.85L888.07-11.85Q888.07-9.3 888.77-7.38 889.47-5.45 890.77-5.45 892.07-5.45 892.72-7.35 893.37-9.25 893.37-11.85ZM890.77 0.35L890.77 0.35Q886.87 0.35 883.74-1.05 880.62-2.45 878.74-5.25 876.87-8.05 876.87-11.8L876.87-11.8Q876.87-17.5 880.77-20.85 884.67-24.2 890.77-24.2 896.87-24.2 900.72-20.85 904.57-17.5 904.57-11.8L904.57-11.8Q904.57-6.15 900.64-2.9 896.72 0.35 890.77 0.35ZM924.16-4.15L924.11-13.45Q924.11-16.25 921.91-16.25L921.91-16.25Q920.86-16.25 920.19-15.38 919.51-14.5 919.41-13.05L919.41-13.05 919.41-5.35Q919.41-2.3 918.16-1.15 916.91 0 913.76 0L913.76 0Q910.81 0 909.74-1.38 908.66-2.75 908.66-5.9L908.66-5.9 908.66-18.2Q908.66-20.75 910.04-22.3 911.41-23.85 913.71-23.85L913.71-23.85Q915.61-23.85 916.91-23.3 918.21-22.75 918.86-21.4L918.86-21.4Q922.76-23.95 928.36-23.95L928.36-23.95Q931.91-23.95 933.49-21.15 935.06-18.35 935.06-11.95L935.06-11.95Q935.06-8.8 934.91-6.83 934.76-4.85 934.44-3.43 934.11-2 933.41-1.3 932.71-0.6 931.79-0.3 930.86 0 929.41 0L929.41 0Q926.61 0 925.39-1.05 924.16-2.1 924.16-4.15L924.16-4.15Z" opacity="1" transform="matrix(1,0,0,1,0,0)" fill="#131413" class="slogan-text-1" data-fill-palette-color="secondary" id="text-1"></path></svg></g></svg></g></svg></g></svg></g><g></g></svg></g><defs></defs></svg><rect width="395.52" height="51.86038966899421" fill="none" stroke="none" visibility="hidden"></rect></g></svg></g></svg>