<svg xmlns="http://www.w3.org/2000/svg" version="1.1" xmlns:xlink="http://www.w3.org/1999/xlink" xmlns:svgjs="http://svgjs.dev/svgjs" width="1000" height="229" viewBox="0 0 1000 229"><g transform="matrix(1,0,0,1,-0.6060606060606233,0.29521451909396035)"><svg viewBox="0 0 396 91" data-background-color="#ffffff" preserveAspectRatio="xMidYMid meet" height="229" width="1000" xmlns="http://www.w3.org/2000/svg" xmlns:xlink="http://www.w3.org/1999/xlink"><g id="tight-bounds" transform="matrix(1,0,0,1,0.2400000000000091,-0.11731231981462997)"><svg viewBox="0 0 395.52 91.23462463962929" height="91.23462463962929" width="395.52"><g><svg viewBox="0 0 523.7925300525562 120.82325765672206" height="91.23462463962929" width="395.52"><g transform="matrix(1,0,0,1,0,16.698438648649727)"><svg viewBox="0 0 395.52 87.42638035942261" height="87.42638035942261" width="395.52"><g id="textblocktransform"><svg viewBox="0 0 395.52 87.42638035942261" height="87.42638035942261" width="395.52" id="textblock"><g><svg viewBox="0 0 395.52 64.70593032322287" height="64.70593032322287" width="395.52"><rect width="395.52" height="64.70593032322287" x="0" y="0" opacity="1" fill="#2a160c" data-fill-palette-color="tertiary"></rect><g transform="matrix(1,0,0,1,23.461705032,23.461705032000005)"><svg width="348.596589936" viewBox="0.3 -35.55 706.6400000000001 36.05" height="17.782520259222867" data-palette-color="#ffffff"><path d="M18.05-0.95L21.6-0.95 17.95-11.75 8.05-11.75 4.2-0.95 7.95-0.95 7.95 0 0.3 0 0.3-0.95 2.65-0.95 15.4-35.3 19.5-35.3 32.1-0.95 34.4-0.95 34.4 0 18.05 0 18.05-0.95ZM17.55-12.85L13.2-25.95 8.5-12.85 17.55-12.85ZM52.2-34.55L52.2-34.55Q44.45-34.55 44.45-19.6L44.45-19.6 44.45-15.65Q44.45-8.55 46.5-4.53 48.55-0.5 52.55-0.5L52.55-0.5Q58.05-0.5 62.65-11.2L62.65-11.2 63.55-11.2 63.2-0.05 62.65-0.05Q62.35-0.6 62.1-0.83 61.85-1.05 61.37-1.05 60.9-1.05 57.75-0.28 54.6 0.5 51.35 0.5L51.35 0.5Q43.2 0.5 38.72-3.9 34.25-8.3 34.25-17.13 34.25-25.95 38.92-30.75 43.6-35.55 51.5-35.55L51.5-35.55Q54.55-35.55 57.47-34.77 60.4-34 60.9-34 61.4-34 61.65-34.23 61.9-34.45 62.2-35L62.2-35 62.75-35 63.15-24.15 62.25-24.15Q60-29.2 57.62-31.88 55.25-34.55 52.2-34.55ZM79-10.65Q79-6.05 80.57-3.6 82.15-1.15 86.25-1.15 90.35-1.15 92.55-3.7 94.75-6.25 94.75-11.45L94.75-11.45 94.75-34.05 91.5-34.05 91.5-35 98.8-35 98.8-34.05 96.05-34.05 96.05-11.8Q96.05-5.6 93.3-2.55 90.55 0.5 83.57 0.5 76.6 0.5 72.92-2.4 69.25-5.3 69.25-12.35L69.25-12.35 69.25-34.05 66.5-34.05 66.5-35 82.25-35 82.25-34.05 79-34.05 79-10.65ZM100.84-34.05L100.84-35 116.09-35 116.09-34.05 113.34-34.05 113.34-0.95 116.09-0.95 116.09 0 100.84 0 100.84-0.95 103.59-0.95 103.59-34.05 100.84-34.05ZM119.64-35L149.14-35 149.64-22.45 148.69-22.45Q146.49-29.1 144.79-31.53 143.09-33.95 139.89-33.95L139.89-33.95 139.29-33.95 139.29-1.05 143.54-1.05 143.54 0 125.29 0 125.29-1.05 129.54-1.05 129.54-33.95 128.89-33.95Q125.69-33.95 123.94-31.43 122.19-28.9 120.09-22.45L120.09-22.45 119.14-22.45 119.64-35ZM165.04-10.65Q165.04-6.05 166.61-3.6 168.19-1.15 172.29-1.15 176.39-1.15 178.59-3.7 180.79-6.25 180.79-11.45L180.79-11.45 180.79-34.05 177.54-34.05 177.54-35 184.84-35 184.84-34.05 182.09-34.05 182.09-11.8Q182.09-5.6 179.34-2.55 176.59 0.5 169.61 0.5 162.64 0.5 158.96-2.4 155.29-5.3 155.29-12.35L155.29-12.35 155.29-34.05 152.54-34.05 152.54-35 168.29-35 168.29-34.05 165.04-34.05 165.04-10.65ZM201.39-0.55L201.39-0.55Q203.89-0.55 205.81-1.9 207.74-3.25 207.74-5.98 207.74-8.7 205.66-10.15 203.59-11.6 199.76-12.68 195.94-13.75 194.21-14.55 192.49-15.35 190.94-16.65L190.94-16.65Q187.84-19.25 187.84-24.7L187.84-24.7Q187.84-29.15 191.01-32.35 194.19-35.55 199.69-35.55L199.69-35.55Q202.34-35.55 205.21-34.77 208.09-34 208.79-34 209.49-34 210.04-35L210.04-35 210.59-35 210.94-24.9 210.14-24.9Q207.74-29.25 205.11-31.88 202.49-34.5 199.41-34.5 196.34-34.5 194.64-33.08 192.94-31.65 192.94-29.28 192.94-26.9 194.96-25.63 196.99-24.35 199.94-23.55 202.89-22.75 203.81-22.45 204.74-22.15 206.11-21.63 207.49-21.1 208.36-20.53 209.24-19.95 210.21-19.07 211.19-18.2 211.74-17.15L211.74-17.15Q213.09-14.75 213.09-11.45L213.09-11.45Q213.09-6.05 209.71-2.78 206.34 0.5 200.84 0.5L200.84 0.5Q197.99 0.5 194.31-0.25 190.64-1 190.24-1L190.24-1Q189.54-1 188.89 0.5L188.89 0.5 188.19 0.5 187.69-11.4 188.54-11.4Q190.74-7.05 194.16-3.8 197.59-0.55 201.39-0.55ZM230.23-13.9L217.63-13.9 217.63-15.4 230.23-15.4 230.23-13.9ZM268.43-18.1L268.43-18.1Q268.43-7.8 262.63-3.75L262.63-3.75Q257.28 0 247.93 0L247.93 0 233.78 0 233.78-0.95 237.08-0.95 237.08-34.05 233.78-34.05 233.78-35 249.23-35Q258.83-35 263.63-31.08 268.43-27.15 268.43-18.1ZM246.83-34.05L246.83-0.95 248.73-0.95Q253.78-0.95 255.96-4.53 258.13-8.1 258.13-16.5L258.13-16.5 258.13-19.4Q258.13-30.65 253.83-32.95L253.83-32.95Q251.78-34.05 248.03-34.05L248.03-34.05 246.83-34.05ZM283.53-10.65Q283.53-6.05 285.1-3.6 286.68-1.15 290.78-1.15 294.88-1.15 297.08-3.7 299.28-6.25 299.28-11.45L299.28-11.45 299.28-34.05 296.03-34.05 296.03-35 303.33-35 303.33-34.05 300.58-34.05 300.58-11.8Q300.58-5.6 297.83-2.55 295.08 0.5 288.1 0.5 281.13 0.5 277.45-2.4 273.78-5.3 273.78-12.35L273.78-12.35 273.78-34.05 271.03-34.05 271.03-35 286.78-35 286.78-34.05 283.53-34.05 283.53-10.65ZM328.18-15.45L328.18-15.45 328.18-19.15Q328.18-28.3 327.27-30.7L327.27-30.7Q326.27-33.45 324.43-34.1L324.43-34.1Q323.38-34.5 321.88-34.5 320.38-34.5 319.3-34.1 318.23-33.7 317.52-32.7 316.82-31.7 316.4-30.6 315.98-29.5 315.73-27.5L315.73-27.5Q315.43-24.6 315.43-18.95L315.43-18.95 315.43-15.35Q315.43-9.25 315.9-6.68 316.38-4.1 317.07-3L317.07-3Q318.63-0.55 321.88-0.55L321.88-0.55Q325.82-0.55 327-3.88 328.18-7.2 328.18-15.45ZM321.77 0.5Q313.43 0.5 309.3-4.03 305.18-8.55 305.18-17.13 305.18-25.7 309.6-30.63 314.02-35.55 322.13-35.55 330.23-35.55 334.35-30.88 338.48-26.2 338.48-17.6 338.48-9 334.3-4.25 330.13 0.5 321.77 0.5ZM369.52-34.55L369.52-34.55Q361.77-34.55 361.77-19.6L361.77-19.6 361.77-15.65Q361.77-8.55 363.82-4.53 365.87-0.5 369.87-0.5L369.87-0.5Q375.37-0.5 379.97-11.2L379.97-11.2 380.87-11.2 380.52-0.05 379.97-0.05Q379.67-0.6 379.42-0.83 379.17-1.05 378.69-1.05 378.22-1.05 375.07-0.28 371.92 0.5 368.67 0.5L368.67 0.5Q360.52 0.5 356.04-3.9 351.57-8.3 351.57-17.13 351.57-25.95 356.25-30.75 360.92-35.55 368.82-35.55L368.82-35.55Q371.87-35.55 374.79-34.77 377.72-34 378.22-34 378.72-34 378.97-34.23 379.22-34.45 379.52-35L379.52-35 380.07-35 380.47-24.15 379.57-24.15Q377.32-29.2 374.94-31.88 372.57-34.55 369.52-34.55ZM407.57-15.45L407.57-15.45 407.57-19.15Q407.57-28.3 406.67-30.7L406.67-30.7Q405.67-33.45 403.82-34.1L403.82-34.1Q402.77-34.5 401.27-34.5 399.77-34.5 398.69-34.1 397.62-33.7 396.92-32.7 396.22-31.7 395.79-30.6 395.37-29.5 395.12-27.5L395.12-27.5Q394.82-24.6 394.82-18.95L394.82-18.95 394.82-15.35Q394.82-9.25 395.29-6.68 395.77-4.1 396.47-3L396.47-3Q398.02-0.55 401.27-0.55L401.27-0.55Q405.22-0.55 406.39-3.88 407.57-7.2 407.57-15.45ZM401.17 0.5Q392.82 0.5 388.69-4.03 384.57-8.55 384.57-17.13 384.57-25.7 388.99-30.63 393.42-35.55 401.52-35.55 409.62-35.55 413.74-30.88 417.87-26.2 417.87-17.6 417.87-9 413.69-4.25 409.52 0.5 401.17 0.5ZM452.16-34.05L449.41-34.05 449.41 0 442.41 0 425.26-32.35 425.26-0.95 428.01-0.95 428.01 0 421.16 0 421.16-0.95 423.91-0.95 423.91-34.05 421.16-34.05 421.16-35 434.96-35 448.06-9.9 448.06-34.05 445.31-34.05 445.31-35 452.16-35 452.16-34.05ZM469.66-0.55L469.66-0.55Q472.16-0.55 474.09-1.9 476.01-3.25 476.01-5.98 476.01-8.7 473.94-10.15 471.86-11.6 468.04-12.68 464.21-13.75 462.49-14.55 460.76-15.35 459.21-16.65L459.21-16.65Q456.11-19.25 456.11-24.7L456.11-24.7Q456.11-29.15 459.29-32.35 462.46-35.55 467.96-35.55L467.96-35.55Q470.61-35.55 473.49-34.77 476.36-34 477.06-34 477.76-34 478.31-35L478.31-35 478.86-35 479.21-24.9 478.41-24.9Q476.01-29.25 473.39-31.88 470.76-34.5 467.69-34.5 464.61-34.5 462.91-33.08 461.21-31.65 461.21-29.28 461.21-26.9 463.24-25.63 465.26-24.35 468.21-23.55 471.16-22.75 472.09-22.45 473.01-22.15 474.39-21.63 475.76-21.1 476.64-20.53 477.51-19.95 478.49-19.07 479.46-18.2 480.01-17.15L480.01-17.15Q481.36-14.75 481.36-11.45L481.36-11.45Q481.36-6.05 477.99-2.78 474.61 0.5 469.11 0.5L469.11 0.5Q466.26 0.5 462.59-0.25 458.91-1 458.51-1L458.51-1Q457.81-1 457.16 0.5L457.16 0.5 456.46 0.5 455.96-11.4 456.81-11.4Q459.01-7.05 462.44-3.8 465.86-0.55 469.66-0.55ZM507.96-15.45L507.96-15.45 507.96-19.15Q507.96-28.3 507.06-30.7L507.06-30.7Q506.06-33.45 504.21-34.1L504.21-34.1Q503.16-34.5 501.66-34.5 500.16-34.5 499.08-34.1 498.01-33.7 497.31-32.7 496.61-31.7 496.18-30.6 495.76-29.5 495.51-27.5L495.51-27.5Q495.21-24.6 495.21-18.95L495.21-18.95 495.21-15.35Q495.21-9.25 495.68-6.68 496.16-4.1 496.86-3L496.86-3Q498.41-0.55 501.66-0.55L501.66-0.55Q505.61-0.55 506.78-3.88 507.96-7.2 507.96-15.45ZM501.56 0.5Q493.21 0.5 489.08-4.03 484.96-8.55 484.96-17.13 484.96-25.7 489.38-30.63 493.81-35.55 501.91-35.55 510.01-35.55 514.13-30.88 518.26-26.2 518.26-17.6 518.26-9 514.08-4.25 509.91 0.5 501.56 0.5ZM521.36-33.9L521.36-35 539.36-35 539.36-33.9 534.06-33.9 534.06-1.1 535.86-1.1Q540.11-1.1 542.63-3.7 545.16-6.3 547.76-11.7L547.76-11.7 548.81-11.7 547.86 0 521.36 0 521.36-1.1 524.31-1.1 524.31-33.9 521.36-33.9ZM548.4-35L577.9-35 578.4-22.45 577.45-22.45Q575.25-29.1 573.55-31.53 571.85-33.95 568.65-33.95L568.65-33.95 568.05-33.95 568.05-1.05 572.3-1.05 572.3 0 554.05 0 554.05-1.05 558.3-1.05 558.3-33.95 557.65-33.95Q554.45-33.95 552.7-31.43 550.95-28.9 548.85-22.45L548.85-22.45 547.9-22.45 548.4-35ZM593.05-0.95L596.6-0.95 592.95-11.75 583.05-11.75 579.2-0.95 582.95-0.95 582.95 0 575.3 0 575.3-0.95 577.65-0.95 590.4-35.3 594.5-35.3 607.1-0.95 609.4-0.95 609.4 0 593.05 0 593.05-0.95ZM592.55-12.85L588.2-25.95 583.5-12.85 592.55-12.85ZM641.95-34.05L639.2-34.05 639.2 0 632.2 0 615.05-32.35 615.05-0.95 617.8-0.95 617.8 0 610.95 0 610.95-0.95 613.7-0.95 613.7-34.05 610.95-34.05 610.95-35 624.75-35 637.85-9.9 637.85-34.05 635.1-34.05 635.1-35 641.95-35 641.95-34.05ZM662.7-34.55L662.7-34.55Q654.95-34.55 654.95-19.6L654.95-19.6 654.95-15.65Q654.95-8.55 657-4.53 659.05-0.5 663.05-0.5L663.05-0.5Q668.55-0.5 673.15-11.2L673.15-11.2 674.05-11.2 673.7-0.05 673.15-0.05Q672.85-0.6 672.6-0.83 672.35-1.05 671.87-1.05 671.4-1.05 668.25-0.28 665.1 0.5 661.85 0.5L661.85 0.5Q653.7 0.5 649.22-3.9 644.75-8.3 644.75-17.13 644.75-25.95 649.42-30.75 654.1-35.55 662-35.55L662-35.55Q665.05-35.55 667.97-34.77 670.9-34 671.4-34 671.9-34 672.15-34.23 672.4-34.45 672.7-35L672.7-35 673.25-35 673.65-24.15 672.75-24.15Q670.5-29.2 668.12-31.88 665.75-34.55 662.7-34.55ZM688.24-34.2L695.04-18.55 702.14-34.2 697.09-34.2 697.09-35 706.94-35 706.94-34.2 703.64-34.2 696.09-17.5 696.09-0.95 699.14-0.95 699.14 0 683.29 0 683.29-0.95 686.34-0.95 686.34-16.55 677.84-34.2 675.49-34.2 675.49-35 691.49-35 691.49-34.2 688.24-34.2Z" opacity="1" transform="matrix(1,0,0,1,0,0)" fill="#ffffff" class="wordmark-text-0" data-fill-palette-color="quaternary" id="text-0"></path></svg></g></svg></g><g transform="matrix(1,0,0,1,0,76.43678283922287)"><svg viewBox="0 0 395.52 10.989597520199732" height="10.989597520199732" width="395.52"><g transform="matrix(1,0,0,1,0,0)"><svg width="395.52" viewBox="0.75 -37.5 1367.64 38" height="10.989597520199732" data-palette-color="#99592a"><path d="M15.45 0.25L13.7 0.25 4.5-30.4 0.75-32.2 0.75-33 13.45-33 13.45-32.2 9.2-30.35 15.45-8.7 15.7-8.7 24.35-33.25 26.2-33.25 35.05-8.7 35.35-8.7 41.5-30.3 37.25-32.2 37.25-33 48.3-33 48.3-32.2 44.95-30.35 35.65 0.25 33.9 0.25 24.8-24.25 24.55-24.25 15.45 0.25ZM78.75 0.5L78.75 0.5Q73.9 0.5 71.1-2.45 68.3-5.4 68.3-10.25L68.3-10.25Q68.3-14 69.78-16.88 71.25-19.75 73.68-21.38 76.1-23 78.95-23L78.95-23Q82.9-23 85.18-20.25 87.45-17.5 87.45-12.35L87.45-12.35 87.2-12.1 72.25-12.1Q72.3-9.8 73.15-7.78 74-5.75 75.88-4.5 77.75-3.25 80.9-3.25L80.9-3.25Q83.65-3.25 87.35-5.25L87.35-5.25 87.5-5.25 87.5-4.75Q86.35-2.6 84.08-1.05 81.8 0.5 78.75 0.5ZM78.15-20.8L78.15-20.8Q75.75-20.8 74.23-19.13 72.7-17.45 72.35-14.4L72.35-14.4 83.65-14.4Q83.1-17.8 81.73-19.3 80.35-20.8 78.15-20.8ZM146.66 0.5L146.66 0.5Q144.31 0.5 142.61 0.1 140.91-0.3 139.16-1.2L139.16-1.2 139.16-6.8 139.86-6.8 141.46-4.05Q143.01-1.3 146.51-1.3L146.51-1.3Q148.51-1.3 149.63-2.25 150.76-3.2 150.76-4.85L150.76-4.85Q150.76-6.3 150.06-7.1 149.36-7.9 148.08-8.53 146.81-9.15 145.06-9.95L145.06-9.95Q142.51-11.1 141.13-12.48 139.76-13.85 139.76-16.35L139.76-16.35Q139.76-18.2 140.81-19.7 141.86-21.2 143.48-22.1 145.11-23 146.86-23L146.86-23Q148.71-23 150.26-22.55 151.81-22.1 153.41-21.3L153.41-21.3 153.41-15.85 152.71-15.85 151.06-18.5Q150.21-19.85 149.21-20.45 148.21-21.05 147.06-21.05L147.06-21.05Q145.36-21.05 144.33-20.2 143.31-19.35 143.31-17.85L143.31-17.85Q143.31-16.15 144.53-15.28 145.76-14.4 148.11-13.3L148.11-13.3Q149.51-12.6 150.93-11.9 152.36-11.2 153.28-9.93 154.21-8.65 154.21-6.3L154.21-6.3Q154.21-4.1 153.01-2.58 151.81-1.05 150.06-0.28 148.31 0.5 146.66 0.5ZM184.76 0.5L184.76 0.5Q182.56 0.5 180.96-0.8 179.36-2.1 179.36-4.45L179.36-4.45 179.36-20.15 175.26-20.15 175.26-20.45 179.51-22.5 183.06-28 183.36-28 183.36-22.5 189.96-22.5 189.96-20.15 183.36-20.15 183.36-5.3Q183.36-4 184.51-3.4 185.66-2.8 187.21-2.8L187.21-2.8Q188.16-2.8 188.99-2.9 189.81-3 190.41-3.15L190.41-3.15 190.56-3.15 190.56-2.65Q190.06-1.5 188.59-0.5 187.11 0.5 184.76 0.5ZM216.61 0.5L216.61 0.5Q214.26 0.5 212.71-0.88 211.16-2.25 211.16-4.7L211.16-4.7Q211.16-7.15 212.99-8.95 214.81-10.75 219.11-11.75L219.11-11.75 223.86-12.85 223.86-16.5Q223.86-18.2 222.49-19.43 221.11-20.65 219.36-20.65L219.36-20.65Q217.46-20.65 216.71-19.63 215.96-18.6 215.96-16.9L215.96-16.9 215.96-15.5 215.71-15.25 213.11-15.25Q212.36-15.25 212.09-15.5 211.81-15.75 211.81-16.65L211.81-16.65Q211.81-17.75 212.46-18.9 213.11-20.05 214.46-20.9L214.46-20.9Q215.86-21.8 217.39-22.4 218.91-23 220.66-23L220.66-23Q222.41-23 224.09-22.5 225.76-22 226.81-20.83 227.86-19.65 227.86-17.55L227.86-17.55 227.86-3.35Q228.21-3 228.86-2.75 229.51-2.5 230.66-2.5L230.66-2.5 232.56-2.5 232.71-2.4 232.71-2.25Q232.11-1.15 230.94-0.33 229.76 0.5 228.06 0.5L228.06 0.5Q226.51 0.5 225.54-0.33 224.56-1.15 224.16-2.5L224.16-2.5 223.86-2.5Q222.56-1.2 220.64-0.35 218.71 0.5 216.61 0.5ZM215.06-5.7L215.06-5.7Q215.06-2.6 218.81-2.6L218.81-2.6Q220.01-2.6 221.19-2.85 222.36-3.1 223.86-3.75L223.86-3.75 223.86-11.15Q219.86-10.4 218.01-9.58 216.16-8.75 215.61-7.8 215.06-6.85 215.06-5.7ZM263.12 0L252.42 0 252.42-0.8 255.57-2.4 255.57-17.3 252.57-19.9 252.57-20.25 258.77-23 259.07-23 259.52-19.3 259.77-19.3Q261.67-21.2 263.44-22.1 265.22-23 267.37-23L267.37-23Q270.32-23 272.19-21.53 274.07-20.05 274.07-17.15L274.07-17.15 274.07-2.4 277.22-0.8 277.22 0 266.52 0 266.52-0.8 270.07-2.4 270.07-14.8Q270.07-17 268.69-18.15 267.32-19.3 265.12-19.3L265.12-19.3Q263.77-19.3 262.14-18.85 260.52-18.4 259.57-17.55L259.57-17.55 259.57-2.4 263.12-0.8 263.12 0ZM306.77 0.5L306.77 0.5Q304.27 0.5 302.29-0.75 300.32-2 299.19-4.28 298.07-6.55 298.07-9.7L298.07-9.7Q298.07-13.95 299.72-16.93 301.37-19.9 304.12-21.45 306.87-23 310.12-23L310.12-23Q311.52-23 312.57-22.88 313.62-22.75 314.47-22.55L314.47-22.55 314.47-31.8 311.22-34.4 311.22-34.75 318.17-37.5 318.47-37.5 318.47-2.25 322.02-0.8 322.02 0 314.97 0 314.57-2.55 314.22-2.55Q312.32-0.95 310.54-0.23 308.77 0.5 306.77 0.5ZM302.07-10.85L302.07-10.85Q302.07-6.7 304.27-4.83 306.47-2.95 309.52-2.95L309.52-2.95Q310.72-2.95 311.99-3.33 313.27-3.7 314.47-4.45L314.47-4.45 314.47-18.45Q313.27-19.5 312.09-20.03 310.92-20.55 309.47-20.55L309.47-20.55Q307.47-20.55 305.79-19.58 304.12-18.6 303.09-16.48 302.07-14.35 302.07-10.85ZM351.22 0.5L351.22 0.5Q348.87 0.5 347.17 0.1 345.47-0.3 343.72-1.2L343.72-1.2 343.72-6.8 344.42-6.8 346.02-4.05Q347.57-1.3 351.07-1.3L351.07-1.3Q353.07-1.3 354.2-2.25 355.32-3.2 355.32-4.85L355.32-4.85Q355.32-6.3 354.62-7.1 353.92-7.9 352.65-8.53 351.37-9.15 349.62-9.95L349.62-9.95Q347.07-11.1 345.7-12.48 344.32-13.85 344.32-16.35L344.32-16.35Q344.32-18.2 345.37-19.7 346.42-21.2 348.05-22.1 349.67-23 351.42-23L351.42-23Q353.27-23 354.82-22.55 356.37-22.1 357.97-21.3L357.97-21.3 357.97-15.85 357.27-15.85 355.62-18.5Q354.77-19.85 353.77-20.45 352.77-21.05 351.62-21.05L351.62-21.05Q349.92-21.05 348.9-20.2 347.87-19.35 347.87-17.85L347.87-17.85Q347.87-16.15 349.1-15.28 350.32-14.4 352.67-13.3L352.67-13.3Q354.07-12.6 355.5-11.9 356.92-11.2 357.85-9.93 358.77-8.65 358.77-6.3L358.77-6.3Q358.77-4.1 357.57-2.58 356.37-1.05 354.62-0.28 352.87 0.5 351.22 0.5ZM415.98 0.5L415.98 0.5Q413.63 0.5 412.08-0.88 410.53-2.25 410.53-4.7L410.53-4.7Q410.53-7.15 412.35-8.95 414.18-10.75 418.48-11.75L418.48-11.75 423.23-12.85 423.23-16.5Q423.23-18.2 421.85-19.43 420.48-20.65 418.73-20.65L418.73-20.65Q416.83-20.65 416.08-19.63 415.33-18.6 415.33-16.9L415.33-16.9 415.33-15.5 415.08-15.25 412.48-15.25Q411.73-15.25 411.45-15.5 411.18-15.75 411.18-16.65L411.18-16.65Q411.18-17.75 411.83-18.9 412.48-20.05 413.83-20.9L413.83-20.9Q415.23-21.8 416.75-22.4 418.28-23 420.03-23L420.03-23Q421.78-23 423.45-22.5 425.13-22 426.18-20.83 427.23-19.65 427.23-17.55L427.23-17.55 427.23-3.35Q427.58-3 428.23-2.75 428.88-2.5 430.03-2.5L430.03-2.5 431.93-2.5 432.08-2.4 432.08-2.25Q431.48-1.15 430.3-0.33 429.13 0.5 427.43 0.5L427.43 0.5Q425.88 0.5 424.9-0.33 423.93-1.15 423.53-2.5L423.53-2.5 423.23-2.5Q421.93-1.2 420-0.35 418.08 0.5 415.98 0.5ZM414.43-5.7L414.43-5.7Q414.43-2.6 418.18-2.6L418.18-2.6Q419.38-2.6 420.55-2.85 421.73-3.1 423.23-3.75L423.23-3.75 423.23-11.15Q419.23-10.4 417.38-9.58 415.53-8.75 414.98-7.8 414.43-6.85 414.43-5.7ZM460.03 0.5L460.03 0.5Q457.68 0.5 455.98 0.1 454.28-0.3 452.53-1.2L452.53-1.2 452.53-6.8 453.23-6.8 454.83-4.05Q456.38-1.3 459.88-1.3L459.88-1.3Q461.88-1.3 463-2.25 464.13-3.2 464.13-4.85L464.13-4.85Q464.13-6.3 463.43-7.1 462.73-7.9 461.45-8.53 460.18-9.15 458.43-9.95L458.43-9.95Q455.88-11.1 454.5-12.48 453.13-13.85 453.13-16.35L453.13-16.35Q453.13-18.2 454.18-19.7 455.23-21.2 456.85-22.1 458.48-23 460.23-23L460.23-23Q462.08-23 463.63-22.55 465.18-22.1 466.78-21.3L466.78-21.3 466.78-15.85 466.08-15.85 464.43-18.5Q463.58-19.85 462.58-20.45 461.58-21.05 460.43-21.05L460.43-21.05Q458.73-21.05 457.7-20.2 456.68-19.35 456.68-17.85L456.68-17.85Q456.68-16.15 457.9-15.28 459.13-14.4 461.48-13.3L461.48-13.3Q462.88-12.6 464.3-11.9 465.73-11.2 466.65-9.93 467.58-8.65 467.58-6.3L467.58-6.3Q467.58-4.1 466.38-2.58 465.18-1.05 463.43-0.28 461.68 0.5 460.03 0.5ZM524.78 0.5L524.78 0.5Q522.43 0.5 520.88-0.88 519.33-2.25 519.33-4.7L519.33-4.7Q519.33-7.15 521.16-8.95 522.98-10.75 527.28-11.75L527.28-11.75 532.03-12.85 532.03-16.5Q532.03-18.2 530.66-19.43 529.28-20.65 527.53-20.65L527.53-20.65Q525.63-20.65 524.88-19.63 524.13-18.6 524.13-16.9L524.13-16.9 524.13-15.5 523.88-15.25 521.28-15.25Q520.53-15.25 520.26-15.5 519.98-15.75 519.98-16.65L519.98-16.65Q519.98-17.75 520.63-18.9 521.28-20.05 522.63-20.9L522.63-20.9Q524.03-21.8 525.56-22.4 527.08-23 528.83-23L528.83-23Q530.58-23 532.26-22.5 533.93-22 534.98-20.83 536.03-19.65 536.03-17.55L536.03-17.55 536.03-3.35Q536.38-3 537.03-2.75 537.68-2.5 538.83-2.5L538.83-2.5 540.73-2.5 540.88-2.4 540.88-2.25Q540.28-1.15 539.11-0.33 537.93 0.5 536.23 0.5L536.23 0.5Q534.68 0.5 533.71-0.33 532.73-1.15 532.33-2.5L532.33-2.5 532.03-2.5Q530.73-1.2 528.81-0.35 526.88 0.5 524.78 0.5ZM523.23-5.7L523.23-5.7Q523.23-2.6 526.98-2.6L526.98-2.6Q528.18-2.6 529.36-2.85 530.53-3.1 532.03-3.75L532.03-3.75 532.03-11.15Q528.03-10.4 526.18-9.58 524.33-8.75 523.78-7.8 523.23-6.85 523.23-5.7ZM592.89 0.5L592.59 0.5 592.59-31.8 589.59-34.4 589.59-34.75 596.29-37.5 596.59-37.5 596.59-19.9 596.79-19.9Q598.69-21.5 600.46-22.25 602.24-23 604.29-23L604.29-23Q606.84-23 608.79-21.7 610.74-20.4 611.86-18.03 612.99-15.65 612.99-12.35L612.99-12.35Q612.99-8.25 611.44-5.38 609.89-2.5 607.24-1 604.59 0.5 601.29 0.5L601.29 0.5Q599.24 0.5 597.46 0.13 595.69-0.25 594.14-0.8L594.14-0.8 592.89 0.5ZM601.54-19.55L601.54-19.55Q600.34-19.55 599.06-19.18 597.79-18.8 596.59-18.05L596.59-18.05 596.59-3.95Q597.99-2.85 599.41-2.38 600.84-1.9 602.59-1.9L602.59-1.9Q604.34-1.9 605.79-2.83 607.24-3.75 608.11-5.8 608.99-7.85 608.99-11.2L608.99-11.2Q608.99-15.55 606.81-17.55 604.64-19.55 601.54-19.55ZM645.14 0.5L645.14 0.5Q640.29 0.5 637.49-2.45 634.69-5.4 634.69-10.25L634.69-10.25Q634.69-14 636.17-16.88 637.64-19.75 640.07-21.38 642.49-23 645.34-23L645.34-23Q649.29-23 651.57-20.25 653.84-17.5 653.84-12.35L653.84-12.35 653.59-12.1 638.64-12.1Q638.69-9.8 639.54-7.78 640.39-5.75 642.27-4.5 644.14-3.25 647.29-3.25L647.29-3.25Q650.04-3.25 653.74-5.25L653.74-5.25 653.89-5.25 653.89-4.75Q652.74-2.6 650.47-1.05 648.19 0.5 645.14 0.5ZM644.54-20.8L644.54-20.8Q642.14-20.8 640.62-19.13 639.09-17.45 638.74-14.4L638.74-14.4 650.04-14.4Q649.49-17.8 648.12-19.3 646.74-20.8 644.54-20.8ZM680.94 0.5L680.94 0.5Q678.59 0.5 677.04-0.88 675.49-2.25 675.49-4.7L675.49-4.7Q675.49-7.15 677.32-8.95 679.14-10.75 683.44-11.75L683.44-11.75 688.19-12.85 688.19-16.5Q688.19-18.2 686.82-19.43 685.44-20.65 683.69-20.65L683.69-20.65Q681.79-20.65 681.04-19.63 680.29-18.6 680.29-16.9L680.29-16.9 680.29-15.5 680.04-15.25 677.44-15.25Q676.69-15.25 676.42-15.5 676.14-15.75 676.14-16.65L676.14-16.65Q676.14-17.75 676.79-18.9 677.44-20.05 678.79-20.9L678.79-20.9Q680.19-21.8 681.72-22.4 683.24-23 684.99-23L684.99-23Q686.74-23 688.42-22.5 690.09-22 691.14-20.83 692.19-19.65 692.19-17.55L692.19-17.55 692.19-3.35Q692.54-3 693.19-2.75 693.84-2.5 694.99-2.5L694.99-2.5 696.89-2.5 697.04-2.4 697.04-2.25Q696.44-1.15 695.27-0.33 694.09 0.5 692.39 0.5L692.39 0.5Q690.84 0.5 689.87-0.33 688.89-1.15 688.49-2.5L688.49-2.5 688.19-2.5Q686.89-1.2 684.97-0.35 683.04 0.5 680.94 0.5ZM679.39-5.7L679.39-5.7Q679.39-2.6 683.14-2.6L683.14-2.6Q684.34-2.6 685.52-2.85 686.69-3.1 688.19-3.75L688.19-3.75 688.19-11.15Q684.19-10.4 682.34-9.58 680.49-8.75 679.94-7.8 679.39-6.85 679.39-5.7ZM727.3 0.5L727.3 0.5Q722.45 0.5 719.65-2.45 716.85-5.4 716.85-10.25L716.85-10.25Q716.85-14 718.37-16.88 719.9-19.75 722.5-21.38 725.1-23 728.35-23L728.35-23Q730.35-23 732.25-22.33 734.15-21.65 735.15-20.55L735.15-20.55Q735.95-19.6 735.95-19.05L735.95-19.05Q735.95-18.35 735.3-17.85L735.3-17.85 733.4-16.25 733.05-16.25 731.35-18.55Q730.6-19.55 729.47-20.18 728.35-20.8 726.7-20.8L726.7-20.8Q723.95-20.8 722.37-18.63 720.8-16.45 720.8-12.55L720.8-12.55Q720.8-10.15 721.6-8.03 722.4-5.9 724.27-4.58 726.15-3.25 729.45-3.25L729.45-3.25Q732.2-3.25 735.9-5.25L735.9-5.25 736.05-5.25 736.05-4.75Q734.9-2.6 732.62-1.05 730.35 0.5 727.3 0.5ZM768.55 0.5L768.55 0.5Q765.25 0.5 762.77-1.05 760.3-2.6 758.92-5.25 757.55-7.9 757.55-11.25L757.55-11.25Q757.55-14.6 758.92-17.25 760.3-19.9 762.77-21.45 765.25-23 768.55-23L768.55-23Q771.85-23 774.32-21.45 776.8-19.9 778.17-17.25 779.55-14.6 779.55-11.25L779.55-11.25Q779.55-7.9 778.17-5.25 776.8-2.6 774.32-1.05 771.85 0.5 768.55 0.5ZM769.25-1.65L769.25-1.65Q771.25-1.65 772.55-2.9 773.85-4.15 774.45-6.13 775.05-8.1 775.05-10.25L775.05-10.25Q775.05-12.9 774.32-15.35 773.6-17.8 772.02-19.35 770.45-20.9 767.95-20.9L767.95-20.9Q765.9-20.9 764.6-19.65 763.3-18.4 762.67-16.45 762.05-14.5 762.05-12.3L762.05-12.3Q762.05-9.65 762.8-7.2 763.55-4.75 765.15-3.2 766.75-1.65 769.25-1.65ZM811.9 0L801.2 0 801.2-0.8 804.35-2.4 804.35-17.3 801.35-19.9 801.35-20.25 807.55-23 807.85-23 808.3-19.3 808.55-19.3Q810.45-21.2 812.23-22.1 814-23 816.15-23L816.15-23Q819.1-23 820.98-21.53 822.85-20.05 822.85-17.15L822.85-17.15 822.85-2.4 826-0.8 826 0 815.3 0 815.3-0.8 818.85-2.4 818.85-14.8Q818.85-17 817.48-18.15 816.1-19.3 813.9-19.3L813.9-19.3Q812.55-19.3 810.93-18.85 809.3-18.4 808.35-17.55L808.35-17.55 808.35-2.4 811.9-0.8 811.9 0ZM887.41 0.5L887.41 0.5Q884.11 0.5 881.63-1.05 879.16-2.6 877.78-5.25 876.41-7.9 876.41-11.25L876.41-11.25Q876.41-14.6 877.78-17.25 879.16-19.9 881.63-21.45 884.11-23 887.41-23L887.41-23Q890.71-23 893.18-21.45 895.66-19.9 897.03-17.25 898.41-14.6 898.41-11.25L898.41-11.25Q898.41-7.9 897.03-5.25 895.66-2.6 893.18-1.05 890.71 0.5 887.41 0.5ZM888.11-1.65L888.11-1.65Q890.11-1.65 891.41-2.9 892.71-4.15 893.31-6.13 893.91-8.1 893.91-10.25L893.91-10.25Q893.91-12.9 893.18-15.35 892.46-17.8 890.88-19.35 889.31-20.9 886.81-20.9L886.81-20.9Q884.76-20.9 883.46-19.65 882.16-18.4 881.53-16.45 880.91-14.5 880.91-12.3L880.91-12.3Q880.91-9.65 881.66-7.2 882.41-4.75 884.01-3.2 885.61-1.65 888.11-1.65ZM931.06 0L920.36 0 920.36-0.8 923.51-2.4 923.51-20.15 919.61-20.15 919.61-22.5 923.51-22.5 923.51-24.5Q923.51-25.5 924.01-27.1 924.51-28.7 925.48-30.48 926.46-32.25 927.86-33.85 929.26-35.45 931.03-36.48 932.81-37.5 934.96-37.5L934.96-37.5Q935.41-37.5 935.91-37.35 936.41-37.2 936.76-37.05L936.76-37.05Q937.51-36.7 937.88-36.4 938.26-36.1 938.26-35.65L938.26-35.65Q938.26-35.2 938.06-34.75L938.06-34.75 937.06-32.3 936.71-32.3 935.36-32.85Q933.96-33.4 932.11-33.4L932.11-33.4Q929.36-33.4 928.43-31.68 927.51-29.95 927.51-26.5L927.51-26.5 927.51-22.5 934.11-22.5 934.11-20.15 927.51-20.15 927.51-2.3 931.06-0.8 931.06 0ZM988.46-29.05L988.46-29.05Q987.16-29.05 986.31-29.93 985.46-30.8 985.46-32.05L985.46-32.05Q985.46-33.35 986.31-34.2 987.16-35.05 988.46-35.05L988.46-35.05Q989.76-35.05 990.61-34.2 991.46-33.35 991.46-32.05L991.46-32.05Q991.46-30.8 990.61-29.93 989.76-29.05 988.46-29.05ZM993.76 0L983.46 0 983.46-0.8 986.61-2.4 986.61-17.3 983.61-19.9 983.61-20.25 990.31-23 990.61-23 990.61-2.4 993.76-0.8 993.76 0ZM1026.27 0L1015.57 0 1015.57-0.8 1018.72-2.4 1018.72-17.3 1015.72-19.9 1015.72-20.25 1021.92-23 1022.22-23 1022.67-19.3 1022.92-19.3Q1024.82-21.2 1026.59-22.1 1028.37-23 1030.52-23L1030.52-23Q1033.47-23 1035.34-21.53 1037.22-20.05 1037.22-17.15L1037.22-17.15 1037.22-2.4 1040.37-0.8 1040.37 0 1029.67 0 1029.67-0.8 1033.22-2.4 1033.22-14.8Q1033.22-17 1031.84-18.15 1030.47-19.3 1028.27-19.3L1028.27-19.3Q1026.92-19.3 1025.29-18.85 1023.67-18.4 1022.72-17.55L1022.72-17.55 1022.72-2.4 1026.27-0.8 1026.27 0ZM1072.12 0L1061.42 0 1061.42-0.8 1064.57-2.4 1064.57-17.3 1061.57-19.9 1061.57-20.25 1067.77-23 1068.07-23 1068.52-19.3 1068.77-19.3Q1070.67-21.2 1072.44-22.1 1074.22-23 1076.37-23L1076.37-23Q1079.32-23 1081.19-21.53 1083.07-20.05 1083.07-17.15L1083.07-17.15 1083.07-2.4 1086.22-0.8 1086.22 0 1075.52 0 1075.52-0.8 1079.07-2.4 1079.07-14.8Q1079.07-17 1077.69-18.15 1076.32-19.3 1074.12-19.3L1074.12-19.3Q1072.77-19.3 1071.14-18.85 1069.52-18.4 1068.57-17.55L1068.57-17.55 1068.57-2.4 1072.12-0.8 1072.12 0ZM1118.37 0.5L1118.37 0.5Q1115.07 0.5 1112.6-1.05 1110.12-2.6 1108.75-5.25 1107.37-7.9 1107.37-11.25L1107.37-11.25Q1107.37-14.6 1108.75-17.25 1110.12-19.9 1112.6-21.45 1115.07-23 1118.37-23L1118.37-23Q1121.67-23 1124.15-21.45 1126.62-19.9 1128-17.25 1129.37-14.6 1129.37-11.25L1129.37-11.25Q1129.37-7.9 1128-5.25 1126.62-2.6 1124.15-1.05 1121.67 0.5 1118.37 0.5ZM1119.07-1.65L1119.07-1.65Q1121.07-1.65 1122.37-2.9 1123.67-4.15 1124.27-6.13 1124.87-8.1 1124.87-10.25L1124.87-10.25Q1124.87-12.9 1124.15-15.35 1123.42-17.8 1121.85-19.35 1120.27-20.9 1117.77-20.9L1117.77-20.9Q1115.72-20.9 1114.42-19.65 1113.12-18.4 1112.5-16.45 1111.87-14.5 1111.87-12.3L1111.87-12.3Q1111.87-9.65 1112.62-7.2 1113.37-4.75 1114.97-3.2 1116.57-1.65 1119.07-1.65ZM1161.02 0L1159.97 0 1150.82-20.15 1147.47-21.7 1147.47-22.5 1159.42-22.5 1159.42-21.7 1155.32-20.2 1155.32-19.9 1161.72-5.95 1161.92-5.95 1167.57-19.6 1167.57-19.9 1163.97-21.7 1163.97-22.5 1173.77-22.5 1173.77-21.7 1170.07-19.95 1161.02 0ZM1197.18 0.5L1197.18 0.5Q1194.83 0.5 1193.28-0.88 1191.73-2.25 1191.73-4.7L1191.73-4.7Q1191.73-7.15 1193.55-8.95 1195.38-10.75 1199.68-11.75L1199.68-11.75 1204.43-12.85 1204.43-16.5Q1204.43-18.2 1203.05-19.43 1201.68-20.65 1199.93-20.65L1199.93-20.65Q1198.03-20.65 1197.28-19.63 1196.53-18.6 1196.53-16.9L1196.53-16.9 1196.53-15.5 1196.28-15.25 1193.68-15.25Q1192.93-15.25 1192.65-15.5 1192.38-15.75 1192.38-16.65L1192.38-16.65Q1192.38-17.75 1193.03-18.9 1193.68-20.05 1195.03-20.9L1195.03-20.9Q1196.43-21.8 1197.95-22.4 1199.48-23 1201.23-23L1201.23-23Q1202.98-23 1204.65-22.5 1206.33-22 1207.38-20.83 1208.43-19.65 1208.43-17.55L1208.43-17.55 1208.43-3.35Q1208.78-3 1209.43-2.75 1210.08-2.5 1211.23-2.5L1211.23-2.5 1213.13-2.5 1213.28-2.4 1213.28-2.25Q1212.68-1.15 1211.5-0.33 1210.33 0.5 1208.63 0.5L1208.63 0.5Q1207.08 0.5 1206.1-0.33 1205.13-1.15 1204.73-2.5L1204.73-2.5 1204.43-2.5Q1203.13-1.2 1201.2-0.35 1199.28 0.5 1197.18 0.5ZM1195.63-5.7L1195.63-5.7Q1195.63-2.6 1199.38-2.6L1199.38-2.6Q1200.58-2.6 1201.75-2.85 1202.93-3.1 1204.43-3.75L1204.43-3.75 1204.43-11.15Q1200.43-10.4 1198.58-9.58 1196.73-8.75 1196.18-7.8 1195.63-6.85 1195.63-5.7ZM1240.98 0.5L1240.98 0.5Q1238.78 0.5 1237.18-0.8 1235.58-2.1 1235.58-4.45L1235.58-4.45 1235.58-20.15 1231.48-20.15 1231.48-20.45 1235.73-22.5 1239.28-28 1239.58-28 1239.58-22.5 1246.18-22.5 1246.18-20.15 1239.58-20.15 1239.58-5.3Q1239.58-4 1240.73-3.4 1241.88-2.8 1243.43-2.8L1243.43-2.8Q1244.38-2.8 1245.2-2.9 1246.03-3 1246.63-3.15L1246.63-3.15 1246.78-3.15 1246.78-2.65Q1246.28-1.5 1244.8-0.5 1243.33 0.5 1240.98 0.5ZM1272.73-29.05L1272.73-29.05Q1271.43-29.05 1270.58-29.93 1269.73-30.8 1269.73-32.05L1269.73-32.05Q1269.73-33.35 1270.58-34.2 1271.43-35.05 1272.73-35.05L1272.73-35.05Q1274.03-35.05 1274.88-34.2 1275.73-33.35 1275.73-32.05L1275.73-32.05Q1275.73-30.8 1274.88-29.93 1274.03-29.05 1272.73-29.05ZM1278.03 0L1267.73 0 1267.73-0.8 1270.88-2.4 1270.88-17.3 1267.88-19.9 1267.88-20.25 1274.58-23 1274.88-23 1274.88-2.4 1278.03-0.8 1278.03 0ZM1310.93 0.5L1310.93 0.5Q1307.63 0.5 1305.16-1.05 1302.68-2.6 1301.31-5.25 1299.93-7.9 1299.93-11.25L1299.93-11.25Q1299.93-14.6 1301.31-17.25 1302.68-19.9 1305.16-21.45 1307.63-23 1310.93-23L1310.93-23Q1314.23-23 1316.71-21.45 1319.18-19.9 1320.56-17.25 1321.93-14.6 1321.93-11.25L1321.93-11.25Q1321.93-7.9 1320.56-5.25 1319.18-2.6 1316.71-1.05 1314.23 0.5 1310.93 0.5ZM1311.63-1.65L1311.63-1.65Q1313.63-1.65 1314.93-2.9 1316.23-4.15 1316.83-6.13 1317.43-8.1 1317.43-10.25L1317.43-10.25Q1317.43-12.9 1316.71-15.35 1315.98-17.8 1314.41-19.35 1312.83-20.9 1310.33-20.9L1310.33-20.9Q1308.28-20.9 1306.98-19.65 1305.68-18.4 1305.06-16.45 1304.43-14.5 1304.43-12.3L1304.43-12.3Q1304.43-9.65 1305.18-7.2 1305.93-4.75 1307.53-3.2 1309.13-1.65 1311.63-1.65ZM1354.29 0L1343.59 0 1343.59-0.8 1346.74-2.4 1346.74-17.3 1343.74-19.9 1343.74-20.25 1349.94-23 1350.24-23 1350.69-19.3 1350.94-19.3Q1352.84-21.2 1354.61-22.1 1356.39-23 1358.54-23L1358.54-23Q1361.49-23 1363.36-21.53 1365.24-20.05 1365.24-17.15L1365.24-17.15 1365.24-2.4 1368.39-0.8 1368.39 0 1357.69 0 1357.69-0.8 1361.24-2.4 1361.24-14.8Q1361.24-17 1359.86-18.15 1358.49-19.3 1356.29-19.3L1356.29-19.3Q1354.94-19.3 1353.31-18.85 1351.69-18.4 1350.74-17.55L1350.74-17.55 1350.74-2.4 1354.29-0.8 1354.29 0Z" opacity="1" transform="matrix(1,0,0,1,0,0)" fill="#99592a" class="slogan-text-1" data-fill-palette-color="secondary" id="text-1"></path></svg></g></svg></g></svg></g></svg></g><g transform="matrix(1,0,0,1,407.250852516,0)"><svg viewBox="0 0 116.54167753655624 120.82325765672206" height="120.82325765672206" width="116.54167753655624"><g><svg xmlns:x="http://ns.adobe.com/Extensibility/1.0/" xmlns:i="http://ns.adobe.com/AdobeIllustrator/10.0/" xmlns:graph="http://ns.adobe.com/Graphs/1.0/" xmlns:dc="http://purl.org/dc/elements/1.1/" xmlns:cc="http://creativecommons.org/ns#" xmlns:rdf="http://www.w3.org/1999/02/22-rdf-syntax-ns#" xmlns:svg="http://www.w3.org/2000/svg" xmlns:sodipodi="http://sodipodi.sourceforge.net/DTD/sodipodi-0.dtd" xmlns:inkscape="http://www.inkscape.org/namespaces/inkscape" xmlns="http://www.w3.org/2000/svg" xmlns:xlink="http://www.w3.org/1999/xlink" xmlns:a="http://ns.adobe.com/AdobeSVGViewerExtensions/3.0/" version="1.1" x="0" y="0" viewBox="6.488748800000001 4.5 85.94315477177858 89.10058746635909" enable-background="new 0 0 100 100" xml:space="preserve" height="120.82325765672206" width="116.54167753655624" class="icon-icon-0" data-fill-palette-color="accent" id="icon-0"><polygon points="24,29 32.2,26 29.1,22.9 13.8,29 29.1,35.2 32.2,32.1 " fill="#99592a" data-fill-palette-color="accent"></polygon><polygon points="30.3,11.8 38.1,15.4 38.1,11.1 23,4.5 29.5,19.6 33.8,19.6 " fill="#99592a" data-fill-palette-color="accent"></polygon><polygon points="30.3,46.3 33.8,38.4 29.5,38.4 23,53.5 38.1,47 38.1,42.7 " fill="#99592a" data-fill-palette-color="accent"></polygon><polygon points="74.9,29 66.7,32.1 69.8,35.2 85.1,29 69.8,22.9 66.7,26 " fill="#99592a" data-fill-palette-color="accent"></polygon><polygon points="68.7,46.3 60.8,42.7 60.8,47 75.9,53.5 69.4,38.4 65.1,38.4 " fill="#99592a" data-fill-palette-color="accent"></polygon><polygon points="68.7,11.8 65.1,19.6 69.4,19.6 75.9,4.5 60.8,11.1 60.8,15.4 " fill="#99592a" data-fill-palette-color="accent"></polygon><path d="M43.1 22.9l6.6-3.8c1.2-0.7 1.6-2.2 0.9-3.5-0.7-1.2-2.2-1.6-3.5-0.9l-6.6 3.8c-1.2 0.7-1.6 2.2-0.9 3.5S41.9 23.6 43.1 22.9zM39.6 31c0.7 1.2 2.2 1.6 3.5 0.9L58.5 23c1.2-0.7 1.6-2.2 0.9-3.5-0.7-1.2-2.2-1.6-3.5-0.9l-15.4 8.9C39.4 28.2 39 29.7 39.6 31zM59.4 37.1c-0.7-1.2-2.2-1.6-3.5-0.9l-3.1 1.7v7c0 0-3.5 0-4.4 0v-1.6l0 0v-0.1l0 0c0-0.1 0-0.2 0-0.4l0 0c0-0.2-0.1-0.4-0.2-0.6l-1.9-3.5 12.1-7c1.2-0.7 1.6-2.2 0.9-3.5-0.7-1.2-2.2-1.6-3.5-0.9l-15.4 8.9c-1.2 0.7-1.6 2.2-0.9 3.5 0.6 1.1 2 1.5 3.3 1l0 0 1.6 3V55c0 1.6 1.2 3 2.8 3.2 0.7 1 2 1.7 3.6 1.7 1.5 0 2.8-0.7 3.6-1.7 1.5-0.2 2.9-1.5 2.9-3.2V41.3l1.2-0.7C59.7 39.8 60.1 38.3 59.4 37.1zM54.7 55.5h-7.6v-2h7.6V55.5zM54.7 52.4h-7.6v-2h7.6V52.4zM54.7 49.3h-7.6v-2h7.6V49.3z" fill="#99592a" data-fill-palette-color="accent"></path><path d="M11.9 61.6c2.1-4.8 6.9-3.2 6.9-3.2s33.5 10 36.4 11.3c1.7 0.8 2.9 2.6 2.9 4.4 0 2-0.6 3.2-2.1 4.3-1.6 1.1-3.2 1.3-5.4 0.6-0.9-0.3-6.2-2-11.7-3.7-8.2-2.6-10.2-3.1-10.7-2.8-0.9 0.5-1.1 1.2-0.7 2 0.2 0.4 4.9 2 12.5 4.5 13.7 4.4 14.2 4.5 17.4 2.6 3.2-1.9 4.7-5.4 3.8-9-0.4-1.7-0.4-1.8 0.3-2.1 0.4-0.2 6.2-2.6 12.8-5.4 13.2-5.7 13.4-5.7 15.6-4.4 2.3 1.3 3.2 5.2 2 6.8C91.2 68.4 69.9 81 69.9 81S50.6 93.7 47.1 93.6c-3.3 0-36.8-13.4-36.8-13.4S5 78.4 6.9 73.6C8.7 69.2 10 66 11.9 61.6z" fill="#99592a" data-fill-palette-color="accent"></path></svg></g></svg></g></svg></g><defs></defs></svg><rect width="395.52" height="91.23462463962929" fill="none" stroke="none" visibility="hidden"></rect></g></svg></g></svg>